<?xml version="1.0" encoding="UTF-8" standalone="no"?>
<svg
   width="460.8pt"
   height="345.6pt"
   viewBox="0 0 460.8 345.6"
   version="1.1"
   id="svg272"
   sodipodi:docname="del-odd-paths.svg"
   inkscape:version="1.2.2 (b0a8486541, 2022-12-01)"
   inkscape:export-filename="del-odd-paths.png"
   inkscape:export-xdpi="150"
   inkscape:export-ydpi="150"
   xmlns:inkscape="http://www.inkscape.org/namespaces/inkscape"
   xmlns:sodipodi="http://sodipodi.sourceforge.net/DTD/sodipodi-0.dtd"
   xmlns="http://www.w3.org/2000/svg"
   xmlns:svg="http://www.w3.org/2000/svg"
   xmlns:rdf="http://www.w3.org/1999/02/22-rdf-syntax-ns#"
   xmlns:cc="http://creativecommons.org/ns#"
   xmlns:dc="http://purl.org/dc/elements/1.1/">
  <sodipodi:namedview
     id="namedview274"
     pagecolor="#ffffff"
     bordercolor="#666666"
     borderopacity="1.0"
     inkscape:showpageshadow="2"
     inkscape:pageopacity="0.0"
     inkscape:pagecheckerboard="0"
     inkscape:deskcolor="#d1d1d1"
     inkscape:document-units="pt"
     showgrid="false"
     inkscape:zoom="1.7087024"
     inkscape:cx="453.85317"
     inkscape:cy="254.57915"
     inkscape:window-width="1920"
     inkscape:window-height="1087"
     inkscape:window-x="0"
     inkscape:window-y="29"
     inkscape:window-maximized="1"
     inkscape:current-layer="LineCollection_1" />
  <metadata
     id="metadata2">
    <rdf:RDF>
      <cc:Work>
        <dc:type
           rdf:resource="http://purl.org/dc/dcmitype/StillImage" />
        <dc:date>2024-06-14T21:11:42.098955</dc:date>
        <dc:format>image/svg+xml</dc:format>
        <dc:creator>
          <cc:Agent>
            <dc:title>Matplotlib v3.8.3, https://matplotlib.org/</dc:title>
          </cc:Agent>
        </dc:creator>
      </cc:Work>
    </rdf:RDF>
  </metadata>
  <defs
     id="defs6">
    <style
       type="text/css"
       id="style4">*{stroke-linejoin: round; stroke-linecap: butt}</style>
    <clipPath
       id="p0ec83692aa-6">
      <rect
         x="0"
         y="0"
         width="460.79999"
         height="345.60001"
         id="rect267-2" />
    </clipPath>
    <clipPath
       id="p0ec83692aa-1">
      <rect
         x="0"
         y="0"
         width="460.79999"
         height="345.60001"
         id="rect267-8" />
    </clipPath>
    <clipPath
       id="p0ec83692aa-9">
      <rect
         x="0"
         y="0"
         width="460.79999"
         height="345.60001"
         id="rect267-20" />
    </clipPath>
    <clipPath
       id="p0ec83692aa-3">
      <rect
         x="0"
         y="0"
         width="460.79999"
         height="345.60001"
         id="rect267-7" />
    </clipPath>
    <clipPath
       id="p0ec83692aa-92">
      <rect
         x="0"
         y="0"
         width="460.79999"
         height="345.60001"
         id="rect267-28" />
    </clipPath>
    <clipPath
       id="p0ec83692aa-7">
      <rect
         x="0"
         y="0"
         width="460.79999"
         height="345.60001"
         id="rect267-3" />
    </clipPath>
    <clipPath
       id="p0ec83692aa-12">
      <rect
         x="0"
         y="0"
         width="460.79999"
         height="345.60001"
         id="rect267-9" />
    </clipPath>
    <clipPath
       id="p0ec83692aa-19">
      <rect
         x="0"
         y="0"
         width="460.79999"
         height="345.60001"
         id="rect267-4" />
    </clipPath>
    <clipPath
       id="p0ec83692aa-8">
      <rect
         x="0"
         y="0"
         width="460.79999"
         height="345.60001"
         id="rect267-45" />
    </clipPath>
    <clipPath
       id="p0ec83692aa-36">
      <rect
         x="0"
         y="0"
         width="460.79999"
         height="345.60001"
         id="rect267-1" />
    </clipPath>
    <clipPath
       id="p0ec83692aa-63">
      <rect
         x="0"
         y="0"
         width="460.79999"
         height="345.60001"
         id="rect267-206" />
    </clipPath>
    <clipPath
       id="p0ec83692aa-5">
      <rect
         x="0"
         y="0"
         width="460.79999"
         height="345.60001"
         id="rect267-5" />
    </clipPath>
    <clipPath
       id="p0ec83692aa-76">
      <rect
         x="0"
         y="0"
         width="460.79999"
         height="345.60001"
         id="rect267-56" />
    </clipPath>
    <clipPath
       id="p0ec83692aa-37">
      <rect
         x="0"
         y="0"
         width="460.79999"
         height="345.60001"
         id="rect267-452" />
    </clipPath>
    <clipPath
       id="p0ec83692aa-4">
      <rect
         x="0"
         y="0"
         width="460.79999"
         height="345.60001"
         id="rect267-74" />
    </clipPath>
    <clipPath
       id="p0ec83692aa-30">
      <rect
         x="0"
         y="0"
         width="460.79999"
         height="345.60001"
         id="rect267-78" />
    </clipPath>
    <clipPath
       id="p0ec83692aa-88">
      <rect
         x="0"
         y="0"
         width="460.79999"
         height="345.60001"
         id="rect267-43" />
    </clipPath>
    <clipPath
       id="p0ec83692aa-49">
      <rect
         x="0"
         y="0"
         width="460.79999"
         height="345.60001"
         id="rect267-2068" />
    </clipPath>
    <clipPath
       id="p0ec83692aa-2">
      <rect
         x="0"
         y="0"
         width="460.79999"
         height="345.60001"
         id="rect267-6" />
    </clipPath>
    <clipPath
       id="p0ec83692aa-495">
      <rect
         x="0"
         y="0"
         width="460.79999"
         height="345.60001"
         id="rect267-0" />
    </clipPath>
    <clipPath
       id="p0ec83692aa-0">
      <rect
         x="0"
         y="0"
         width="460.79999"
         height="345.60001"
         id="rect267-36" />
    </clipPath>
    <clipPath
       id="p0ec83692aa-06">
      <rect
         x="0"
         y="0"
         width="460.79999"
         height="345.60001"
         id="rect267-32" />
    </clipPath>
    <clipPath
       id="p0ec83692aa-61">
      <rect
         x="0"
         y="0"
         width="460.79999"
         height="345.60001"
         id="rect267-55" />
    </clipPath>
    <clipPath
       id="p0ec83692aa-765">
      <rect
         x="0"
         y="0"
         width="460.79999"
         height="345.60001"
         id="rect267-69" />
    </clipPath>
    <clipPath
       id="p0ec83692aa-74">
      <rect
         x="0"
         y="0"
         width="460.79999"
         height="345.60001"
         id="rect267-52" />
    </clipPath>
    <clipPath
       id="p0ec83692aa-47">
      <rect
         x="0"
         y="0"
         width="460.79999"
         height="345.60001"
         id="rect267-44" />
    </clipPath>
    <clipPath
       id="p0ec83692aa-07">
      <rect
         x="0"
         y="0"
         width="460.79999"
         height="345.60001"
         id="rect267-86" />
    </clipPath>
  </defs>
  <g
     id="figure_1">
    <g
       id="patch_1">
      <path
         d="M 0 345.6  L 460.8 345.6  L 460.8 0  L 0 0  z "
         style="fill: #ffffff"
         id="path8" />
    </g>
    <g
       id="axes_1">
      <g
         id="LineCollection_1">
        <path
           d="M 412.551944 58.44214  L 385.494205 125.462055  "
           clip-path="url(#p0ec83692aa)"
           style="fill: none; stroke: #000000"
           id="path11" />
        <path
           d="M 412.551944 58.44214  L 420.813223 238.125265  "
           clip-path="url(#p0ec83692aa)"
           style="fill: none; stroke: #000000"
           id="path13" />
        <path
           d="M 412.551944 58.44214  L 382.419939 43.930518  "
           clip-path="url(#p0ec83692aa)"
           style="fill: none; stroke: #000000"
           id="path15" />
        <path
           d="M 385.494205 125.462055  L 420.813223 238.125265  "
           clip-path="url(#p0ec83692aa)"
           style="fill: none; stroke: #000000"
           id="path17" />
        <path
           d="M 385.494205 125.462055  L 383.11024 214.419821  "
           clip-path="url(#p0ec83692aa)"
           style="fill: none; stroke: #000000"
           id="path19" />
        <path
           d="M 385.494205 125.462055  L 382.419939 43.930518  "
           clip-path="url(#p0ec83692aa)"
           style="fill:none;stroke:#800080;font-variation-settings:normal;opacity:1;vector-effect:none;fill-opacity:1;stroke-width:3;stroke-linecap:round;stroke-linejoin:round;stroke-miterlimit:4;stroke-dasharray:none;stroke-dashoffset:0;stroke-opacity:1;-inkscape-stroke:none;stop-color:#000000;stop-opacity:1"
           id="path21" />
        <path
           d="M 385.494205 125.462055  L 305.906232 101.923386  "
           clip-path="url(#p0ec83692aa)"
           style="fill:none;stroke:#008000;font-variation-settings:normal;opacity:1;vector-effect:none;fill-opacity:1;stroke-width:3;stroke-linecap:round;stroke-linejoin:round;stroke-miterlimit:4;stroke-dasharray:none;stroke-dashoffset:0;stroke-opacity:1;-inkscape-stroke:none;stop-color:#000000;stop-opacity:1"
           id="path23" />
        <path
           d="M 385.494205 125.462055  L 287.867457 199.634041  "
           clip-path="url(#p0ec83692aa)"
           style="fill:none;stroke:#ff00ff;font-variation-settings:normal;opacity:1;vector-effect:none;fill-opacity:1;stroke-width:3;stroke-linecap:round;stroke-linejoin:round;stroke-miterlimit:4;stroke-dasharray:none;stroke-dashoffset:0;stroke-opacity:1;-inkscape-stroke:none;stop-color:#000000;stop-opacity:1"
           id="path25" />
        <path
           d="M 420.813223 238.125265  L 383.11024 214.419821  "
           clip-path="url(#p0ec83692aa)"
           style="fill: none; stroke: #000000"
           id="path27" />
        <path
           d="M 420.813223 238.125265  L 381.993737 261.484302  "
           clip-path="url(#p0ec83692aa)"
           style="fill: none; stroke: #000000"
           id="path29" />
        <path
           d="M 420.813223 238.125265  L 405.913991 303.458315  "
           clip-path="url(#p0ec83692aa)"
           style="fill: none; stroke: #000000"
           id="path31" />
        <path
           d="M 383.11024 214.419821  L 381.993737 261.484302  "
           clip-path="url(#p0ec83692aa)"
           style="fill:none;stroke:#ff00ff;font-variation-settings:normal;opacity:1;vector-effect:none;fill-opacity:1;stroke-width:3;stroke-linecap:round;stroke-linejoin:round;stroke-miterlimit:4;stroke-dasharray:none;stroke-dashoffset:0;stroke-opacity:1;-inkscape-stroke:none;stop-color:#000000;stop-opacity:1"
           id="path33" />
        <path
           d="M 383.11024 214.419821  L 287.867457 199.634041  "
           clip-path="url(#p0ec83692aa)"
           style="fill:none;stroke:#ff00ff;font-variation-settings:normal;opacity:1;vector-effect:none;fill-opacity:1;stroke-width:3;stroke-linecap:round;stroke-linejoin:round;stroke-miterlimit:4;stroke-dasharray:none;stroke-dashoffset:0;stroke-opacity:1;-inkscape-stroke:none;stop-color:#000000;stop-opacity:1"
           id="path35" />
        <path
           d="M 383.11024 214.419821  L 296.815114 254.08159  "
           clip-path="url(#p0ec83692aa)"
           style="fill: none; stroke: #000000"
           id="path37" />
        <path
           d="M 123.262 44.47685  L 71.928587 29.990083  "
           clip-path="url(#p0ec83692aa)"
           style="fill: none; stroke: #000000"
           id="path41" />
        <path
           d="M 123.262 44.47685  L 305.906232 101.923386  "
           clip-path="url(#p0ec83692aa)"
           style="fill: none; stroke: #000000"
           id="path43" />
        <path
           d="M 123.262 44.47685  L 130.092414 105.935565  "
           clip-path="url(#p0ec83692aa)"
           style="fill: none; stroke: #000000"
           id="path45" />
        <path
           d="M 123.262 44.47685  L 109.267807 60.523355  "
           clip-path="url(#p0ec83692aa)"
           style="fill:none;stroke:#800080;font-variation-settings:normal;opacity:1;vector-effect:none;fill-opacity:1;stroke-width:3;stroke-linecap:round;stroke-linejoin:round;stroke-miterlimit:4;stroke-dasharray:none;stroke-dashoffset:0;stroke-opacity:1;-inkscape-stroke:none;stop-color:#000000;stop-opacity:1"
           id="path47" />
        <path
           d="M 382.419939 43.930518  L 71.928587 29.990083  "
           clip-path="url(#p0ec83692aa)"
           style="fill: none; stroke: #000000"
           id="path49" />
        <path
           d="M 382.419939 43.930518  L 305.906232 101.923386  "
           clip-path="url(#p0ec83692aa)"
           style="fill: none; stroke: #000000"
           id="path51" />
        <path
           d="M 123.262 44.47685  L 382.419939 43.930518  "
           clip-path="url(#p0ec83692aa)"
           style="fill:none;stroke:#800080;font-variation-settings:normal;opacity:1;vector-effect:none;fill-opacity:1;stroke-width:3;stroke-linecap:round;stroke-linejoin:round;stroke-miterlimit:4;stroke-dasharray:none;stroke-dashoffset:0;stroke-opacity:1;-inkscape-stroke:none;stop-color:#000000;stop-opacity:1"
           id="path39" />
        <path
           d="M 71.928587 29.990083  L 43.048618 69.198159  "
           clip-path="url(#p0ec83692aa)"
           style="fill: none; stroke: #000000"
           id="path53" />
        <path
           d="M 71.928587 29.990083  L 67.329553 46.161149  "
           clip-path="url(#p0ec83692aa)"
           style="fill: none; stroke: #000000"
           id="path55" />
        <path
           d="M 71.928587 29.990083  L 109.267807 60.523355  "
           clip-path="url(#p0ec83692aa)"
           style="fill: none; stroke: #000000"
           id="path57" />
        <path
           d="M 305.906232 101.923386  L 130.092414 105.935565  "
           clip-path="url(#p0ec83692aa)"
           style="fill: none; stroke: #000000"
           id="path59" />
        <path
           d="M 305.906232 101.923386  L 243.725191 161.289746  "
           clip-path="url(#p0ec83692aa)"
           style="fill:none;stroke:#008000;font-variation-settings:normal;opacity:1;vector-effect:none;fill-opacity:1;stroke-width:3;stroke-linecap:round;stroke-linejoin:round;stroke-miterlimit:4;stroke-dasharray:none;stroke-dashoffset:0;stroke-opacity:1;-inkscape-stroke:none;stop-color:#000000;stop-opacity:1"
           id="path61" />
        <path
           d="M 305.906232 101.923386  L 287.867457 199.634041  "
           clip-path="url(#p0ec83692aa)"
           style="fill: none; stroke: #000000"
           id="path63" />
        <path
           d="M 43.048618 69.198159  L 67.329553 46.161149  "
           clip-path="url(#p0ec83692aa)"
           style="fill:none;stroke:#800080;font-variation-settings:normal;opacity:1;vector-effect:none;fill-opacity:1;stroke-width:3;stroke-linecap:round;stroke-linejoin:round;stroke-miterlimit:4;stroke-dasharray:none;stroke-dashoffset:0;stroke-opacity:1;-inkscape-stroke:none;stop-color:#000000;stop-opacity:1"
           id="path65" />
        <path
           d="M 43.048618 69.198159  L 100.738884 94.917847  "
           clip-path="url(#p0ec83692aa)"
           style="fill: none; stroke: #000000"
           id="path67" />
        <path
           d="M 43.048618 69.198159  L 39.986777 77.772549  "
           clip-path="url(#p0ec83692aa)"
           style="fill:none;stroke:#800080;font-variation-settings:normal;opacity:1;vector-effect:none;fill-opacity:1;stroke-width:3;stroke-linecap:round;stroke-linejoin:round;stroke-miterlimit:4;stroke-dasharray:none;stroke-dashoffset:0;stroke-opacity:1;-inkscape-stroke:none;stop-color:#000000;stop-opacity:1"
           id="path69" />
        <path
           d="M 67.329553 46.161149  L 100.738884 94.917847  "
           clip-path="url(#p0ec83692aa)"
           style="fill: none; stroke: #000000"
           id="path71" />
        <path
           d="M 67.329553 46.161149  L 109.267807 60.523355  "
           clip-path="url(#p0ec83692aa)"
           style="fill:none;stroke:#800080;font-variation-settings:normal;opacity:1;vector-effect:none;fill-opacity:1;stroke-width:3;stroke-linecap:round;stroke-linejoin:round;stroke-miterlimit:4;stroke-dasharray:none;stroke-dashoffset:0;stroke-opacity:1;-inkscape-stroke:none;stop-color:#000000;stop-opacity:1"
           id="path73" />
        <path
           d="M 130.092414 105.935565  L 87.315362 185.150603  "
           clip-path="url(#p0ec83692aa)"
           style="fill: none; stroke: #000000"
           id="path75" />
        <path
           d="M 130.092414 105.935565  L 243.725191 161.289746  "
           clip-path="url(#p0ec83692aa)"
           style="fill: none; stroke: #000000"
           id="path77" />
        <path
           d="M 130.092414 105.935565  L 100.738884 94.917847  "
           clip-path="url(#p0ec83692aa)"
           style="fill: none; stroke: #000000"
           id="path79" />
        <path
           d="M 130.092414 105.935565  L 109.267807 60.523355  "
           clip-path="url(#p0ec83692aa)"
           style="fill: none; stroke: #000000"
           id="path81" />
        <path
           d="M 87.315362 185.150603  L 243.725191 161.289746  "
           clip-path="url(#p0ec83692aa)"
           style="fill:none;stroke:#008000;font-variation-settings:normal;opacity:1;vector-effect:none;fill-opacity:1;stroke-width:3;stroke-linecap:round;stroke-linejoin:round;stroke-miterlimit:4;stroke-dasharray:none;stroke-dashoffset:0;stroke-opacity:1;-inkscape-stroke:none;stop-color:#000000;stop-opacity:1"
           id="path83" />
        <path
           d="M 87.315362 185.150603  L 85.480754 242.85609  "
           clip-path="url(#p0ec83692aa)"
           style="fill: none; stroke: #000000"
           id="path85" />
        <path
           d="M 87.315362 185.150603  L 113.884772 265.218907  "
           clip-path="url(#p0ec83692aa)"
           style="fill: none; stroke: #000000"
           id="path87" />
        <path
           d="M 87.315362 185.150603  L 219.805904 253.012695  "
           clip-path="url(#p0ec83692aa)"
           style="fill: none; stroke: #000000"
           id="path89" />
        <path
           d="M 87.315362 185.150603  L 100.738884 94.917847  "
           clip-path="url(#p0ec83692aa)"
           style="fill: none; stroke: #000000"
           id="path91" />
        <path
           d="M 87.315362 185.150603  L 39.986777 77.772549  "
           clip-path="url(#p0ec83692aa)"
           style="fill: none; stroke: #000000"
           id="path93" />
        <path
           d="M 87.315362 185.150603  L 68.18389 220.868684  "
           clip-path="url(#p0ec83692aa)"
           style="fill:none;stroke:#008000;stroke-width:3;stroke-dasharray:none;stroke-linecap:round"
           id="path95" />
        <path
           d="M 87.315362 185.150603  L 250.428416 191.379357  "
           clip-path="url(#p0ec83692aa)"
           style="fill: none; stroke: #000000"
           id="path97" />
        <path
           d="M 243.725191 161.289746  L 287.867457 199.634041  "
           clip-path="url(#p0ec83692aa)"
           style="fill: none; stroke: #000000"
           id="path99" />
        <path
           d="M 243.725191 161.289746  L 250.428416 191.379357  "
           clip-path="url(#p0ec83692aa)"
           style="fill: none; stroke: #000000"
           id="path101" />
        <path
           d="M 113.884772 265.218907  L 49.913052 246.780561  "
           clip-path="url(#p0ec83692aa)"
           style="fill: none; stroke: #000000"
           id="path105" />
        <path
           d="M 113.884772 265.218907  L 219.805904 253.012695  "
           clip-path="url(#p0ec83692aa)"
           style="fill: none; stroke: #000000"
           id="path109" />
        <path
           d="M 113.884772 265.218907  L 177.056276 299.46459  "
           clip-path="url(#p0ec83692aa)"
           style="fill: none; stroke: #000000"
           id="path111" />
        <path
           d="M 113.884772 265.218907  L 190.19076 277.644249  "
           clip-path="url(#p0ec83692aa)"
           style="fill: none; stroke: #000000"
           id="path113" />
        <path
           d="M 113.884772 265.218907  L 85.480754 242.85609  "
           clip-path="url(#p0ec83692aa)"
           style="fill:none;stroke:#ff00ff;font-variation-settings:normal;opacity:1;vector-effect:none;fill-opacity:1;stroke-width:3;stroke-linecap:round;stroke-linejoin:round;stroke-miterlimit:4;stroke-dasharray:none;stroke-dashoffset:0;stroke-opacity:1;-inkscape-stroke:none;stop-color:#000000;stop-opacity:1"
           id="path103" />
        <path
           d="M 85.480754 242.85609  L 49.913052 246.780561  "
           clip-path="url(#p0ec83692aa)"
           style="fill: none; stroke: #000000"
           id="path115" />
        <path
           d="M 85.480754 242.85609  L 68.18389 220.868684  "
           clip-path="url(#p0ec83692aa)"
           style="fill:none;stroke:#ff00ff;font-variation-settings:normal;opacity:1;vector-effect:none;fill-opacity:1;stroke-width:3;stroke-linecap:round;stroke-linejoin:round;stroke-miterlimit:4;stroke-dasharray:none;stroke-dashoffset:0;stroke-opacity:1;-inkscape-stroke:none;stop-color:#000000;stop-opacity:1"
           id="path117" />
        <path
           d="M 49.913052 246.780561  L 164.078796 312.342592  "
           clip-path="url(#p0ec83692aa)"
           style="fill: none; stroke: #000000"
           id="path119" />
        <path
           d="M 49.913052 246.780561  L 68.18389 220.868684  "
           clip-path="url(#p0ec83692aa)"
           style="fill: none; stroke: #000000"
           id="path121" />
        <path
           d="M 49.913052 246.780561  L 39.986777 77.772549  "
           clip-path="url(#p0ec83692aa)"
           style="fill: none; stroke: #000000"
           id="path123" />
        <path
           d="M 164.078796 312.342592  L 318.932561 315.609917  "
           clip-path="url(#p0ec83692aa)"
           style="fill: none; stroke: #000000"
           id="path125" />
        <path
           d="M 113.884772 265.218907  L 164.078796 312.342592  "
           clip-path="url(#p0ec83692aa)"
           style="fill:none;stroke:#ff00ff;font-variation-settings:normal;opacity:1;vector-effect:none;fill-opacity:1;stroke-width:3;stroke-linecap:round;stroke-linejoin:round;stroke-miterlimit:4;stroke-dasharray:none;stroke-dashoffset:0;stroke-opacity:1;-inkscape-stroke:none;stop-color:#000000;stop-opacity:1"
           id="path107" />
        <path
           d="M 164.078796 312.342592  L 177.056276 299.46459  "
           clip-path="url(#p0ec83692aa)"
           style="fill: none; stroke: #000000"
           id="path129" />
        <path
           d="M 318.932561 315.609917  L 212.788828 292.095145  "
           clip-path="url(#p0ec83692aa)"
           style="fill: none; stroke: #000000"
           id="path131" />
        <path
           d="M 318.932561 315.609917  L 381.993737 261.484302  "
           clip-path="url(#p0ec83692aa)"
           style="fill: none; stroke: #000000"
           id="path133" />
        <path
           d="M 318.932561 315.609917  L 392.134107 308.849244  "
           clip-path="url(#p0ec83692aa)"
           style="fill: none; stroke: #000000"
           id="path135" />
        <path
           d="M 318.932561 315.609917  L 268.21407 289.740061  "
           clip-path="url(#p0ec83692aa)"
           style="fill: none; stroke: #000000"
           id="path137" />
        <path
           d="M 318.932561 315.609917  L 296.815114 254.08159  "
           clip-path="url(#p0ec83692aa)"
           style="fill: none; stroke: #000000"
           id="path139" />
        <path
           d="M 212.788828 292.095145  L 177.056276 299.46459  "
           clip-path="url(#p0ec83692aa)"
           style="fill: none; stroke: #000000"
           id="path141" />
        <path
           d="M 212.788828 292.095145  L 219.805904 253.012695  "
           clip-path="url(#p0ec83692aa)"
           style="fill: none; stroke: #000000"
           id="path145" />
        <path
           d="M 212.788828 292.095145  L 268.21407 289.740061  "
           clip-path="url(#p0ec83692aa)"
           style="fill:none;stroke:#000000;stroke-width:1;stroke-dasharray:none;stroke-opacity:1"
           id="path147" />
        <path
           d="M 164.078796 312.342592  L 212.788828 292.095145  "
           clip-path="url(#p0ec83692aa)"
           style="fill:none;stroke:#ff00ff;font-variation-settings:normal;opacity:1;vector-effect:none;fill-opacity:1;stroke-width:3;stroke-linecap:round;stroke-linejoin:round;stroke-miterlimit:4;stroke-dasharray:none;stroke-dashoffset:0;stroke-opacity:1;-inkscape-stroke:none;stop-color:#000000;stop-opacity:1"
           id="path127" />
        <path
           d="M 212.788828 292.095145  L 194.044418 279.814946  "
           clip-path="url(#p0ec83692aa)"
           style="fill: none; stroke: #000000"
           id="path149" />
        <path
           d="M 219.805904 253.012695  L 265.960754 274.745461  "
           clip-path="url(#p0ec83692aa)"
           style="fill: none; stroke: #000000"
           id="path151" />
        <path
           d="M 219.805904 253.012695  L 190.19076 277.644249  "
           clip-path="url(#p0ec83692aa)"
           style="fill: none; stroke: #000000"
           id="path153" />
        <path
           d="M 219.805904 253.012695  L 194.044418 279.814946  "
           clip-path="url(#p0ec83692aa)"
           style="fill: none; stroke: #000000"
           id="path155" />
        <path
           d="M 219.805904 253.012695  L 287.867457 199.634041  "
           clip-path="url(#p0ec83692aa)"
           style="fill: none; stroke: #000000"
           id="path157" />
        <path
           d="M 219.805904 253.012695  L 250.428416 191.379357  "
           clip-path="url(#p0ec83692aa)"
           style="fill: none; stroke: #000000"
           id="path159" />
        <path
           d="M 219.805904 253.012695  L 296.815114 254.08159  "
           clip-path="url(#p0ec83692aa)"
           style="fill: none; stroke: #000000"
           id="path161" />
        <path
           d="M 381.993737 261.484302  L 392.134107 308.849244  "
           clip-path="url(#p0ec83692aa)"
           style="fill: none; stroke: #000000"
           id="path163" />
        <path
           d="M 381.993737 261.484302  L 405.913991 303.458315  "
           clip-path="url(#p0ec83692aa)"
           style="fill: none; stroke: #000000"
           id="path165" />
        <path
           d="M 381.993737 261.484302  L 296.815114 254.08159  "
           clip-path="url(#p0ec83692aa)"
           style="fill:none;stroke:#ff00ff;font-variation-settings:normal;opacity:1;vector-effect:none;fill-opacity:1;stroke-width:3;stroke-linecap:round;stroke-linejoin:round;stroke-miterlimit:4;stroke-dasharray:none;stroke-dashoffset:0;stroke-opacity:1;-inkscape-stroke:none;stop-color:#000000;stop-opacity:1"
           id="path167" />
        <path
           d="M 392.134107 308.849244  L 405.913991 303.458315  "
           clip-path="url(#p0ec83692aa)"
           style="fill: none; stroke: #000000"
           id="path169" />
        <path
           d="M 100.738884 94.917847  L 39.986777 77.772549  "
           clip-path="url(#p0ec83692aa)"
           style="fill: none; stroke: #000000"
           id="path171" />
        <path
           d="M 100.738884 94.917847  L 109.267807 60.523355  "
           clip-path="url(#p0ec83692aa)"
           style="fill: none; stroke: #000000"
           id="path173" />
        <path
           d="M 39.986777 77.772549  L 68.18389 220.868684  "
           clip-path="url(#p0ec83692aa)"
           style="fill:none;stroke:#800080;font-variation-settings:normal;opacity:1;vector-effect:none;fill-opacity:1;stroke-width:3;stroke-linecap:round;stroke-linejoin:round;stroke-miterlimit:4;stroke-dasharray:none;stroke-dashoffset:0;stroke-opacity:1;-inkscape-stroke:none;stop-color:#000000;stop-opacity:1"
           id="path175" />
        <path
           d="M 177.056276 299.46459  L 190.19076 277.644249  "
           clip-path="url(#p0ec83692aa)"
           style="fill: none; stroke: #000000"
           id="path177" />
        <path
           d="M 177.056276 299.46459  L 194.044418 279.814946  "
           clip-path="url(#p0ec83692aa)"
           style="fill: none; stroke: #000000"
           id="path179" />
        <path
           d="M 265.960754 274.745461  L 268.21407 289.740061  "
           clip-path="url(#p0ec83692aa)"
           style="fill: none; stroke: #000000"
           id="path181" />
        <path
           d="M 212.788828 292.095145  L 265.960754 274.745461  "
           clip-path="url(#p0ec83692aa)"
           style="fill:none;stroke:#ff00ff;font-variation-settings:normal;opacity:1;vector-effect:none;fill-opacity:1;stroke-width:3;stroke-linecap:round;stroke-linejoin:round;stroke-miterlimit:4;stroke-dasharray:none;stroke-dashoffset:0;stroke-opacity:1;-inkscape-stroke:none;stop-color:#000000;stop-opacity:1"
           id="path143" />
        <path
           d="M 268.21407 289.740061  L 296.815114 254.08159  "
           clip-path="url(#p0ec83692aa)"
           style="fill: none; stroke: #000000"
           id="path187" />
        <path
           d="M 265.960754 274.745461  L 296.815114 254.08159  "
           clip-path="url(#p0ec83692aa)"
           style="fill:none;stroke:#ff00ff;font-variation-settings:normal;opacity:1;vector-effect:none;fill-opacity:1;stroke-width:3;stroke-linecap:round;stroke-linejoin:round;stroke-miterlimit:4;stroke-dasharray:none;stroke-dashoffset:0;stroke-opacity:1;-inkscape-stroke:none;stop-color:#000000;stop-opacity:1"
           id="path183" />
        <path
           d="M 190.19076 277.644249  L 194.044418 279.814946  "
           clip-path="url(#p0ec83692aa)"
           style="fill: none; stroke: #000000"
           id="path185" />
        <path
           d="M 287.867457 199.634041  L 250.428416 191.379357  "
           clip-path="url(#p0ec83692aa)"
           style="fill: none; stroke: #000000"
           id="path189" />
        <path
           d="M 287.867457 199.634041  L 296.815114 254.08159  "
           clip-path="url(#p0ec83692aa)"
           style="fill: none; stroke: #000000"
           id="path191" />
        <path
           style="font-variation-settings:normal;opacity:1;vector-effect:none;fill:none;fill-opacity:1;stroke:#ff6600;stroke-width:2;stroke-linecap:round;stroke-linejoin:round;stroke-miterlimit:4;stroke-dasharray:6,6;stroke-dashoffset:0;stroke-opacity:1;-inkscape-stroke:none;stop-color:#000000;stop-opacity:1"
           d="m 276.80596,150.98546 -35.64482,-30.85207 -32.07903,-37.901013 93.06209,-15.25258 55.72757,29.933103 37.46087,-30.102871 10.8349,60.485031 -14.05641,57.371 -51.96248,2.26787 -14.19811,36.15471 25.90617,23.96356 -22.8983,36.03095 c 0,0 -30.75816,4.03384 -34.1085,4.01393 -3.35035,-0.0199 -3.35035,-0.0199 -3.35035,-0.0199 l -17.83488,-11.78443 -11.08136,-13.53212 8.50572,-32.25223 -14.66344,-21.21061 c 0,0 0.91766,-21.06581 1.1237,-24.73327 0.20602,-3.66747 0.20602,-3.66747 0.20602,-3.66747 z"
           id="path2495" />
      </g>
      <g
         id="PathCollection_1">
        <path
           d="M 412.551944 58.44214  C 412.551944 58.44214 412.551944 58.44214 412.551944 58.44214  C 412.551944 58.44214 412.551944 58.44214 412.551944 58.44214  C 412.551944 58.44214 412.551944 58.44214 412.551944 58.44214  C 412.551944 58.44214 412.551944 58.44214 412.551944 58.44214  C 412.551944 58.44214 412.551944 58.44214 412.551944 58.44214  C 412.551944 58.44214 412.551944 58.44214 412.551944 58.44214  C 412.551944 58.44214 412.551944 58.44214 412.551944 58.44214  C 412.551944 58.44214 412.551944 58.44214 412.551944 58.44214  z "
           clip-path="url(#p0ec83692aa)"
           style="fill: #1f78b4; stroke: #1f78b4"
           id="path194" />
        <path
           d="M 385.494205 130.462055  C 386.82022 130.462055 388.092104 129.935223 389.029739 128.997589  C 389.967373 128.059954 390.494205 126.78807 390.494205 125.462055  C 390.494205 124.136039 389.967373 122.864156 389.029739 121.926521  C 388.092104 120.988886 386.82022 120.462055 385.494205 120.462055  C 384.168189 120.462055 382.896305 120.988886 381.958671 121.926521  C 381.021036 122.864156 380.494205 124.136039 380.494205 125.462055  C 380.494205 126.78807 381.021036 128.059954 381.958671 128.997589  C 382.896305 129.935223 384.168189 130.462055 385.494205 130.462055  z "
           clip-path="url(#p0ec83692aa)"
           style="fill: #1f78b4; stroke: #1f78b4"
           id="path196" />
        <path
           d="M 420.813223 238.125265  C 420.813223 238.125265 420.813223 238.125265 420.813223 238.125265  C 420.813223 238.125265 420.813223 238.125265 420.813223 238.125265  C 420.813223 238.125265 420.813223 238.125265 420.813223 238.125265  C 420.813223 238.125265 420.813223 238.125265 420.813223 238.125265  C 420.813223 238.125265 420.813223 238.125265 420.813223 238.125265  C 420.813223 238.125265 420.813223 238.125265 420.813223 238.125265  C 420.813223 238.125265 420.813223 238.125265 420.813223 238.125265  C 420.813223 238.125265 420.813223 238.125265 420.813223 238.125265  z "
           clip-path="url(#p0ec83692aa)"
           style="fill: #1f78b4; stroke: #1f78b4"
           id="path198" />
        <path
           d="M 383.11024 214.419821  C 383.11024 214.419821 383.11024 214.419821 383.11024 214.419821  C 383.11024 214.419821 383.11024 214.419821 383.11024 214.419821  C 383.11024 214.419821 383.11024 214.419821 383.11024 214.419821  C 383.11024 214.419821 383.11024 214.419821 383.11024 214.419821  C 383.11024 214.419821 383.11024 214.419821 383.11024 214.419821  C 383.11024 214.419821 383.11024 214.419821 383.11024 214.419821  C 383.11024 214.419821 383.11024 214.419821 383.11024 214.419821  C 383.11024 214.419821 383.11024 214.419821 383.11024 214.419821  z "
           clip-path="url(#p0ec83692aa)"
           style="fill: #1f78b4; stroke: #1f78b4"
           id="path200" />
        <path
           d="M 123.262 44.47685  C 123.262 44.47685 123.262 44.47685 123.262 44.47685  C 123.262 44.47685 123.262 44.47685 123.262 44.47685  C 123.262 44.47685 123.262 44.47685 123.262 44.47685  C 123.262 44.47685 123.262 44.47685 123.262 44.47685  C 123.262 44.47685 123.262 44.47685 123.262 44.47685  C 123.262 44.47685 123.262 44.47685 123.262 44.47685  C 123.262 44.47685 123.262 44.47685 123.262 44.47685  C 123.262 44.47685 123.262 44.47685 123.262 44.47685  z "
           clip-path="url(#p0ec83692aa)"
           style="fill: #1f78b4; stroke: #1f78b4"
           id="path202" />
        <path
           d="M 382.419939 43.930518  C 382.419939 43.930518 382.419939 43.930518 382.419939 43.930518  C 382.419939 43.930518 382.419939 43.930518 382.419939 43.930518  C 382.419939 43.930518 382.419939 43.930518 382.419939 43.930518  C 382.419939 43.930518 382.419939 43.930518 382.419939 43.930518  C 382.419939 43.930518 382.419939 43.930518 382.419939 43.930518  C 382.419939 43.930518 382.419939 43.930518 382.419939 43.930518  C 382.419939 43.930518 382.419939 43.930518 382.419939 43.930518  C 382.419939 43.930518 382.419939 43.930518 382.419939 43.930518  z "
           clip-path="url(#p0ec83692aa)"
           style="fill: #1f78b4; stroke: #1f78b4"
           id="path204" />
        <path
           d="M 71.928587 29.990083  C 71.928587 29.990083 71.928587 29.990083 71.928587 29.990083  C 71.928587 29.990083 71.928587 29.990083 71.928587 29.990083  C 71.928587 29.990083 71.928587 29.990083 71.928587 29.990083  C 71.928587 29.990083 71.928587 29.990083 71.928587 29.990083  C 71.928587 29.990083 71.928587 29.990083 71.928587 29.990083  C 71.928587 29.990083 71.928587 29.990083 71.928587 29.990083  C 71.928587 29.990083 71.928587 29.990083 71.928587 29.990083  C 71.928587 29.990083 71.928587 29.990083 71.928587 29.990083  z "
           clip-path="url(#p0ec83692aa)"
           style="fill: #1f78b4; stroke: #1f78b4"
           id="path206" />
        <path
           d="M 305.906232 101.923386  C 305.906232 101.923386 305.906232 101.923386 305.906232 101.923386  C 305.906232 101.923386 305.906232 101.923386 305.906232 101.923386  C 305.906232 101.923386 305.906232 101.923386 305.906232 101.923386  C 305.906232 101.923386 305.906232 101.923386 305.906232 101.923386  C 305.906232 101.923386 305.906232 101.923386 305.906232 101.923386  C 305.906232 101.923386 305.906232 101.923386 305.906232 101.923386  C 305.906232 101.923386 305.906232 101.923386 305.906232 101.923386  C 305.906232 101.923386 305.906232 101.923386 305.906232 101.923386  z "
           clip-path="url(#p0ec83692aa)"
           style="fill: #1f78b4; stroke: #1f78b4"
           id="path208" />
        <path
           d="M 43.048618 69.198159  C 43.048618 69.198159 43.048618 69.198159 43.048618 69.198159  C 43.048618 69.198159 43.048618 69.198159 43.048618 69.198159  C 43.048618 69.198159 43.048618 69.198159 43.048618 69.198159  C 43.048618 69.198159 43.048618 69.198159 43.048618 69.198159  C 43.048618 69.198159 43.048618 69.198159 43.048618 69.198159  C 43.048618 69.198159 43.048618 69.198159 43.048618 69.198159  C 43.048618 69.198159 43.048618 69.198159 43.048618 69.198159  C 43.048618 69.198159 43.048618 69.198159 43.048618 69.198159  z "
           clip-path="url(#p0ec83692aa)"
           style="fill: #1f78b4; stroke: #1f78b4"
           id="path210" />
        <path
           d="M 67.329553 46.161149  C 67.329553 46.161149 67.329553 46.161149 67.329553 46.161149  C 67.329553 46.161149 67.329553 46.161149 67.329553 46.161149  C 67.329553 46.161149 67.329553 46.161149 67.329553 46.161149  C 67.329553 46.161149 67.329553 46.161149 67.329553 46.161149  C 67.329553 46.161149 67.329553 46.161149 67.329553 46.161149  C 67.329553 46.161149 67.329553 46.161149 67.329553 46.161149  C 67.329553 46.161149 67.329553 46.161149 67.329553 46.161149  C 67.329553 46.161149 67.329553 46.161149 67.329553 46.161149  z "
           clip-path="url(#p0ec83692aa)"
           style="fill: #1f78b4; stroke: #1f78b4"
           id="path212" />
        <path
           d="M 130.092414 105.935565  C 130.092414 105.935565 130.092414 105.935565 130.092414 105.935565  C 130.092414 105.935565 130.092414 105.935565 130.092414 105.935565  C 130.092414 105.935565 130.092414 105.935565 130.092414 105.935565  C 130.092414 105.935565 130.092414 105.935565 130.092414 105.935565  C 130.092414 105.935565 130.092414 105.935565 130.092414 105.935565  C 130.092414 105.935565 130.092414 105.935565 130.092414 105.935565  C 130.092414 105.935565 130.092414 105.935565 130.092414 105.935565  C 130.092414 105.935565 130.092414 105.935565 130.092414 105.935565  z "
           clip-path="url(#p0ec83692aa)"
           style="fill: #1f78b4; stroke: #1f78b4"
           id="path214" />
        <path
           d="M 87.315362 185.150603  C 87.315362 185.150603 87.315362 185.150603 87.315362 185.150603  C 87.315362 185.150603 87.315362 185.150603 87.315362 185.150603  C 87.315362 185.150603 87.315362 185.150603 87.315362 185.150603  C 87.315362 185.150603 87.315362 185.150603 87.315362 185.150603  C 87.315362 185.150603 87.315362 185.150603 87.315362 185.150603  C 87.315362 185.150603 87.315362 185.150603 87.315362 185.150603  C 87.315362 185.150603 87.315362 185.150603 87.315362 185.150603  C 87.315362 185.150603 87.315362 185.150603 87.315362 185.150603  z "
           clip-path="url(#p0ec83692aa)"
           style="fill: #1f78b4; stroke: #1f78b4"
           id="path216" />
        <path
           d="M 243.725191 161.289746  C 243.725191 161.289746 243.725191 161.289746 243.725191 161.289746  C 243.725191 161.289746 243.725191 161.289746 243.725191 161.289746  C 243.725191 161.289746 243.725191 161.289746 243.725191 161.289746  C 243.725191 161.289746 243.725191 161.289746 243.725191 161.289746  C 243.725191 161.289746 243.725191 161.289746 243.725191 161.289746  C 243.725191 161.289746 243.725191 161.289746 243.725191 161.289746  C 243.725191 161.289746 243.725191 161.289746 243.725191 161.289746  C 243.725191 161.289746 243.725191 161.289746 243.725191 161.289746  z "
           clip-path="url(#p0ec83692aa)"
           style="fill: #1f78b4; stroke: #1f78b4"
           id="path218" />
        <path
           d="M 113.884772 265.218907  C 113.884772 265.218907 113.884772 265.218907 113.884772 265.218907  C 113.884772 265.218907 113.884772 265.218907 113.884772 265.218907  C 113.884772 265.218907 113.884772 265.218907 113.884772 265.218907  C 113.884772 265.218907 113.884772 265.218907 113.884772 265.218907  C 113.884772 265.218907 113.884772 265.218907 113.884772 265.218907  C 113.884772 265.218907 113.884772 265.218907 113.884772 265.218907  C 113.884772 265.218907 113.884772 265.218907 113.884772 265.218907  C 113.884772 265.218907 113.884772 265.218907 113.884772 265.218907  z "
           clip-path="url(#p0ec83692aa)"
           style="fill: #1f78b4; stroke: #1f78b4"
           id="path220" />
        <path
           d="M 85.480754 242.85609  C 85.480754 242.85609 85.480754 242.85609 85.480754 242.85609  C 85.480754 242.85609 85.480754 242.85609 85.480754 242.85609  C 85.480754 242.85609 85.480754 242.85609 85.480754 242.85609  C 85.480754 242.85609 85.480754 242.85609 85.480754 242.85609  C 85.480754 242.85609 85.480754 242.85609 85.480754 242.85609  C 85.480754 242.85609 85.480754 242.85609 85.480754 242.85609  C 85.480754 242.85609 85.480754 242.85609 85.480754 242.85609  C 85.480754 242.85609 85.480754 242.85609 85.480754 242.85609  z "
           clip-path="url(#p0ec83692aa)"
           style="fill: #1f78b4; stroke: #1f78b4"
           id="path222" />
        <path
           d="M 49.913052 246.780561  C 49.913052 246.780561 49.913052 246.780561 49.913052 246.780561  C 49.913052 246.780561 49.913052 246.780561 49.913052 246.780561  C 49.913052 246.780561 49.913052 246.780561 49.913052 246.780561  C 49.913052 246.780561 49.913052 246.780561 49.913052 246.780561  C 49.913052 246.780561 49.913052 246.780561 49.913052 246.780561  C 49.913052 246.780561 49.913052 246.780561 49.913052 246.780561  C 49.913052 246.780561 49.913052 246.780561 49.913052 246.780561  C 49.913052 246.780561 49.913052 246.780561 49.913052 246.780561  z "
           clip-path="url(#p0ec83692aa)"
           style="fill: #1f78b4; stroke: #1f78b4"
           id="path224" />
        <path
           d="M 164.078796 312.342592  C 164.078796 312.342592 164.078796 312.342592 164.078796 312.342592  C 164.078796 312.342592 164.078796 312.342592 164.078796 312.342592  C 164.078796 312.342592 164.078796 312.342592 164.078796 312.342592  C 164.078796 312.342592 164.078796 312.342592 164.078796 312.342592  C 164.078796 312.342592 164.078796 312.342592 164.078796 312.342592  C 164.078796 312.342592 164.078796 312.342592 164.078796 312.342592  C 164.078796 312.342592 164.078796 312.342592 164.078796 312.342592  C 164.078796 312.342592 164.078796 312.342592 164.078796 312.342592  z "
           clip-path="url(#p0ec83692aa)"
           style="fill: #1f78b4; stroke: #1f78b4"
           id="path226" />
        <path
           d="M 318.932561 315.609917  C 318.932561 315.609917 318.932561 315.609917 318.932561 315.609917  C 318.932561 315.609917 318.932561 315.609917 318.932561 315.609917  C 318.932561 315.609917 318.932561 315.609917 318.932561 315.609917  C 318.932561 315.609917 318.932561 315.609917 318.932561 315.609917  C 318.932561 315.609917 318.932561 315.609917 318.932561 315.609917  C 318.932561 315.609917 318.932561 315.609917 318.932561 315.609917  C 318.932561 315.609917 318.932561 315.609917 318.932561 315.609917  C 318.932561 315.609917 318.932561 315.609917 318.932561 315.609917  z "
           clip-path="url(#p0ec83692aa)"
           style="fill: #1f78b4; stroke: #1f78b4"
           id="path228" />
        <path
           d="M 212.788828 292.095145  C 212.788828 292.095145 212.788828 292.095145 212.788828 292.095145  C 212.788828 292.095145 212.788828 292.095145 212.788828 292.095145  C 212.788828 292.095145 212.788828 292.095145 212.788828 292.095145  C 212.788828 292.095145 212.788828 292.095145 212.788828 292.095145  C 212.788828 292.095145 212.788828 292.095145 212.788828 292.095145  C 212.788828 292.095145 212.788828 292.095145 212.788828 292.095145  C 212.788828 292.095145 212.788828 292.095145 212.788828 292.095145  C 212.788828 292.095145 212.788828 292.095145 212.788828 292.095145  z "
           clip-path="url(#p0ec83692aa)"
           style="fill: #1f78b4; stroke: #1f78b4"
           id="path230" />
        <path
           d="M 219.805904 253.012695  C 219.805904 253.012695 219.805904 253.012695 219.805904 253.012695  C 219.805904 253.012695 219.805904 253.012695 219.805904 253.012695  C 219.805904 253.012695 219.805904 253.012695 219.805904 253.012695  C 219.805904 253.012695 219.805904 253.012695 219.805904 253.012695  C 219.805904 253.012695 219.805904 253.012695 219.805904 253.012695  C 219.805904 253.012695 219.805904 253.012695 219.805904 253.012695  C 219.805904 253.012695 219.805904 253.012695 219.805904 253.012695  C 219.805904 253.012695 219.805904 253.012695 219.805904 253.012695  z "
           clip-path="url(#p0ec83692aa)"
           style="fill: #1f78b4; stroke: #1f78b4"
           id="path232" />
        <path
           d="M 381.993737 261.484302  C 381.993737 261.484302 381.993737 261.484302 381.993737 261.484302  C 381.993737 261.484302 381.993737 261.484302 381.993737 261.484302  C 381.993737 261.484302 381.993737 261.484302 381.993737 261.484302  C 381.993737 261.484302 381.993737 261.484302 381.993737 261.484302  C 381.993737 261.484302 381.993737 261.484302 381.993737 261.484302  C 381.993737 261.484302 381.993737 261.484302 381.993737 261.484302  C 381.993737 261.484302 381.993737 261.484302 381.993737 261.484302  C 381.993737 261.484302 381.993737 261.484302 381.993737 261.484302  z "
           clip-path="url(#p0ec83692aa)"
           style="fill: #1f78b4; stroke: #1f78b4"
           id="path234" />
        <path
           d="M 392.134107 308.849244  C 392.134107 308.849244 392.134107 308.849244 392.134107 308.849244  C 392.134107 308.849244 392.134107 308.849244 392.134107 308.849244  C 392.134107 308.849244 392.134107 308.849244 392.134107 308.849244  C 392.134107 308.849244 392.134107 308.849244 392.134107 308.849244  C 392.134107 308.849244 392.134107 308.849244 392.134107 308.849244  C 392.134107 308.849244 392.134107 308.849244 392.134107 308.849244  C 392.134107 308.849244 392.134107 308.849244 392.134107 308.849244  C 392.134107 308.849244 392.134107 308.849244 392.134107 308.849244  z "
           clip-path="url(#p0ec83692aa)"
           style="fill: #1f78b4; stroke: #1f78b4"
           id="path236" />
        <path
           d="M 405.913991 303.458315  C 405.913991 303.458315 405.913991 303.458315 405.913991 303.458315  C 405.913991 303.458315 405.913991 303.458315 405.913991 303.458315  C 405.913991 303.458315 405.913991 303.458315 405.913991 303.458315  C 405.913991 303.458315 405.913991 303.458315 405.913991 303.458315  C 405.913991 303.458315 405.913991 303.458315 405.913991 303.458315  C 405.913991 303.458315 405.913991 303.458315 405.913991 303.458315  C 405.913991 303.458315 405.913991 303.458315 405.913991 303.458315  C 405.913991 303.458315 405.913991 303.458315 405.913991 303.458315  z "
           clip-path="url(#p0ec83692aa)"
           style="fill: #1f78b4; stroke: #1f78b4"
           id="path238" />
        <path
           d="M 100.738884 94.917847  C 100.738884 94.917847 100.738884 94.917847 100.738884 94.917847  C 100.738884 94.917847 100.738884 94.917847 100.738884 94.917847  C 100.738884 94.917847 100.738884 94.917847 100.738884 94.917847  C 100.738884 94.917847 100.738884 94.917847 100.738884 94.917847  C 100.738884 94.917847 100.738884 94.917847 100.738884 94.917847  C 100.738884 94.917847 100.738884 94.917847 100.738884 94.917847  C 100.738884 94.917847 100.738884 94.917847 100.738884 94.917847  C 100.738884 94.917847 100.738884 94.917847 100.738884 94.917847  z "
           clip-path="url(#p0ec83692aa)"
           style="fill: #1f78b4; stroke: #1f78b4"
           id="path240" />
        <path
           d="M 39.986777 77.772549  C 39.986777 77.772549 39.986777 77.772549 39.986777 77.772549  C 39.986777 77.772549 39.986777 77.772549 39.986777 77.772549  C 39.986777 77.772549 39.986777 77.772549 39.986777 77.772549  C 39.986777 77.772549 39.986777 77.772549 39.986777 77.772549  C 39.986777 77.772549 39.986777 77.772549 39.986777 77.772549  C 39.986777 77.772549 39.986777 77.772549 39.986777 77.772549  C 39.986777 77.772549 39.986777 77.772549 39.986777 77.772549  C 39.986777 77.772549 39.986777 77.772549 39.986777 77.772549  z "
           clip-path="url(#p0ec83692aa)"
           style="fill: #1f78b4; stroke: #1f78b4"
           id="path242" />
        <path
           d="M 68.18389 225.868684  C 69.509906 225.868684 70.78179 225.341852 71.719424 224.404218  C 72.657059 223.466583 73.18389 222.194699 73.18389 220.868684  C 73.18389 219.542668 72.657059 218.270785 71.719424 217.33315  C 70.78179 216.395515 69.509906 215.868684 68.18389 215.868684  C 66.857875 215.868684 65.585991 216.395515 64.648357 217.33315  C 63.710722 218.270785 63.18389 219.542668 63.18389 220.868684  C 63.18389 222.194699 63.710722 223.466583 64.648357 224.404218  C 65.585991 225.341852 66.857875 225.868684 68.18389 225.868684  z "
           clip-path="url(#p0ec83692aa)"
           style="fill: #1f78b4; stroke: #1f78b4"
           id="path244" />
        <path
           d="M 177.056276 299.46459  C 177.056276 299.46459 177.056276 299.46459 177.056276 299.46459  C 177.056276 299.46459 177.056276 299.46459 177.056276 299.46459  C 177.056276 299.46459 177.056276 299.46459 177.056276 299.46459  C 177.056276 299.46459 177.056276 299.46459 177.056276 299.46459  C 177.056276 299.46459 177.056276 299.46459 177.056276 299.46459  C 177.056276 299.46459 177.056276 299.46459 177.056276 299.46459  C 177.056276 299.46459 177.056276 299.46459 177.056276 299.46459  C 177.056276 299.46459 177.056276 299.46459 177.056276 299.46459  z "
           clip-path="url(#p0ec83692aa)"
           style="fill: #1f78b4; stroke: #1f78b4"
           id="path246" />
        <path
           d="M 265.960754 274.745461  C 265.960754 274.745461 265.960754 274.745461 265.960754 274.745461  C 265.960754 274.745461 265.960754 274.745461 265.960754 274.745461  C 265.960754 274.745461 265.960754 274.745461 265.960754 274.745461  C 265.960754 274.745461 265.960754 274.745461 265.960754 274.745461  C 265.960754 274.745461 265.960754 274.745461 265.960754 274.745461  C 265.960754 274.745461 265.960754 274.745461 265.960754 274.745461  C 265.960754 274.745461 265.960754 274.745461 265.960754 274.745461  C 265.960754 274.745461 265.960754 274.745461 265.960754 274.745461  z "
           clip-path="url(#p0ec83692aa)"
           style="fill: #1f78b4; stroke: #1f78b4"
           id="path248" />
        <path
           d="M 109.267807 60.523355  C 109.267807 60.523355 109.267807 60.523355 109.267807 60.523355  C 109.267807 60.523355 109.267807 60.523355 109.267807 60.523355  C 109.267807 60.523355 109.267807 60.523355 109.267807 60.523355  C 109.267807 60.523355 109.267807 60.523355 109.267807 60.523355  C 109.267807 60.523355 109.267807 60.523355 109.267807 60.523355  C 109.267807 60.523355 109.267807 60.523355 109.267807 60.523355  C 109.267807 60.523355 109.267807 60.523355 109.267807 60.523355  C 109.267807 60.523355 109.267807 60.523355 109.267807 60.523355  z "
           clip-path="url(#p0ec83692aa)"
           style="fill: #1f78b4; stroke: #1f78b4"
           id="path250" />
        <path
           d="M 190.19076 277.644249  C 190.19076 277.644249 190.19076 277.644249 190.19076 277.644249  C 190.19076 277.644249 190.19076 277.644249 190.19076 277.644249  C 190.19076 277.644249 190.19076 277.644249 190.19076 277.644249  C 190.19076 277.644249 190.19076 277.644249 190.19076 277.644249  C 190.19076 277.644249 190.19076 277.644249 190.19076 277.644249  C 190.19076 277.644249 190.19076 277.644249 190.19076 277.644249  C 190.19076 277.644249 190.19076 277.644249 190.19076 277.644249  C 190.19076 277.644249 190.19076 277.644249 190.19076 277.644249  z "
           clip-path="url(#p0ec83692aa)"
           style="fill: #1f78b4; stroke: #1f78b4"
           id="path252" />
        <path
           d="M 268.21407 289.740061  C 268.21407 289.740061 268.21407 289.740061 268.21407 289.740061  C 268.21407 289.740061 268.21407 289.740061 268.21407 289.740061  C 268.21407 289.740061 268.21407 289.740061 268.21407 289.740061  C 268.21407 289.740061 268.21407 289.740061 268.21407 289.740061  C 268.21407 289.740061 268.21407 289.740061 268.21407 289.740061  C 268.21407 289.740061 268.21407 289.740061 268.21407 289.740061  C 268.21407 289.740061 268.21407 289.740061 268.21407 289.740061  C 268.21407 289.740061 268.21407 289.740061 268.21407 289.740061  z "
           clip-path="url(#p0ec83692aa)"
           style="fill: #1f78b4; stroke: #1f78b4"
           id="path254" />
        <path
           d="M 287.867457 199.634041  C 287.867457 199.634041 287.867457 199.634041 287.867457 199.634041  C 287.867457 199.634041 287.867457 199.634041 287.867457 199.634041  C 287.867457 199.634041 287.867457 199.634041 287.867457 199.634041  C 287.867457 199.634041 287.867457 199.634041 287.867457 199.634041  C 287.867457 199.634041 287.867457 199.634041 287.867457 199.634041  C 287.867457 199.634041 287.867457 199.634041 287.867457 199.634041  C 287.867457 199.634041 287.867457 199.634041 287.867457 199.634041  C 287.867457 199.634041 287.867457 199.634041 287.867457 199.634041  z "
           clip-path="url(#p0ec83692aa)"
           style="fill: #1f78b4; stroke: #1f78b4"
           id="path256" />
        <path
           d="M 194.044418 279.814946  C 194.044418 279.814946 194.044418 279.814946 194.044418 279.814946  C 194.044418 279.814946 194.044418 279.814946 194.044418 279.814946  C 194.044418 279.814946 194.044418 279.814946 194.044418 279.814946  C 194.044418 279.814946 194.044418 279.814946 194.044418 279.814946  C 194.044418 279.814946 194.044418 279.814946 194.044418 279.814946  C 194.044418 279.814946 194.044418 279.814946 194.044418 279.814946  C 194.044418 279.814946 194.044418 279.814946 194.044418 279.814946  C 194.044418 279.814946 194.044418 279.814946 194.044418 279.814946  z "
           clip-path="url(#p0ec83692aa)"
           style="fill: #1f78b4; stroke: #1f78b4"
           id="path258" />
        <path
           d="M 250.428416 191.379357  C 250.428416 191.379357 250.428416 191.379357 250.428416 191.379357  C 250.428416 191.379357 250.428416 191.379357 250.428416 191.379357  C 250.428416 191.379357 250.428416 191.379357 250.428416 191.379357  C 250.428416 191.379357 250.428416 191.379357 250.428416 191.379357  C 250.428416 191.379357 250.428416 191.379357 250.428416 191.379357  C 250.428416 191.379357 250.428416 191.379357 250.428416 191.379357  C 250.428416 191.379357 250.428416 191.379357 250.428416 191.379357  C 250.428416 191.379357 250.428416 191.379357 250.428416 191.379357  z "
           clip-path="url(#p0ec83692aa)"
           style="fill: #1f78b4; stroke: #1f78b4"
           id="path260" />
        <path
           d="M 296.815114 254.08159  C 296.815114 254.08159 296.815114 254.08159 296.815114 254.08159  C 296.815114 254.08159 296.815114 254.08159 296.815114 254.08159  C 296.815114 254.08159 296.815114 254.08159 296.815114 254.08159  C 296.815114 254.08159 296.815114 254.08159 296.815114 254.08159  C 296.815114 254.08159 296.815114 254.08159 296.815114 254.08159  C 296.815114 254.08159 296.815114 254.08159 296.815114 254.08159  C 296.815114 254.08159 296.815114 254.08159 296.815114 254.08159  C 296.815114 254.08159 296.815114 254.08159 296.815114 254.08159  z "
           clip-path="url(#p0ec83692aa)"
           style="fill: #1f78b4; stroke: #1f78b4"
           id="path262" />
      </g>
    </g>
  </g>
  <defs
     id="defs270">
    <clipPath
       id="p0ec83692aa">
      <rect
         x="0"
         y="0"
         width="460.8"
         height="345.6"
         id="rect267" />
    </clipPath>
  </defs>
</svg>
