<?xml version="1.0" encoding="UTF-8" standalone="no"?>
<svg
   width="460.8pt"
   height="345.6pt"
   viewBox="0 0 460.8 345.6"
   version="1.1"
   id="svg272"
   sodipodi:docname="del-s-t-cut.svg"
   inkscape:version="1.2.2 (b0a8486541, 2022-12-01)"
   inkscape:export-filename="del-s-t-cut.png"
   inkscape:export-xdpi="150"
   inkscape:export-ydpi="150"
   xmlns:inkscape="http://www.inkscape.org/namespaces/inkscape"
   xmlns:sodipodi="http://sodipodi.sourceforge.net/DTD/sodipodi-0.dtd"
   xmlns="http://www.w3.org/2000/svg"
   xmlns:svg="http://www.w3.org/2000/svg"
   xmlns:rdf="http://www.w3.org/1999/02/22-rdf-syntax-ns#"
   xmlns:cc="http://creativecommons.org/ns#"
   xmlns:dc="http://purl.org/dc/elements/1.1/">
  <sodipodi:namedview
     id="namedview274"
     pagecolor="#ffffff"
     bordercolor="#666666"
     borderopacity="1.0"
     inkscape:showpageshadow="2"
     inkscape:pageopacity="0.0"
     inkscape:pagecheckerboard="0"
     inkscape:deskcolor="#d1d1d1"
     inkscape:document-units="pt"
     showgrid="false"
     inkscape:zoom="2.1025231"
     inkscape:cx="456.59427"
     inkscape:cy="217.83352"
     inkscape:window-width="1920"
     inkscape:window-height="1087"
     inkscape:window-x="0"
     inkscape:window-y="29"
     inkscape:window-maximized="1"
     inkscape:current-layer="LineCollection_1" />
  <metadata
     id="metadata2">
    <rdf:RDF>
      <cc:Work>
        <dc:type
           rdf:resource="http://purl.org/dc/dcmitype/StillImage" />
        <dc:date>2024-06-14T21:11:42.098955</dc:date>
        <dc:format>image/svg+xml</dc:format>
        <dc:creator>
          <cc:Agent>
            <dc:title>Matplotlib v3.8.3, https://matplotlib.org/</dc:title>
          </cc:Agent>
        </dc:creator>
      </cc:Work>
    </rdf:RDF>
  </metadata>
  <defs
     id="defs6">
    <style
       type="text/css"
       id="style4">*{stroke-linejoin: round; stroke-linecap: butt}</style>
    <clipPath
       id="p0ec83692aa-6">
      <rect
         x="0"
         y="0"
         width="460.79999"
         height="345.60001"
         id="rect267-2" />
    </clipPath>
    <clipPath
       id="p0ec83692aa-1">
      <rect
         x="0"
         y="0"
         width="460.79999"
         height="345.60001"
         id="rect267-8" />
    </clipPath>
    <clipPath
       id="p0ec83692aa-9">
      <rect
         x="0"
         y="0"
         width="460.79999"
         height="345.60001"
         id="rect267-20" />
    </clipPath>
    <clipPath
       id="p0ec83692aa-3">
      <rect
         x="0"
         y="0"
         width="460.79999"
         height="345.60001"
         id="rect267-7" />
    </clipPath>
    <clipPath
       id="p0ec83692aa-92">
      <rect
         x="0"
         y="0"
         width="460.79999"
         height="345.60001"
         id="rect267-28" />
    </clipPath>
    <clipPath
       id="p0ec83692aa-7">
      <rect
         x="0"
         y="0"
         width="460.79999"
         height="345.60001"
         id="rect267-3" />
    </clipPath>
    <clipPath
       id="p0ec83692aa-12">
      <rect
         x="0"
         y="0"
         width="460.79999"
         height="345.60001"
         id="rect267-9" />
    </clipPath>
    <clipPath
       id="p0ec83692aa-19">
      <rect
         x="0"
         y="0"
         width="460.79999"
         height="345.60001"
         id="rect267-4" />
    </clipPath>
    <clipPath
       id="p0ec83692aa-8">
      <rect
         x="0"
         y="0"
         width="460.79999"
         height="345.60001"
         id="rect267-45" />
    </clipPath>
    <clipPath
       id="p0ec83692aa-36">
      <rect
         x="0"
         y="0"
         width="460.79999"
         height="345.60001"
         id="rect267-1" />
    </clipPath>
    <clipPath
       id="p0ec83692aa-63">
      <rect
         x="0"
         y="0"
         width="460.79999"
         height="345.60001"
         id="rect267-206" />
    </clipPath>
    <clipPath
       id="p0ec83692aa-5">
      <rect
         x="0"
         y="0"
         width="460.79999"
         height="345.60001"
         id="rect267-5" />
    </clipPath>
    <clipPath
       id="p0ec83692aa-76">
      <rect
         x="0"
         y="0"
         width="460.79999"
         height="345.60001"
         id="rect267-56" />
    </clipPath>
    <clipPath
       id="p0ec83692aa-37">
      <rect
         x="0"
         y="0"
         width="460.79999"
         height="345.60001"
         id="rect267-452" />
    </clipPath>
    <clipPath
       id="p0ec83692aa-4">
      <rect
         x="0"
         y="0"
         width="460.79999"
         height="345.60001"
         id="rect267-74" />
    </clipPath>
    <clipPath
       id="p0ec83692aa-30">
      <rect
         x="0"
         y="0"
         width="460.79999"
         height="345.60001"
         id="rect267-78" />
    </clipPath>
    <clipPath
       id="p0ec83692aa-88">
      <rect
         x="0"
         y="0"
         width="460.79999"
         height="345.60001"
         id="rect267-43" />
    </clipPath>
    <clipPath
       id="p0ec83692aa-49">
      <rect
         x="0"
         y="0"
         width="460.79999"
         height="345.60001"
         id="rect267-2068" />
    </clipPath>
    <clipPath
       id="p0ec83692aa-2">
      <rect
         x="0"
         y="0"
         width="460.79999"
         height="345.60001"
         id="rect267-6" />
    </clipPath>
    <clipPath
       id="p0ec83692aa-495">
      <rect
         x="0"
         y="0"
         width="460.79999"
         height="345.60001"
         id="rect267-0" />
    </clipPath>
    <clipPath
       id="p0ec83692aa-0">
      <rect
         x="0"
         y="0"
         width="460.79999"
         height="345.60001"
         id="rect267-36" />
    </clipPath>
    <clipPath
       id="p0ec83692aa-06">
      <rect
         x="0"
         y="0"
         width="460.79999"
         height="345.60001"
         id="rect267-32" />
    </clipPath>
    <clipPath
       id="p0ec83692aa-61">
      <rect
         x="0"
         y="0"
         width="460.79999"
         height="345.60001"
         id="rect267-55" />
    </clipPath>
    <clipPath
       id="p0ec83692aa-765">
      <rect
         x="0"
         y="0"
         width="460.79999"
         height="345.60001"
         id="rect267-69" />
    </clipPath>
    <clipPath
       id="p0ec83692aa-74">
      <rect
         x="0"
         y="0"
         width="460.79999"
         height="345.60001"
         id="rect267-52" />
    </clipPath>
    <clipPath
       id="p0ec83692aa-47">
      <rect
         x="0"
         y="0"
         width="460.79999"
         height="345.60001"
         id="rect267-44" />
    </clipPath>
    <clipPath
       id="p0ec83692aa-07">
      <rect
         x="0"
         y="0"
         width="460.79999"
         height="345.60001"
         id="rect267-86" />
    </clipPath>
  </defs>
  <g
     id="figure_1">
    <g
       id="patch_1">
      <path
         d="M 0 345.6  L 460.8 345.6  L 460.8 0  L 0 0  z "
         style="fill: #ffffff"
         id="path8" />
    </g>
    <g
       id="axes_1">
      <g
         id="LineCollection_1">
        <path
           d="M 412.551944 58.44214  L 420.813223 238.125265  "
           clip-path="url(#p0ec83692aa)"
           style="fill: none; stroke: #000000"
           id="path13" />
        <path
           d="M 412.551944 58.44214  L 382.419939 43.930518  "
           clip-path="url(#p0ec83692aa)"
           style="fill: none; stroke: #000000"
           id="path15" />
        <path
           d="M 287.867457 199.634041  L 296.815114 254.08159  "
           clip-path="url(#p0ec83692aa)"
           style="fill: none; stroke: #000000"
           id="path191" />
        <path
           d="M 305.906232 101.923386  L 287.867457 199.634041  "
           clip-path="url(#p0ec83692aa)"
           style="fill: none; stroke: #000000"
           id="path63" />
        <path
           d="M 385.494205 125.462055  L 305.906232 101.923386  "
           clip-path="url(#p0ec83692aa)"
           style="fill:none;stroke:#008000;font-variation-settings:normal;opacity:1;vector-effect:none;fill-opacity:1;stroke-width:3;stroke-linecap:round;stroke-linejoin:round;stroke-miterlimit:4;stroke-dasharray:none;stroke-dashoffset:0;stroke-opacity:1;-inkscape-stroke:none;stop-color:#000000;stop-opacity:1"
           id="path23" />
        <path
           d="M 385.494205 125.462055  L 287.867457 199.634041  "
           clip-path="url(#p0ec83692aa)"
           style="fill:none;stroke:#ff00ff;font-variation-settings:normal;opacity:1;vector-effect:none;fill-opacity:1;stroke-width:3;stroke-linecap:round;stroke-linejoin:round;stroke-miterlimit:4;stroke-dasharray:none;stroke-dashoffset:0;stroke-opacity:1;-inkscape-stroke:none;stop-color:#000000;stop-opacity:1"
           id="path25" />
        <path
           d="M 420.813223 238.125265  L 383.11024 214.419821  "
           clip-path="url(#p0ec83692aa)"
           style="fill: none; stroke: #000000"
           id="path27" />
        <path
           d="M 420.813223 238.125265  L 381.993737 261.484302  "
           clip-path="url(#p0ec83692aa)"
           style="fill: none; stroke: #000000"
           id="path29" />
        <path
           d="M 420.813223 238.125265  L 405.913991 303.458315  "
           clip-path="url(#p0ec83692aa)"
           style="fill: none; stroke: #000000"
           id="path31" />
        <path
           d="M 123.262 44.47685  L 71.928587 29.990083  "
           clip-path="url(#p0ec83692aa)"
           style="fill: none; stroke: #000000"
           id="path41" />
        <path
           d="M 123.262 44.47685  L 130.092414 105.935565  "
           clip-path="url(#p0ec83692aa)"
           style="fill: none; stroke: #000000"
           id="path45" />
        <path
           d="M 123.262 44.47685  L 109.267807 60.523355  "
           clip-path="url(#p0ec83692aa)"
           style="fill:none;stroke:#800080;font-variation-settings:normal;opacity:1;vector-effect:none;fill-opacity:1;stroke-width:3;stroke-linecap:round;stroke-linejoin:round;stroke-miterlimit:4;stroke-dasharray:none;stroke-dashoffset:0;stroke-opacity:1;-inkscape-stroke:none;stop-color:#000000;stop-opacity:1"
           id="path47" />
        <path
           d="M 382.419939 43.930518  L 71.928587 29.990083  "
           clip-path="url(#p0ec83692aa)"
           style="fill: none; stroke: #000000"
           id="path49" />
        <path
           d="M 123.262 44.47685  L 382.419939 43.930518  "
           clip-path="url(#p0ec83692aa)"
           style="fill:none;stroke:#800080;font-variation-settings:normal;opacity:1;vector-effect:none;fill-opacity:1;stroke-width:3;stroke-linecap:round;stroke-linejoin:round;stroke-miterlimit:4;stroke-dasharray:none;stroke-dashoffset:0;stroke-opacity:1;-inkscape-stroke:none;stop-color:#000000;stop-opacity:1"
           id="path39" />
        <path
           d="M 71.928587 29.990083  L 43.048618 69.198159  "
           clip-path="url(#p0ec83692aa)"
           style="fill: none; stroke: #000000"
           id="path53" />
        <path
           d="M 71.928587 29.990083  L 67.329553 46.161149  "
           clip-path="url(#p0ec83692aa)"
           style="fill: none; stroke: #000000"
           id="path55" />
        <path
           d="M 71.928587 29.990083  L 109.267807 60.523355  "
           clip-path="url(#p0ec83692aa)"
           style="fill: none; stroke: #000000"
           id="path57" />
        <path
           d="M 43.048618 69.198159  L 67.329553 46.161149  "
           clip-path="url(#p0ec83692aa)"
           style="fill:none;stroke:#800080;font-variation-settings:normal;opacity:1;vector-effect:none;fill-opacity:1;stroke-width:3;stroke-linecap:round;stroke-linejoin:round;stroke-miterlimit:4;stroke-dasharray:none;stroke-dashoffset:0;stroke-opacity:1;-inkscape-stroke:none;stop-color:#000000;stop-opacity:1"
           id="path65" />
        <path
           d="M 43.048618 69.198159  L 100.738884 94.917847  "
           clip-path="url(#p0ec83692aa)"
           style="fill: none; stroke: #000000"
           id="path67" />
        <path
           d="M 43.048618 69.198159  L 39.986777 77.772549  "
           clip-path="url(#p0ec83692aa)"
           style="fill:none;stroke:#800080;font-variation-settings:normal;opacity:1;vector-effect:none;fill-opacity:1;stroke-width:3;stroke-linecap:round;stroke-linejoin:round;stroke-miterlimit:4;stroke-dasharray:none;stroke-dashoffset:0;stroke-opacity:1;-inkscape-stroke:none;stop-color:#000000;stop-opacity:1"
           id="path69" />
        <path
           d="M 67.329553 46.161149  L 100.738884 94.917847  "
           clip-path="url(#p0ec83692aa)"
           style="fill: none; stroke: #000000"
           id="path71" />
        <path
           d="M 67.329553 46.161149  L 109.267807 60.523355  "
           clip-path="url(#p0ec83692aa)"
           style="fill:none;stroke:#800080;font-variation-settings:normal;opacity:1;vector-effect:none;fill-opacity:1;stroke-width:3;stroke-linecap:round;stroke-linejoin:round;stroke-miterlimit:4;stroke-dasharray:none;stroke-dashoffset:0;stroke-opacity:1;-inkscape-stroke:none;stop-color:#000000;stop-opacity:1"
           id="path73" />
        <path
           d="M 130.092414 105.935565  L 87.315362 185.150603  "
           clip-path="url(#p0ec83692aa)"
           style="fill: none; stroke: #000000"
           id="path75" />
        <path
           d="M 130.092414 105.935565  L 243.725191 161.289746  "
           clip-path="url(#p0ec83692aa)"
           style="fill: none; stroke: #000000"
           id="path77" />
        <path
           d="M 130.092414 105.935565  L 100.738884 94.917847  "
           clip-path="url(#p0ec83692aa)"
           style="fill: none; stroke: #000000"
           id="path79" />
        <path
           d="M 130.092414 105.935565  L 109.267807 60.523355  "
           clip-path="url(#p0ec83692aa)"
           style="fill: none; stroke: #000000"
           id="path81" />
        <path
           d="M 87.315362 185.150603  L 243.725191 161.289746  "
           clip-path="url(#p0ec83692aa)"
           style="fill:none;stroke:#008000;font-variation-settings:normal;opacity:1;vector-effect:none;fill-opacity:1;stroke-width:3;stroke-linecap:round;stroke-linejoin:round;stroke-miterlimit:4;stroke-dasharray:none;stroke-dashoffset:0;stroke-opacity:1;-inkscape-stroke:none;stop-color:#000000;stop-opacity:1"
           id="path83" />
        <path
           d="M 87.315362 185.150603  L 85.480754 242.85609  "
           clip-path="url(#p0ec83692aa)"
           style="fill: none; stroke: #000000"
           id="path85" />
        <path
           d="M 87.315362 185.150603  L 113.884772 265.218907  "
           clip-path="url(#p0ec83692aa)"
           style="fill: none; stroke: #000000"
           id="path87" />
        <path
           d="M 87.315362 185.150603  L 219.805904 253.012695  "
           clip-path="url(#p0ec83692aa)"
           style="fill: none; stroke: #000000"
           id="path89" />
        <path
           d="M 87.315362 185.150603  L 100.738884 94.917847  "
           clip-path="url(#p0ec83692aa)"
           style="fill: none; stroke: #000000"
           id="path91" />
        <path
           d="M 87.315362 185.150603  L 39.986777 77.772549  "
           clip-path="url(#p0ec83692aa)"
           style="fill: none; stroke: #000000"
           id="path93" />
        <path
           d="M 87.315362 185.150603  L 68.18389 220.868684  "
           clip-path="url(#p0ec83692aa)"
           style="fill:none;stroke:#008000;stroke-width:3;stroke-dasharray:none;stroke-linecap:round"
           id="path95" />
        <path
           d="M 87.315362 185.150603  L 250.428416 191.379357  "
           clip-path="url(#p0ec83692aa)"
           style="fill: none; stroke: #000000"
           id="path97" />
        <path
           d="M 243.725191 161.289746  L 250.428416 191.379357  "
           clip-path="url(#p0ec83692aa)"
           style="fill: none; stroke: #000000"
           id="path101" />
        <path
           d="M 113.884772 265.218907  L 49.913052 246.780561  "
           clip-path="url(#p0ec83692aa)"
           style="fill: none; stroke: #000000"
           id="path105" />
        <path
           d="M 113.884772 265.218907  L 219.805904 253.012695  "
           clip-path="url(#p0ec83692aa)"
           style="fill: none; stroke: #000000"
           id="path109" />
        <path
           d="M 113.884772 265.218907  L 177.056276 299.46459  "
           clip-path="url(#p0ec83692aa)"
           style="fill: none; stroke: #000000"
           id="path111" />
        <path
           d="M 113.884772 265.218907  L 190.19076 277.644249  "
           clip-path="url(#p0ec83692aa)"
           style="fill: none; stroke: #000000"
           id="path113" />
        <path
           d="M 113.884772 265.218907  L 85.480754 242.85609  "
           clip-path="url(#p0ec83692aa)"
           style="fill:none;stroke:#ff00ff;font-variation-settings:normal;opacity:1;vector-effect:none;fill-opacity:1;stroke-width:3;stroke-linecap:round;stroke-linejoin:round;stroke-miterlimit:4;stroke-dasharray:none;stroke-dashoffset:0;stroke-opacity:1;-inkscape-stroke:none;stop-color:#000000;stop-opacity:1"
           id="path103" />
        <path
           d="M 85.480754 242.85609  L 49.913052 246.780561  "
           clip-path="url(#p0ec83692aa)"
           style="fill: none; stroke: #000000"
           id="path115" />
        <path
           d="M 85.480754 242.85609  L 68.18389 220.868684  "
           clip-path="url(#p0ec83692aa)"
           style="fill:none;stroke:#ff00ff;font-variation-settings:normal;opacity:1;vector-effect:none;fill-opacity:1;stroke-width:3;stroke-linecap:round;stroke-linejoin:round;stroke-miterlimit:4;stroke-dasharray:none;stroke-dashoffset:0;stroke-opacity:1;-inkscape-stroke:none;stop-color:#000000;stop-opacity:1"
           id="path117" />
        <path
           d="M 49.913052 246.780561  L 164.078796 312.342592  "
           clip-path="url(#p0ec83692aa)"
           style="fill: none; stroke: #000000"
           id="path119" />
        <path
           d="M 49.913052 246.780561  L 68.18389 220.868684  "
           clip-path="url(#p0ec83692aa)"
           style="fill: none; stroke: #000000"
           id="path121" />
        <path
           d="M 49.913052 246.780561  L 39.986777 77.772549  "
           clip-path="url(#p0ec83692aa)"
           style="fill: none; stroke: #000000"
           id="path123" />
        <path
           d="M 164.078796 312.342592  L 318.932561 315.609917  "
           clip-path="url(#p0ec83692aa)"
           style="fill: none; stroke: #000000"
           id="path125" />
        <path
           d="M 113.884772 265.218907  L 164.078796 312.342592  "
           clip-path="url(#p0ec83692aa)"
           style="fill:none;stroke:#ff00ff;font-variation-settings:normal;opacity:1;vector-effect:none;fill-opacity:1;stroke-width:3;stroke-linecap:round;stroke-linejoin:round;stroke-miterlimit:4;stroke-dasharray:none;stroke-dashoffset:0;stroke-opacity:1;-inkscape-stroke:none;stop-color:#000000;stop-opacity:1"
           id="path107" />
        <path
           d="M 164.078796 312.342592  L 177.056276 299.46459  "
           clip-path="url(#p0ec83692aa)"
           style="fill: none; stroke: #000000"
           id="path129" />
        <path
           d="M 318.932561 315.609917  L 212.788828 292.095145  "
           clip-path="url(#p0ec83692aa)"
           style="fill: none; stroke: #000000"
           id="path131" />
        <path
           d="M 318.932561 315.609917  L 381.993737 261.484302  "
           clip-path="url(#p0ec83692aa)"
           style="fill: none; stroke: #000000"
           id="path133" />
        <path
           d="M 318.932561 315.609917  L 392.134107 308.849244  "
           clip-path="url(#p0ec83692aa)"
           style="fill: none; stroke: #000000"
           id="path135" />
        <path
           d="M 318.932561 315.609917  L 268.21407 289.740061  "
           clip-path="url(#p0ec83692aa)"
           style="fill: none; stroke: #000000"
           id="path137" />
        <path
           d="M 212.788828 292.095145  L 177.056276 299.46459  "
           clip-path="url(#p0ec83692aa)"
           style="fill: none; stroke: #000000"
           id="path141" />
        <path
           d="M 212.788828 292.095145  L 219.805904 253.012695  "
           clip-path="url(#p0ec83692aa)"
           style="fill: none; stroke: #000000"
           id="path145" />
        <path
           d="M 212.788828 292.095145  L 268.21407 289.740061  "
           clip-path="url(#p0ec83692aa)"
           style="fill:none;stroke:#000000;stroke-width:1;stroke-dasharray:none;stroke-opacity:1"
           id="path147" />
        <path
           d="M 164.078796 312.342592  L 212.788828 292.095145  "
           clip-path="url(#p0ec83692aa)"
           style="fill:none;stroke:#ff00ff;font-variation-settings:normal;opacity:1;vector-effect:none;fill-opacity:1;stroke-width:3;stroke-linecap:round;stroke-linejoin:round;stroke-miterlimit:4;stroke-dasharray:none;stroke-dashoffset:0;stroke-opacity:1;-inkscape-stroke:none;stop-color:#000000;stop-opacity:1"
           id="path127" />
        <path
           d="M 212.788828 292.095145  L 194.044418 279.814946  "
           clip-path="url(#p0ec83692aa)"
           style="fill: none; stroke: #000000"
           id="path149" />
        <path
           d="M 219.805904 253.012695  L 265.960754 274.745461  "
           clip-path="url(#p0ec83692aa)"
           style="fill: none; stroke: #000000"
           id="path151" />
        <path
           d="M 219.805904 253.012695  L 190.19076 277.644249  "
           clip-path="url(#p0ec83692aa)"
           style="fill: none; stroke: #000000"
           id="path153" />
        <path
           d="M 219.805904 253.012695  L 194.044418 279.814946  "
           clip-path="url(#p0ec83692aa)"
           style="fill: none; stroke: #000000"
           id="path155" />
        <path
           d="M 219.805904 253.012695  L 250.428416 191.379357  "
           clip-path="url(#p0ec83692aa)"
           style="fill: none; stroke: #000000"
           id="path159" />
        <path
           d="M 381.993737 261.484302  L 392.134107 308.849244  "
           clip-path="url(#p0ec83692aa)"
           style="fill: none; stroke: #000000"
           id="path163" />
        <path
           d="M 381.993737 261.484302  L 405.913991 303.458315  "
           clip-path="url(#p0ec83692aa)"
           style="fill: none; stroke: #000000"
           id="path165" />
        <path
           d="M 392.134107 308.849244  L 405.913991 303.458315  "
           clip-path="url(#p0ec83692aa)"
           style="fill: none; stroke: #000000"
           id="path169" />
        <path
           d="M 100.738884 94.917847  L 39.986777 77.772549  "
           clip-path="url(#p0ec83692aa)"
           style="fill: none; stroke: #000000"
           id="path171" />
        <path
           d="M 100.738884 94.917847  L 109.267807 60.523355  "
           clip-path="url(#p0ec83692aa)"
           style="fill: none; stroke: #000000"
           id="path173" />
        <path
           d="M 39.986777 77.772549  L 68.18389 220.868684  "
           clip-path="url(#p0ec83692aa)"
           style="fill:none;stroke:#800080;font-variation-settings:normal;opacity:1;vector-effect:none;fill-opacity:1;stroke-width:3;stroke-linecap:round;stroke-linejoin:round;stroke-miterlimit:4;stroke-dasharray:none;stroke-dashoffset:0;stroke-opacity:1;-inkscape-stroke:none;stop-color:#000000;stop-opacity:1"
           id="path175" />
        <path
           d="M 177.056276 299.46459  L 190.19076 277.644249  "
           clip-path="url(#p0ec83692aa)"
           style="fill: none; stroke: #000000"
           id="path177" />
        <path
           d="M 177.056276 299.46459  L 194.044418 279.814946  "
           clip-path="url(#p0ec83692aa)"
           style="fill: none; stroke: #000000"
           id="path179" />
        <path
           d="M 265.960754 274.745461  L 268.21407 289.740061  "
           clip-path="url(#p0ec83692aa)"
           style="fill: none; stroke: #000000"
           id="path181" />
        <path
           d="M 212.788828 292.095145  L 265.960754 274.745461  "
           clip-path="url(#p0ec83692aa)"
           style="fill:none;stroke:#ff00ff;font-variation-settings:normal;opacity:1;vector-effect:none;fill-opacity:1;stroke-width:3;stroke-linecap:round;stroke-linejoin:round;stroke-miterlimit:4;stroke-dasharray:none;stroke-dashoffset:0;stroke-opacity:1;-inkscape-stroke:none;stop-color:#000000;stop-opacity:1"
           id="path143" />
        <path
           d="M 190.19076 277.644249  L 194.044418 279.814946  "
           clip-path="url(#p0ec83692aa)"
           style="fill: none; stroke: #000000"
           id="path185" />
        <path
           style="font-variation-settings:normal;opacity:1;vector-effect:none;fill:none;fill-opacity:1;stroke:#ff6600;stroke-width:2;stroke-linecap:round;stroke-linejoin:round;stroke-miterlimit:4;stroke-dasharray:6,6;stroke-dashoffset:0;stroke-opacity:1;-inkscape-stroke:none;stop-color:#000000;stop-opacity:1"
           d="m 276.80596,150.98546 -35.64482,-30.85207 -32.07903,-37.901013 93.06209,-15.25258 55.72757,29.933103 37.46087,-30.102871 10.8349,60.485031 -14.05641,57.371 -51.96248,2.26787 -14.19811,36.15471 25.90617,23.96356 -22.8983,36.03095 c 0,0 -30.75816,4.03384 -34.1085,4.01393 -3.35035,-0.0199 -3.35035,-0.0199 -3.35035,-0.0199 l -17.83488,-11.78443 -11.08136,-13.53212 8.50572,-32.25223 -14.66344,-21.21061 c 0,0 0.91766,-21.06581 1.1237,-24.73327 0.20602,-3.66747 0.20602,-3.66747 0.20602,-3.66747 z"
           id="path2495" />
        <path
           d="M 383.11024 214.419821  L 381.993737 261.484302  "
           clip-path="url(#p0ec83692aa)"
           style="fill:none;stroke:#ff00ff;font-variation-settings:normal;opacity:1;vector-effect:none;fill-opacity:1;stroke-width:3;stroke-linecap:round;stroke-linejoin:round;stroke-miterlimit:4;stroke-dasharray:none;stroke-dashoffset:0;stroke-opacity:1;-inkscape-stroke:none;stop-color:#000000;stop-opacity:1"
           id="path33" />
      </g>
      <path
         d="m 412.55194,58.44214 c 0,0 0,0 0,0 0,0 0,0 0,0 0,0 0,0 0,0 0,0 0,0 0,0 0,0 0,0 0,0 0,0 0,0 0,0 0,0 0,0 0,0 0,0 0,0 0,0 z"
         clip-path="url(#p0ec83692aa)"
         style="fill:#1f78b4;stroke:#1f78b4"
         id="path194" />
      <path
         d="m 385.49421,130.46205 c 1.32601,0 2.59789,-0.52683 3.53553,-1.46446 0.93763,-0.93764 1.46447,-2.20952 1.46447,-3.53553 0,-1.32602 -0.52684,-2.5979 -1.46447,-3.53554 -0.93764,-0.93763 -2.20952,-1.46446 -3.53553,-1.46446 -1.32602,0 -2.59791,0.52683 -3.53554,1.46446 -0.93763,0.93764 -1.46446,2.20952 -1.46446,3.53554 0,1.32601 0.52683,2.59789 1.46446,3.53553 0.93763,0.93763 2.20952,1.46446 3.53554,1.46446 z"
         clip-path="url(#p0ec83692aa)"
         style="fill:#1f78b4;stroke:#1f78b4"
         id="path196" />
      <path
         d="m 420.81322,238.12527 c 0,0 0,0 0,0 0,0 0,0 0,0 0,0 0,0 0,0 0,0 0,0 0,0 0,0 0,0 0,0 0,0 0,0 0,0 0,0 0,0 0,0 0,0 0,0 0,0 z"
         clip-path="url(#p0ec83692aa)"
         style="fill:#1f78b4;stroke:#1f78b4"
         id="path198" />
      <path
         d="m 383.11024,214.41982 c 0,0 0,0 0,0 0,0 0,0 0,0 0,0 0,0 0,0 0,0 0,0 0,0 0,0 0,0 0,0 0,0 0,0 0,0 0,0 0,0 0,0 0,0 0,0 0,0 z"
         clip-path="url(#p0ec83692aa)"
         style="fill:#1f78b4;stroke:#1f78b4"
         id="path200" />
      <path
         d="m 123.262,44.47685 c 0,0 0,0 0,0 0,0 0,0 0,0 0,0 0,0 0,0 0,0 0,0 0,0 0,0 0,0 0,0 0,0 0,0 0,0 0,0 0,0 0,0 0,0 0,0 0,0 z"
         clip-path="url(#p0ec83692aa)"
         style="fill:#1f78b4;stroke:#1f78b4"
         id="path202" />
      <path
         d="m 382.41994,43.930518 c 0,0 0,0 0,0 0,0 0,0 0,0 0,0 0,0 0,0 0,0 0,0 0,0 0,0 0,0 0,0 0,0 0,0 0,0 0,0 0,0 0,0 0,0 0,0 0,0 z"
         clip-path="url(#p0ec83692aa)"
         style="fill:#1f78b4;stroke:#1f78b4"
         id="path204" />
      <path
         d="m 71.928587,29.990083 c 0,0 0,0 0,0 0,0 0,0 0,0 0,0 0,0 0,0 0,0 0,0 0,0 0,0 0,0 0,0 0,0 0,0 0,0 0,0 0,0 0,0 0,0 0,0 0,0 z"
         clip-path="url(#p0ec83692aa)"
         style="fill:#1f78b4;stroke:#1f78b4"
         id="path206" />
      <path
         d="m 305.90623,101.92339 c 0,0 0,0 0,0 0,0 0,0 0,0 0,0 0,0 0,0 0,0 0,0 0,0 0,0 0,0 0,0 0,0 0,0 0,0 0,0 0,0 0,0 0,0 0,0 0,0 z"
         clip-path="url(#p0ec83692aa)"
         style="fill:#1f78b4;stroke:#1f78b4"
         id="path208" />
      <path
         d="m 43.048618,69.198159 c 0,0 0,0 0,0 0,0 0,0 0,0 0,0 0,0 0,0 0,0 0,0 0,0 0,0 0,0 0,0 0,0 0,0 0,0 0,0 0,0 0,0 0,0 0,0 0,0 z"
         clip-path="url(#p0ec83692aa)"
         style="fill:#1f78b4;stroke:#1f78b4"
         id="path210" />
      <path
         d="m 67.329553,46.161149 c 0,0 0,0 0,0 0,0 0,0 0,0 0,0 0,0 0,0 0,0 0,0 0,0 0,0 0,0 0,0 0,0 0,0 0,0 0,0 0,0 0,0 0,0 0,0 0,0 z"
         clip-path="url(#p0ec83692aa)"
         style="fill:#1f78b4;stroke:#1f78b4"
         id="path212" />
      <path
         d="m 130.09241,105.93556 c 0,0 0,0 0,0 0,0 0,0 0,0 0,0 0,0 0,0 0,0 0,0 0,0 0,0 0,0 0,0 0,0 0,0 0,0 0,0 0,0 0,0 0,0 0,0 0,0 z"
         clip-path="url(#p0ec83692aa)"
         style="fill:#1f78b4;stroke:#1f78b4"
         id="path214" />
      <path
         d="m 87.315362,185.1506 c 0,0 0,0 0,0 0,0 0,0 0,0 0,0 0,0 0,0 0,0 0,0 0,0 0,0 0,0 0,0 0,0 0,0 0,0 0,0 0,0 0,0 0,0 0,0 0,0 z"
         clip-path="url(#p0ec83692aa)"
         style="fill:#1f78b4;stroke:#1f78b4"
         id="path216" />
      <path
         d="m 243.72519,161.28975 c 0,0 0,0 0,0 0,0 0,0 0,0 0,0 0,0 0,0 0,0 0,0 0,0 0,0 0,0 0,0 0,0 0,0 0,0 0,0 0,0 0,0 0,0 0,0 0,0 z"
         clip-path="url(#p0ec83692aa)"
         style="fill:#1f78b4;stroke:#1f78b4"
         id="path218" />
      <path
         d="m 113.88477,265.21891 c 0,0 0,0 0,0 0,0 0,0 0,0 0,0 0,0 0,0 0,0 0,0 0,0 0,0 0,0 0,0 0,0 0,0 0,0 0,0 0,0 0,0 0,0 0,0 0,0 z"
         clip-path="url(#p0ec83692aa)"
         style="fill:#1f78b4;stroke:#1f78b4"
         id="path220" />
      <path
         d="m 85.480754,242.85609 c 0,0 0,0 0,0 0,0 0,0 0,0 0,0 0,0 0,0 0,0 0,0 0,0 0,0 0,0 0,0 0,0 0,0 0,0 0,0 0,0 0,0 0,0 0,0 0,0 z"
         clip-path="url(#p0ec83692aa)"
         style="fill:#1f78b4;stroke:#1f78b4"
         id="path222" />
      <path
         d="m 49.913052,246.78056 c 0,0 0,0 0,0 0,0 0,0 0,0 0,0 0,0 0,0 0,0 0,0 0,0 0,0 0,0 0,0 0,0 0,0 0,0 0,0 0,0 0,0 0,0 0,0 0,0 z"
         clip-path="url(#p0ec83692aa)"
         style="fill:#1f78b4;stroke:#1f78b4"
         id="path224" />
      <path
         d="m 164.0788,312.34259 c 0,0 0,0 0,0 0,0 0,0 0,0 0,0 0,0 0,0 0,0 0,0 0,0 0,0 0,0 0,0 0,0 0,0 0,0 0,0 0,0 0,0 0,0 0,0 0,0 z"
         clip-path="url(#p0ec83692aa)"
         style="fill:#1f78b4;stroke:#1f78b4"
         id="path226" />
      <path
         d="m 318.93256,315.60992 c 0,0 0,0 0,0 0,0 0,0 0,0 0,0 0,0 0,0 0,0 0,0 0,0 0,0 0,0 0,0 0,0 0,0 0,0 0,0 0,0 0,0 0,0 0,0 0,0 z"
         clip-path="url(#p0ec83692aa)"
         style="fill:#1f78b4;stroke:#1f78b4"
         id="path228" />
      <path
         d="m 212.78883,292.09514 c 0,0 0,0 0,0 0,0 0,0 0,0 0,0 0,0 0,0 0,0 0,0 0,0 0,0 0,0 0,0 0,0 0,0 0,0 0,0 0,0 0,0 0,0 0,0 0,0 z"
         clip-path="url(#p0ec83692aa)"
         style="fill:#1f78b4;stroke:#1f78b4"
         id="path230" />
      <path
         d="m 219.8059,253.01269 c 0,0 0,0 0,0 0,0 0,0 0,0 0,0 0,0 0,0 0,0 0,0 0,0 0,0 0,0 0,0 0,0 0,0 0,0 0,0 0,0 0,0 0,0 0,0 0,0 z"
         clip-path="url(#p0ec83692aa)"
         style="fill:#1f78b4;stroke:#1f78b4"
         id="path232" />
      <path
         d="m 381.99374,261.4843 c 0,0 0,0 0,0 0,0 0,0 0,0 0,0 0,0 0,0 0,0 0,0 0,0 0,0 0,0 0,0 0,0 0,0 0,0 0,0 0,0 0,0 0,0 0,0 0,0 z"
         clip-path="url(#p0ec83692aa)"
         style="fill:#1f78b4;stroke:#1f78b4"
         id="path234" />
      <path
         d="m 392.13411,308.84924 c 0,0 0,0 0,0 0,0 0,0 0,0 0,0 0,0 0,0 0,0 0,0 0,0 0,0 0,0 0,0 0,0 0,0 0,0 0,0 0,0 0,0 0,0 0,0 0,0 z"
         clip-path="url(#p0ec83692aa)"
         style="fill:#1f78b4;stroke:#1f78b4"
         id="path236" />
      <path
         d="m 405.91399,303.45832 c 0,0 0,0 0,0 0,0 0,0 0,0 0,0 0,0 0,0 0,0 0,0 0,0 0,0 0,0 0,0 0,0 0,0 0,0 0,0 0,0 0,0 0,0 0,0 0,0 z"
         clip-path="url(#p0ec83692aa)"
         style="fill:#1f78b4;stroke:#1f78b4"
         id="path238" />
      <path
         d="m 100.73888,94.917847 c 0,0 0,0 0,0 0,0 0,0 0,0 0,0 0,0 0,0 0,0 0,0 0,0 0,0 0,0 0,0 0,0 0,0 0,0 0,0 0,0 0,0 0,0 0,0 0,0 z"
         clip-path="url(#p0ec83692aa)"
         style="fill:#1f78b4;stroke:#1f78b4"
         id="path240" />
      <path
         d="m 39.986777,77.772549 c 0,0 0,0 0,0 0,0 0,0 0,0 0,0 0,0 0,0 0,0 0,0 0,0 0,0 0,0 0,0 0,0 0,0 0,0 0,0 0,0 0,0 0,0 0,0 0,0 z"
         clip-path="url(#p0ec83692aa)"
         style="fill:#1f78b4;stroke:#1f78b4"
         id="path242" />
      <path
         d="m 68.18389,225.86868 c 1.326016,0 2.5979,-0.52683 3.535534,-1.46446 0.937635,-0.93764 1.464466,-2.20952 1.464466,-3.53554 0,-1.32601 -0.526831,-2.5979 -1.464466,-3.53553 -0.937634,-0.93764 -2.209518,-1.46447 -3.535534,-1.46447 -1.326015,0 -2.597899,0.52683 -3.535533,1.46447 -0.937635,0.93763 -1.464467,2.20952 -1.464467,3.53553 0,1.32602 0.526832,2.5979 1.464467,3.53554 0.937634,0.93763 2.209518,1.46446 3.535533,1.46446 z"
         clip-path="url(#p0ec83692aa)"
         style="fill:#1f78b4;stroke:#1f78b4"
         id="path244" />
      <path
         d="m 177.05628,299.46459 c 0,0 0,0 0,0 0,0 0,0 0,0 0,0 0,0 0,0 0,0 0,0 0,0 0,0 0,0 0,0 0,0 0,0 0,0 0,0 0,0 0,0 0,0 0,0 0,0 z"
         clip-path="url(#p0ec83692aa)"
         style="fill:#1f78b4;stroke:#1f78b4"
         id="path246" />
      <path
         d="m 265.96075,274.74546 c 0,0 0,0 0,0 0,0 0,0 0,0 0,0 0,0 0,0 0,0 0,0 0,0 0,0 0,0 0,0 0,0 0,0 0,0 0,0 0,0 0,0 0,0 0,0 0,0 z"
         clip-path="url(#p0ec83692aa)"
         style="fill:#1f78b4;stroke:#1f78b4"
         id="path248" />
      <path
         d="m 109.26781,60.523355 c 0,0 0,0 0,0 0,0 0,0 0,0 0,0 0,0 0,0 0,0 0,0 0,0 0,0 0,0 0,0 0,0 0,0 0,0 0,0 0,0 0,0 0,0 0,0 0,0 z"
         clip-path="url(#p0ec83692aa)"
         style="fill:#1f78b4;stroke:#1f78b4"
         id="path250" />
      <path
         d="m 190.19076,277.64425 c 0,0 0,0 0,0 0,0 0,0 0,0 0,0 0,0 0,0 0,0 0,0 0,0 0,0 0,0 0,0 0,0 0,0 0,0 0,0 0,0 0,0 0,0 0,0 0,0 z"
         clip-path="url(#p0ec83692aa)"
         style="fill:#1f78b4;stroke:#1f78b4"
         id="path252" />
      <path
         d="m 268.21407,289.74006 c 0,0 0,0 0,0 0,0 0,0 0,0 0,0 0,0 0,0 0,0 0,0 0,0 0,0 0,0 0,0 0,0 0,0 0,0 0,0 0,0 0,0 0,0 0,0 0,0 z"
         clip-path="url(#p0ec83692aa)"
         style="fill:#1f78b4;stroke:#1f78b4"
         id="path254" />
      <path
         d="m 287.86746,199.63404 c 0,0 0,0 0,0 0,0 0,0 0,0 0,0 0,0 0,0 0,0 0,0 0,0 0,0 0,0 0,0 0,0 0,0 0,0 0,0 0,0 0,0 0,0 0,0 0,0 z"
         clip-path="url(#p0ec83692aa)"
         style="fill:#1f78b4;stroke:#1f78b4"
         id="path256" />
      <path
         d="m 194.04442,279.81495 c 0,0 0,0 0,0 0,0 0,0 0,0 0,0 0,0 0,0 0,0 0,0 0,0 0,0 0,0 0,0 0,0 0,0 0,0 0,0 0,0 0,0 0,0 0,0 0,0 z"
         clip-path="url(#p0ec83692aa)"
         style="fill:#1f78b4;stroke:#1f78b4"
         id="path258" />
      <path
         d="m 250.42842,191.37936 c 0,0 0,0 0,0 0,0 0,0 0,0 0,0 0,0 0,0 0,0 0,0 0,0 0,0 0,0 0,0 0,0 0,0 0,0 0,0 0,0 0,0 0,0 0,0 0,0 z"
         clip-path="url(#p0ec83692aa)"
         style="fill:#1f78b4;stroke:#1f78b4"
         id="path260" />
      <path
         d="m 296.81511,254.08159 c 0,0 0,0 0,0 0,0 0,0 0,0 0,0 0,0 0,0 0,0 0,0 0,0 0,0 0,0 0,0 0,0 0,0 0,0 0,0 0,0 0,0 0,0 0,0 0,0 z"
         clip-path="url(#p0ec83692aa)"
         style="fill:#1f78b4;stroke:#1f78b4"
         id="path262" />
    </g>
  </g>
  <defs
     id="defs270">
    <clipPath
       id="p0ec83692aa">
      <rect
         x="0"
         y="0"
         width="460.8"
         height="345.6"
         id="rect267" />
    </clipPath>
  </defs>
</svg>
