<?xml version="1.0" encoding="UTF-8" standalone="no"?>
<svg
   width="460.8pt"
   height="345.6pt"
   viewBox="0 0 460.8 345.6"
   version="1.1"
   id="svg272"
   sodipodi:docname="del2.svg"
   inkscape:version="1.2.2 (b0a8486541, 2022-12-01)"
   xmlns:inkscape="http://www.inkscape.org/namespaces/inkscape"
   xmlns:sodipodi="http://sodipodi.sourceforge.net/DTD/sodipodi-0.dtd"
   xmlns="http://www.w3.org/2000/svg"
   xmlns:svg="http://www.w3.org/2000/svg"
   xmlns:rdf="http://www.w3.org/1999/02/22-rdf-syntax-ns#"
   xmlns:cc="http://creativecommons.org/ns#"
   xmlns:dc="http://purl.org/dc/elements/1.1/">
  <sodipodi:namedview
     pagecolor="#ffffff"
     bordercolor="#666666"
     borderopacity="1"
     objecttolerance="10"
     gridtolerance="10"
     guidetolerance="10"
     inkscape:pageopacity="0"
     inkscape:pageshadow="2"
     inkscape:window-width="1584"
     inkscape:window-height="1380"
     id="namedview274"
     showgrid="false"
     inkscape:zoom="2.0486112"
     inkscape:cx="295.81016"
     inkscape:cy="246.9966"
     inkscape:window-x="45"
     inkscape:window-y="29"
     inkscape:window-maximized="0"
     inkscape:current-layer="svg272"
     inkscape:showpageshadow="2"
     inkscape:pagecheckerboard="0"
     inkscape:deskcolor="#d1d1d1"
     inkscape:document-units="pt" />
  <metadata
     id="metadata2">
    <rdf:RDF>
      <cc:Work>
        <dc:type
           rdf:resource="http://purl.org/dc/dcmitype/StillImage" />
        <dc:date>2024-06-14T21:11:42.098955</dc:date>
        <dc:format>image/svg+xml</dc:format>
        <dc:creator>
          <cc:Agent>
            <dc:title>Matplotlib v3.8.3, https://matplotlib.org/</dc:title>
          </cc:Agent>
        </dc:creator>
      </cc:Work>
    </rdf:RDF>
  </metadata>
  <defs
     id="defs6">
    <style
       type="text/css"
       id="style4">*{stroke-linejoin: round; stroke-linecap: butt}</style>
    <clipPath
       id="p0ec83692aa-3">
      <rect
         x="0"
         y="0"
         width="460.79999"
         height="345.60001"
         id="rect2126" />
    </clipPath>
  </defs>
  <path
     d="M 0,345.6 H 460.8 V 0 H 0 Z"
     style="fill:#ffffff;stroke-linecap:butt;stroke-linejoin:round"
     id="path8"
     inkscape:connector-curvature="0" />
  <path
     inkscape:connector-curvature="0"
     id="path11"
     style="fill:none;stroke:#000000;stroke-linecap:butt;stroke-linejoin:round"
     clip-path="url(#p0ec83692aa)"
     d="m 412.55194,58.44214 -27.05773,67.01992" />
  <path
     inkscape:connector-curvature="0"
     id="path13"
     style="fill:none;stroke:#000000;stroke-linecap:butt;stroke-linejoin:round"
     clip-path="url(#p0ec83692aa)"
     d="m 412.55194,58.44214 8.26128,179.68313" />
  <path
     inkscape:connector-curvature="0"
     id="path15"
     style="fill:none;stroke:#000000;stroke-linecap:butt;stroke-linejoin:round"
     clip-path="url(#p0ec83692aa)"
     d="m 412.55194,58.44214 -30.132,-14.511622" />
  <path
     inkscape:connector-curvature="0"
     id="path17"
     style="fill:none;stroke:#000000;stroke-linecap:butt;stroke-linejoin:round"
     clip-path="url(#p0ec83692aa)"
     d="m 385.49421,125.46206 35.31901,112.66321" />
  <path
     inkscape:connector-curvature="0"
     id="path19"
     style="fill:none;stroke:#000000;stroke-linecap:butt;stroke-linejoin:round"
     clip-path="url(#p0ec83692aa)"
     d="m 385.49421,125.46206 -2.38397,88.95776" />
  <path
     inkscape:connector-curvature="0"
     id="path21"
     style="fill:none;stroke:#000000;stroke-linecap:butt;stroke-linejoin:round"
     clip-path="url(#p0ec83692aa)"
     d="M 385.49421,125.46206 382.41994,43.930518" />
  <path
     inkscape:connector-curvature="0"
     id="path23"
     style="fill:none;stroke:#000000;stroke-linecap:butt;stroke-linejoin:round"
     clip-path="url(#p0ec83692aa)"
     d="M 385.49421,125.46206 305.90623,101.92339" />
  <path
     inkscape:connector-curvature="0"
     id="path25"
     style="fill:none;stroke:#000000;stroke-linecap:butt;stroke-linejoin:round"
     clip-path="url(#p0ec83692aa)"
     d="m 385.49421,125.46206 -97.62675,74.17198" />
  <path
     inkscape:connector-curvature="0"
     id="path27"
     style="fill:none;stroke:#000000;stroke-linecap:butt;stroke-linejoin:round"
     clip-path="url(#p0ec83692aa)"
     d="M 420.81322,238.12527 383.11024,214.41982" />
  <path
     inkscape:connector-curvature="0"
     id="path29"
     style="fill:none;stroke:#000000;stroke-linecap:butt;stroke-linejoin:round"
     clip-path="url(#p0ec83692aa)"
     d="M 420.81322,238.12527 381.99374,261.4843" />
  <path
     inkscape:connector-curvature="0"
     id="path31"
     style="fill:none;stroke:#000000;stroke-linecap:butt;stroke-linejoin:round"
     clip-path="url(#p0ec83692aa)"
     d="m 420.81322,238.12527 -14.89923,65.33305" />
  <path
     inkscape:connector-curvature="0"
     id="path33"
     style="fill:none;stroke:#000000;stroke-linecap:butt;stroke-linejoin:round"
     clip-path="url(#p0ec83692aa)"
     d="m 383.11024,214.41982 -1.1165,47.06448" />
  <path
     inkscape:connector-curvature="0"
     id="path35"
     style="fill:none;stroke:#000000;stroke-linecap:butt;stroke-linejoin:round"
     clip-path="url(#p0ec83692aa)"
     d="M 383.11024,214.41982 287.86746,199.63404" />
  <path
     inkscape:connector-curvature="0"
     id="path37"
     style="fill:none;stroke:#000000;stroke-linecap:butt;stroke-linejoin:round"
     clip-path="url(#p0ec83692aa)"
     d="m 383.11024,214.41982 -86.29513,39.66177" />
  <path
     inkscape:connector-curvature="0"
     id="path39"
     style="fill:none;stroke:#000000;stroke-linecap:butt;stroke-linejoin:round"
     clip-path="url(#p0ec83692aa)"
     d="M 123.262,44.47685 382.41994,43.930518" />
  <path
     inkscape:connector-curvature="0"
     id="path41"
     style="fill:none;stroke:#000000;stroke-linecap:butt;stroke-linejoin:round"
     clip-path="url(#p0ec83692aa)"
     d="M 123.262,44.47685 71.928587,29.990083" />
  <path
     inkscape:connector-curvature="0"
     id="path43"
     style="fill:none;stroke:#000000;stroke-linecap:butt;stroke-linejoin:round"
     clip-path="url(#p0ec83692aa)"
     d="m 123.262,44.47685 182.64423,57.44654" />
  <path
     inkscape:connector-curvature="0"
     id="path45"
     style="fill:none;stroke:#000000;stroke-linecap:butt;stroke-linejoin:round"
     clip-path="url(#p0ec83692aa)"
     d="m 123.262,44.47685 6.83041,61.45871" />
  <path
     inkscape:connector-curvature="0"
     id="path47"
     style="fill:none;stroke:#000000;stroke-linecap:butt;stroke-linejoin:round"
     clip-path="url(#p0ec83692aa)"
     d="M 123.262,44.47685 109.26781,60.523355" />
  <path
     inkscape:connector-curvature="0"
     id="path49"
     style="fill:none;stroke:#000000;stroke-linecap:butt;stroke-linejoin:round"
     clip-path="url(#p0ec83692aa)"
     d="M 382.41994,43.930518 71.928587,29.990083" />
  <path
     inkscape:connector-curvature="0"
     id="path51"
     style="fill:none;stroke:#000000;stroke-linecap:butt;stroke-linejoin:round"
     clip-path="url(#p0ec83692aa)"
     d="M 382.41994,43.930518 305.90623,101.92339" />
  <path
     inkscape:connector-curvature="0"
     id="path53"
     style="fill:none;stroke:#000000;stroke-linecap:butt;stroke-linejoin:round"
     clip-path="url(#p0ec83692aa)"
     d="M 71.928587,29.990083 43.048618,69.198159" />
  <path
     inkscape:connector-curvature="0"
     id="path55"
     style="fill:none;stroke:#000000;stroke-linecap:butt;stroke-linejoin:round"
     clip-path="url(#p0ec83692aa)"
     d="M 71.928587,29.990083 67.329553,46.161149" />
  <path
     inkscape:connector-curvature="0"
     id="path57"
     style="fill:none;stroke:#000000;stroke-linecap:butt;stroke-linejoin:round"
     clip-path="url(#p0ec83692aa)"
     d="M 71.928587,29.990083 109.26781,60.523355" />
  <path
     inkscape:connector-curvature="0"
     id="path59"
     style="fill:none;stroke:#000000;stroke-linecap:butt;stroke-linejoin:round"
     clip-path="url(#p0ec83692aa)"
     d="m 305.90623,101.92339 -175.81382,4.01217" />
  <path
     inkscape:connector-curvature="0"
     id="path61"
     style="fill:none;stroke:#000000;stroke-linecap:butt;stroke-linejoin:round"
     clip-path="url(#p0ec83692aa)"
     d="m 305.90623,101.92339 -62.18104,59.36636" />
  <path
     inkscape:connector-curvature="0"
     id="path63"
     style="fill:none;stroke:#000000;stroke-linecap:butt;stroke-linejoin:round"
     clip-path="url(#p0ec83692aa)"
     d="m 305.90623,101.92339 -18.03877,97.71065" />
  <path
     inkscape:connector-curvature="0"
     id="path65"
     style="fill:none;stroke:#000000;stroke-linecap:butt;stroke-linejoin:round"
     clip-path="url(#p0ec83692aa)"
     d="M 43.048618,69.198159 67.329553,46.161149" />
  <path
     inkscape:connector-curvature="0"
     id="path67"
     style="fill:none;stroke:#000000;stroke-linecap:butt;stroke-linejoin:round"
     clip-path="url(#p0ec83692aa)"
     d="M 43.048618,69.198159 100.73888,94.917847" />
  <path
     inkscape:connector-curvature="0"
     id="path69"
     style="fill:none;stroke:#000000;stroke-linecap:butt;stroke-linejoin:round"
     clip-path="url(#p0ec83692aa)"
     d="m 43.048618,69.198159 -3.061841,8.57439" />
  <path
     inkscape:connector-curvature="0"
     id="path71"
     style="fill:none;stroke:#000000;stroke-linecap:butt;stroke-linejoin:round"
     clip-path="url(#p0ec83692aa)"
     d="M 67.329553,46.161149 100.73888,94.917847" />
  <path
     inkscape:connector-curvature="0"
     id="path73"
     style="fill:none;stroke:#000000;stroke-linecap:butt;stroke-linejoin:round"
     clip-path="url(#p0ec83692aa)"
     d="M 67.329553,46.161149 109.26781,60.523355" />
  <path
     inkscape:connector-curvature="0"
     id="path75"
     style="fill:none;stroke:#000000;stroke-linecap:butt;stroke-linejoin:round"
     clip-path="url(#p0ec83692aa)"
     d="M 130.09241,105.93556 87.315362,185.1506" />
  <path
     inkscape:connector-curvature="0"
     id="path77"
     style="fill:none;stroke:#000000;stroke-linecap:butt;stroke-linejoin:round"
     clip-path="url(#p0ec83692aa)"
     d="m 130.09241,105.93556 113.63278,55.35419" />
  <path
     inkscape:connector-curvature="0"
     id="path79"
     style="fill:none;stroke:#000000;stroke-linecap:butt;stroke-linejoin:round"
     clip-path="url(#p0ec83692aa)"
     d="M 130.09241,105.93556 100.73888,94.917847" />
  <path
     inkscape:connector-curvature="0"
     id="path81"
     style="fill:none;stroke:#000000;stroke-linecap:butt;stroke-linejoin:round"
     clip-path="url(#p0ec83692aa)"
     d="M 130.09241,105.93556 109.26781,60.523355" />
  <path
     inkscape:connector-curvature="0"
     id="path83"
     style="fill:none;stroke:#000000;stroke-linecap:butt;stroke-linejoin:round"
     clip-path="url(#p0ec83692aa)"
     d="M 87.315362,185.1506 243.72519,161.28975" />
  <path
     inkscape:connector-curvature="0"
     id="path85"
     style="fill:none;stroke:#000000;stroke-linecap:butt;stroke-linejoin:round"
     clip-path="url(#p0ec83692aa)"
     d="m 87.315362,185.1506 -1.834608,57.70549" />
  <path
     inkscape:connector-curvature="0"
     id="path87"
     style="fill:none;stroke:#000000;stroke-linecap:butt;stroke-linejoin:round"
     clip-path="url(#p0ec83692aa)"
     d="m 87.315362,185.1506 26.569408,80.06831" />
  <path
     inkscape:connector-curvature="0"
     id="path89"
     style="fill:none;stroke:#000000;stroke-linecap:butt;stroke-linejoin:round"
     clip-path="url(#p0ec83692aa)"
     d="M 87.315362,185.1506 219.8059,253.01269" />
  <path
     inkscape:connector-curvature="0"
     id="path91"
     style="fill:none;stroke:#000000;stroke-linecap:butt;stroke-linejoin:round"
     clip-path="url(#p0ec83692aa)"
     d="M 87.315362,185.1506 100.73888,94.917847" />
  <path
     inkscape:connector-curvature="0"
     id="path93"
     style="fill:none;stroke:#000000;stroke-linecap:butt;stroke-linejoin:round"
     clip-path="url(#p0ec83692aa)"
     d="M 87.315362,185.1506 39.986777,77.772549" />
  <path
     inkscape:connector-curvature="0"
     id="path95"
     style="fill:none;stroke:#000000;stroke-linecap:butt;stroke-linejoin:round"
     clip-path="url(#p0ec83692aa)"
     d="M 87.315362,185.1506 68.18389,220.86868" />
  <path
     inkscape:connector-curvature="0"
     id="path97"
     style="fill:none;stroke:#000000;stroke-linecap:butt;stroke-linejoin:round"
     clip-path="url(#p0ec83692aa)"
     d="m 87.315362,185.1506 163.113058,6.22876" />
  <path
     inkscape:connector-curvature="0"
     id="path99"
     style="fill:none;stroke:#000000;stroke-linecap:butt;stroke-linejoin:round"
     clip-path="url(#p0ec83692aa)"
     d="m 243.72519,161.28975 44.14227,38.34429" />
  <path
     inkscape:connector-curvature="0"
     id="path101"
     style="fill:none;stroke:#000000;stroke-linecap:butt;stroke-linejoin:round"
     clip-path="url(#p0ec83692aa)"
     d="m 243.72519,161.28975 6.70323,30.08961" />
  <path
     inkscape:connector-curvature="0"
     id="path103"
     style="fill:none;stroke:#000000;stroke-linecap:butt;stroke-linejoin:round"
     clip-path="url(#p0ec83692aa)"
     d="M 113.88477,265.21891 85.480754,242.85609" />
  <path
     inkscape:connector-curvature="0"
     id="path105"
     style="fill:none;stroke:#000000;stroke-linecap:butt;stroke-linejoin:round"
     clip-path="url(#p0ec83692aa)"
     d="M 113.88477,265.21891 49.913052,246.78056" />
  <path
     inkscape:connector-curvature="0"
     id="path107"
     style="fill:none;stroke:#000000;stroke-linecap:butt;stroke-linejoin:round"
     clip-path="url(#p0ec83692aa)"
     d="m 113.88477,265.21891 50.19403,47.12368" />
  <path
     inkscape:connector-curvature="0"
     id="path109"
     style="fill:none;stroke:#000000;stroke-linecap:butt;stroke-linejoin:round"
     clip-path="url(#p0ec83692aa)"
     d="M 113.88477,265.21891 219.8059,253.01269" />
  <path
     inkscape:connector-curvature="0"
     id="path111"
     style="fill:none;stroke:#000000;stroke-linecap:butt;stroke-linejoin:round"
     clip-path="url(#p0ec83692aa)"
     d="m 113.88477,265.21891 63.17151,34.24568" />
  <path
     inkscape:connector-curvature="0"
     id="path113"
     style="fill:none;stroke:#000000;stroke-linecap:butt;stroke-linejoin:round"
     clip-path="url(#p0ec83692aa)"
     d="m 113.88477,265.21891 76.30599,12.42534" />
  <path
     inkscape:connector-curvature="0"
     id="path115"
     style="fill:none;stroke:#000000;stroke-linecap:butt;stroke-linejoin:round"
     clip-path="url(#p0ec83692aa)"
     d="m 85.480754,242.85609 -35.567702,3.92447" />
  <path
     inkscape:connector-curvature="0"
     id="path117"
     style="fill:none;stroke:#000000;stroke-linecap:butt;stroke-linejoin:round"
     clip-path="url(#p0ec83692aa)"
     d="M 85.480754,242.85609 68.18389,220.86868" />
  <path
     inkscape:connector-curvature="0"
     id="path119"
     style="fill:none;stroke:#000000;stroke-linecap:butt;stroke-linejoin:round"
     clip-path="url(#p0ec83692aa)"
     d="M 49.913052,246.78056 164.0788,312.34259" />
  <path
     inkscape:connector-curvature="0"
     id="path121"
     style="fill:none;stroke:#000000;stroke-linecap:butt;stroke-linejoin:round"
     clip-path="url(#p0ec83692aa)"
     d="M 49.913052,246.78056 68.18389,220.86868" />
  <path
     inkscape:connector-curvature="0"
     id="path123"
     style="fill:none;stroke:#000000;stroke-linecap:butt;stroke-linejoin:round"
     clip-path="url(#p0ec83692aa)"
     d="M 49.913052,246.78056 39.986777,77.772549" />
  <path
     inkscape:connector-curvature="0"
     id="path125"
     style="fill:none;stroke:#000000;stroke-linecap:butt;stroke-linejoin:round"
     clip-path="url(#p0ec83692aa)"
     d="m 164.0788,312.34259 154.85376,3.26733" />
  <path
     inkscape:connector-curvature="0"
     id="path127"
     style="fill:none;stroke:#000000;stroke-linecap:butt;stroke-linejoin:round"
     clip-path="url(#p0ec83692aa)"
     d="m 164.0788,312.34259 48.71003,-20.24745" />
  <path
     inkscape:connector-curvature="0"
     id="path129"
     style="fill:none;stroke:#000000;stroke-linecap:butt;stroke-linejoin:round"
     clip-path="url(#p0ec83692aa)"
     d="m 164.0788,312.34259 12.97748,-12.878" />
  <path
     inkscape:connector-curvature="0"
     id="path131"
     style="fill:none;stroke:#000000;stroke-linecap:butt;stroke-linejoin:round"
     clip-path="url(#p0ec83692aa)"
     d="M 318.93256,315.60992 212.78883,292.09514" />
  <path
     inkscape:connector-curvature="0"
     id="path133"
     style="fill:none;stroke:#000000;stroke-linecap:butt;stroke-linejoin:round"
     clip-path="url(#p0ec83692aa)"
     d="M 318.93256,315.60992 381.99374,261.4843" />
  <path
     inkscape:connector-curvature="0"
     id="path135"
     style="fill:none;stroke:#000000;stroke-linecap:butt;stroke-linejoin:round"
     clip-path="url(#p0ec83692aa)"
     d="m 318.93256,315.60992 73.20155,-6.76068" />
  <path
     inkscape:connector-curvature="0"
     id="path137"
     style="fill:none;stroke:#000000;stroke-linecap:butt;stroke-linejoin:round"
     clip-path="url(#p0ec83692aa)"
     d="M 318.93256,315.60992 268.21407,289.74006" />
  <path
     inkscape:connector-curvature="0"
     id="path139"
     style="fill:none;stroke:#000000;stroke-linecap:butt;stroke-linejoin:round"
     clip-path="url(#p0ec83692aa)"
     d="M 318.93256,315.60992 296.81511,254.08159" />
  <path
     inkscape:connector-curvature="0"
     id="path141"
     style="fill:none;stroke:#000000;stroke-linecap:butt;stroke-linejoin:round"
     clip-path="url(#p0ec83692aa)"
     d="m 212.78883,292.09514 -35.73255,7.36945" />
  <path
     inkscape:connector-curvature="0"
     id="path143"
     style="fill:none;stroke:#000000;stroke-linecap:butt;stroke-linejoin:round"
     clip-path="url(#p0ec83692aa)"
     d="m 212.78883,292.09514 53.17192,-17.34968" />
  <path
     inkscape:connector-curvature="0"
     id="path145"
     style="fill:none;stroke:#000000;stroke-linecap:butt;stroke-linejoin:round"
     clip-path="url(#p0ec83692aa)"
     d="m 212.78883,292.09514 7.01707,-39.08245" />
  <path
     inkscape:connector-curvature="0"
     id="path149"
     style="fill:none;stroke:#000000;stroke-linecap:butt;stroke-linejoin:round"
     clip-path="url(#p0ec83692aa)"
     d="M 212.78883,292.09514 194.04442,279.81495" />
  <path
     inkscape:connector-curvature="0"
     id="path151"
     style="fill:none;stroke:#000000;stroke-linecap:butt;stroke-linejoin:round"
     clip-path="url(#p0ec83692aa)"
     d="m 219.8059,253.01269 46.15485,21.73277" />
  <path
     inkscape:connector-curvature="0"
     id="path153"
     style="fill:none;stroke:#000000;stroke-linecap:butt;stroke-linejoin:round"
     clip-path="url(#p0ec83692aa)"
     d="m 219.8059,253.01269 -29.61514,24.63156" />
  <path
     inkscape:connector-curvature="0"
     id="path155"
     style="fill:none;stroke:#000000;stroke-linecap:butt;stroke-linejoin:round"
     clip-path="url(#p0ec83692aa)"
     d="m 219.8059,253.01269 -25.76148,26.80226" />
  <path
     inkscape:connector-curvature="0"
     id="path157"
     style="fill:none;stroke:#000000;stroke-linecap:butt;stroke-linejoin:round"
     clip-path="url(#p0ec83692aa)"
     d="m 219.8059,253.01269 68.06156,-53.37865" />
  <path
     inkscape:connector-curvature="0"
     id="path159"
     style="fill:none;stroke:#000000;stroke-linecap:butt;stroke-linejoin:round"
     clip-path="url(#p0ec83692aa)"
     d="m 219.8059,253.01269 30.62252,-61.63333" />
  <path
     inkscape:connector-curvature="0"
     id="path161"
     style="fill:none;stroke:#000000;stroke-linecap:butt;stroke-linejoin:round"
     clip-path="url(#p0ec83692aa)"
     d="m 219.8059,253.01269 77.00921,1.0689" />
  <path
     inkscape:connector-curvature="0"
     id="path163"
     style="fill:none;stroke:#000000;stroke-linecap:butt;stroke-linejoin:round"
     clip-path="url(#p0ec83692aa)"
     d="m 381.99374,261.4843 10.14037,47.36494" />
  <path
     inkscape:connector-curvature="0"
     id="path165"
     style="fill:none;stroke:#000000;stroke-linecap:butt;stroke-linejoin:round"
     clip-path="url(#p0ec83692aa)"
     d="m 381.99374,261.4843 23.92025,41.97402" />
  <path
     inkscape:connector-curvature="0"
     id="path167"
     style="fill:none;stroke:#000000;stroke-linecap:butt;stroke-linejoin:round"
     clip-path="url(#p0ec83692aa)"
     d="m 381.99374,261.4843 -85.17863,-7.40271" />
  <path
     inkscape:connector-curvature="0"
     id="path169"
     style="fill:none;stroke:#000000;stroke-linecap:butt;stroke-linejoin:round"
     clip-path="url(#p0ec83692aa)"
     d="m 392.13411,308.84924 13.77988,-5.39092" />
  <path
     inkscape:connector-curvature="0"
     id="path171"
     style="fill:none;stroke:#000000;stroke-linecap:butt;stroke-linejoin:round"
     clip-path="url(#p0ec83692aa)"
     d="M 100.73888,94.917847 39.986777,77.772549" />
  <path
     inkscape:connector-curvature="0"
     id="path173"
     style="fill:none;stroke:#000000;stroke-linecap:butt;stroke-linejoin:round"
     clip-path="url(#p0ec83692aa)"
     d="m 100.73888,94.917847 8.52893,-34.394492" />
  <path
     inkscape:connector-curvature="0"
     id="path175"
     style="fill:none;stroke:#000000;stroke-linecap:butt;stroke-linejoin:round"
     clip-path="url(#p0ec83692aa)"
     d="M 39.986777,77.772549 68.18389,220.86868" />
  <path
     inkscape:connector-curvature="0"
     id="path177"
     style="fill:none;stroke:#000000;stroke-linecap:butt;stroke-linejoin:round"
     clip-path="url(#p0ec83692aa)"
     d="m 177.05628,299.46459 13.13448,-21.82034" />
  <path
     inkscape:connector-curvature="0"
     id="path179"
     style="fill:none;stroke:#000000;stroke-linecap:butt;stroke-linejoin:round"
     clip-path="url(#p0ec83692aa)"
     d="m 177.05628,299.46459 16.98814,-19.64964" />
  <path
     inkscape:connector-curvature="0"
     id="path181"
     style="fill:none;stroke:#000000;stroke-linecap:butt;stroke-linejoin:round"
     clip-path="url(#p0ec83692aa)"
     d="m 265.96075,274.74546 2.25332,14.9946" />
  <path
     inkscape:connector-curvature="0"
     id="path183"
     style="fill:none;stroke:#000000;stroke-linecap:butt;stroke-linejoin:round"
     clip-path="url(#p0ec83692aa)"
     d="m 265.96075,274.74546 30.85436,-20.66387" />
  <path
     inkscape:connector-curvature="0"
     id="path185"
     style="fill:none;stroke:#000000;stroke-linecap:butt;stroke-linejoin:round"
     clip-path="url(#p0ec83692aa)"
     d="m 190.19076,277.64425 3.85366,2.1707" />
  <path
     inkscape:connector-curvature="0"
     id="path187"
     style="fill:none;stroke:#000000;stroke-linecap:butt;stroke-linejoin:round"
     clip-path="url(#p0ec83692aa)"
     d="m 268.21407,289.74006 28.60104,-35.65847" />
  <path
     inkscape:connector-curvature="0"
     id="path189"
     style="fill:none;stroke:#000000;stroke-linecap:butt;stroke-linejoin:round"
     clip-path="url(#p0ec83692aa)"
     d="m 287.86746,199.63404 -37.43904,-8.25468" />
  <path
     inkscape:connector-curvature="0"
     id="path191"
     style="fill:none;stroke:#000000;stroke-linecap:butt;stroke-linejoin:round"
     clip-path="url(#p0ec83692aa)"
     d="m 287.86746,199.63404 8.94765,54.44755" />
  <path
     inkscape:connector-curvature="0"
     id="path194"
     style="fill:#1f78b4;stroke:#1f78b4;stroke-linecap:butt;stroke-linejoin:round"
     clip-path="url(#p0ec83692aa)"
     d="m 412.55194,58.44214 c 0,0 0,0 0,0 0,0 0,0 0,0 0,0 0,0 0,0 0,0 0,0 0,0 0,0 0,0 0,0 0,0 0,0 0,0 0,0 0,0 0,0 0,0 0,0 0,0 z" />
  <path
     inkscape:connector-curvature="0"
     id="path198"
     style="fill:#1f78b4;stroke:#1f78b4;stroke-linecap:butt;stroke-linejoin:round"
     clip-path="url(#p0ec83692aa)"
     d="m 420.81322,238.12527 c 0,0 0,0 0,0 0,0 0,0 0,0 0,0 0,0 0,0 0,0 0,0 0,0 0,0 0,0 0,0 0,0 0,0 0,0 0,0 0,0 0,0 0,0 0,0 0,0 z" />
  <path
     inkscape:connector-curvature="0"
     id="path200"
     style="fill:#1f78b4;stroke:#1f78b4;stroke-linecap:butt;stroke-linejoin:round"
     clip-path="url(#p0ec83692aa)"
     d="m 383.11024,214.41982 c 0,0 0,0 0,0 0,0 0,0 0,0 0,0 0,0 0,0 0,0 0,0 0,0 0,0 0,0 0,0 0,0 0,0 0,0 0,0 0,0 0,0 0,0 0,0 0,0 z" />
  <path
     inkscape:connector-curvature="0"
     id="path202"
     style="fill:#1f78b4;stroke:#1f78b4;stroke-linecap:butt;stroke-linejoin:round"
     clip-path="url(#p0ec83692aa)"
     d="m 123.262,44.47685 c 0,0 0,0 0,0 0,0 0,0 0,0 0,0 0,0 0,0 0,0 0,0 0,0 0,0 0,0 0,0 0,0 0,0 0,0 0,0 0,0 0,0 0,0 0,0 0,0 z" />
  <path
     inkscape:connector-curvature="0"
     id="path204"
     style="fill:#1f78b4;stroke:#1f78b4;stroke-linecap:butt;stroke-linejoin:round"
     clip-path="url(#p0ec83692aa)"
     d="m 382.41994,43.930518 c 0,0 0,0 0,0 0,0 0,0 0,0 0,0 0,0 0,0 0,0 0,0 0,0 0,0 0,0 0,0 0,0 0,0 0,0 0,0 0,0 0,0 0,0 0,0 0,0 z" />
  <path
     inkscape:connector-curvature="0"
     id="path206"
     style="fill:#1f78b4;stroke:#1f78b4;stroke-linecap:butt;stroke-linejoin:round"
     clip-path="url(#p0ec83692aa)"
     d="m 71.928587,29.990083 c 0,0 0,0 0,0 0,0 0,0 0,0 0,0 0,0 0,0 0,0 0,0 0,0 0,0 0,0 0,0 0,0 0,0 0,0 0,0 0,0 0,0 0,0 0,0 0,0 z" />
  <path
     inkscape:connector-curvature="0"
     id="path208"
     style="fill:#1f78b4;stroke:#1f78b4;stroke-linecap:butt;stroke-linejoin:round"
     clip-path="url(#p0ec83692aa)"
     d="m 305.90623,101.92339 c 0,0 0,0 0,0 0,0 0,0 0,0 0,0 0,0 0,0 0,0 0,0 0,0 0,0 0,0 0,0 0,0 0,0 0,0 0,0 0,0 0,0 0,0 0,0 0,0 z" />
  <path
     inkscape:connector-curvature="0"
     id="path210"
     style="fill:#1f78b4;stroke:#1f78b4;stroke-linecap:butt;stroke-linejoin:round"
     clip-path="url(#p0ec83692aa)"
     d="m 43.048618,69.198159 c 0,0 0,0 0,0 0,0 0,0 0,0 0,0 0,0 0,0 0,0 0,0 0,0 0,0 0,0 0,0 0,0 0,0 0,0 0,0 0,0 0,0 0,0 0,0 0,0 z" />
  <path
     inkscape:connector-curvature="0"
     id="path212"
     style="fill:#1f78b4;stroke:#1f78b4;stroke-linecap:butt;stroke-linejoin:round"
     clip-path="url(#p0ec83692aa)"
     d="m 67.329553,46.161149 c 0,0 0,0 0,0 0,0 0,0 0,0 0,0 0,0 0,0 0,0 0,0 0,0 0,0 0,0 0,0 0,0 0,0 0,0 0,0 0,0 0,0 0,0 0,0 0,0 z" />
  <path
     inkscape:connector-curvature="0"
     id="path214"
     style="fill:#1f78b4;stroke:#1f78b4;stroke-linecap:butt;stroke-linejoin:round"
     clip-path="url(#p0ec83692aa)"
     d="m 130.09241,105.93556 c 0,0 0,0 0,0 0,0 0,0 0,0 0,0 0,0 0,0 0,0 0,0 0,0 0,0 0,0 0,0 0,0 0,0 0,0 0,0 0,0 0,0 0,0 0,0 0,0 z" />
  <path
     inkscape:connector-curvature="0"
     id="path216"
     style="fill:#1f78b4;stroke:#1f78b4;stroke-linecap:butt;stroke-linejoin:round"
     clip-path="url(#p0ec83692aa)"
     d="m 87.315362,185.1506 c 0,0 0,0 0,0 0,0 0,0 0,0 0,0 0,0 0,0 0,0 0,0 0,0 0,0 0,0 0,0 0,0 0,0 0,0 0,0 0,0 0,0 0,0 0,0 0,0 z" />
  <path
     inkscape:connector-curvature="0"
     id="path218"
     style="fill:#1f78b4;stroke:#1f78b4;stroke-linecap:butt;stroke-linejoin:round"
     clip-path="url(#p0ec83692aa)"
     d="m 243.72519,161.28975 c 0,0 0,0 0,0 0,0 0,0 0,0 0,0 0,0 0,0 0,0 0,0 0,0 0,0 0,0 0,0 0,0 0,0 0,0 0,0 0,0 0,0 0,0 0,0 0,0 z" />
  <path
     inkscape:connector-curvature="0"
     id="path220"
     style="fill:#1f78b4;stroke:#1f78b4;stroke-linecap:butt;stroke-linejoin:round"
     clip-path="url(#p0ec83692aa)"
     d="m 113.88477,265.21891 c 0,0 0,0 0,0 0,0 0,0 0,0 0,0 0,0 0,0 0,0 0,0 0,0 0,0 0,0 0,0 0,0 0,0 0,0 0,0 0,0 0,0 0,0 0,0 0,0 z" />
  <path
     inkscape:connector-curvature="0"
     id="path222"
     style="fill:#1f78b4;stroke:#1f78b4;stroke-linecap:butt;stroke-linejoin:round"
     clip-path="url(#p0ec83692aa)"
     d="m 85.480754,242.85609 c 0,0 0,0 0,0 0,0 0,0 0,0 0,0 0,0 0,0 0,0 0,0 0,0 0,0 0,0 0,0 0,0 0,0 0,0 0,0 0,0 0,0 0,0 0,0 0,0 z" />
  <path
     inkscape:connector-curvature="0"
     id="path224"
     style="fill:#1f78b4;stroke:#1f78b4;stroke-linecap:butt;stroke-linejoin:round"
     clip-path="url(#p0ec83692aa)"
     d="m 49.913052,246.78056 c 0,0 0,0 0,0 0,0 0,0 0,0 0,0 0,0 0,0 0,0 0,0 0,0 0,0 0,0 0,0 0,0 0,0 0,0 0,0 0,0 0,0 0,0 0,0 0,0 z" />
  <path
     inkscape:connector-curvature="0"
     id="path226"
     style="fill:#1f78b4;stroke:#1f78b4;stroke-linecap:butt;stroke-linejoin:round"
     clip-path="url(#p0ec83692aa)"
     d="m 164.0788,312.34259 c 0,0 0,0 0,0 0,0 0,0 0,0 0,0 0,0 0,0 0,0 0,0 0,0 0,0 0,0 0,0 0,0 0,0 0,0 0,0 0,0 0,0 0,0 0,0 0,0 z" />
  <path
     inkscape:connector-curvature="0"
     id="path228"
     style="fill:#1f78b4;stroke:#1f78b4;stroke-linecap:butt;stroke-linejoin:round"
     clip-path="url(#p0ec83692aa)"
     d="m 318.93256,315.60992 c 0,0 0,0 0,0 0,0 0,0 0,0 0,0 0,0 0,0 0,0 0,0 0,0 0,0 0,0 0,0 0,0 0,0 0,0 0,0 0,0 0,0 0,0 0,0 0,0 z" />
  <path
     inkscape:connector-curvature="0"
     id="path230"
     style="fill:#1f78b4;stroke:#1f78b4;stroke-linecap:butt;stroke-linejoin:round"
     clip-path="url(#p0ec83692aa)"
     d="m 212.78883,292.09514 c 0,0 0,0 0,0 0,0 0,0 0,0 0,0 0,0 0,0 0,0 0,0 0,0 0,0 0,0 0,0 0,0 0,0 0,0 0,0 0,0 0,0 0,0 0,0 0,0 z" />
  <path
     inkscape:connector-curvature="0"
     id="path232"
     style="fill:#1f78b4;stroke:#1f78b4;stroke-linecap:butt;stroke-linejoin:round"
     clip-path="url(#p0ec83692aa)"
     d="m 219.8059,253.01269 c 0,0 0,0 0,0 0,0 0,0 0,0 0,0 0,0 0,0 0,0 0,0 0,0 0,0 0,0 0,0 0,0 0,0 0,0 0,0 0,0 0,0 0,0 0,0 0,0 z" />
  <path
     inkscape:connector-curvature="0"
     id="path234"
     style="fill:#1f78b4;stroke:#1f78b4;stroke-linecap:butt;stroke-linejoin:round"
     clip-path="url(#p0ec83692aa)"
     d="m 381.99374,261.4843 c 0,0 0,0 0,0 0,0 0,0 0,0 0,0 0,0 0,0 0,0 0,0 0,0 0,0 0,0 0,0 0,0 0,0 0,0 0,0 0,0 0,0 0,0 0,0 0,0 z" />
  <path
     inkscape:connector-curvature="0"
     id="path236"
     style="fill:#1f78b4;stroke:#1f78b4;stroke-linecap:butt;stroke-linejoin:round"
     clip-path="url(#p0ec83692aa)"
     d="m 392.13411,308.84924 c 0,0 0,0 0,0 0,0 0,0 0,0 0,0 0,0 0,0 0,0 0,0 0,0 0,0 0,0 0,0 0,0 0,0 0,0 0,0 0,0 0,0 0,0 0,0 0,0 z" />
  <path
     inkscape:connector-curvature="0"
     id="path238"
     style="fill:#1f78b4;stroke:#1f78b4;stroke-linecap:butt;stroke-linejoin:round"
     clip-path="url(#p0ec83692aa)"
     d="m 405.91399,303.45832 c 0,0 0,0 0,0 0,0 0,0 0,0 0,0 0,0 0,0 0,0 0,0 0,0 0,0 0,0 0,0 0,0 0,0 0,0 0,0 0,0 0,0 0,0 0,0 0,0 z" />
  <path
     inkscape:connector-curvature="0"
     id="path240"
     style="fill:#1f78b4;stroke:#1f78b4;stroke-linecap:butt;stroke-linejoin:round"
     clip-path="url(#p0ec83692aa)"
     d="m 100.73888,94.917847 c 0,0 0,0 0,0 0,0 0,0 0,0 0,0 0,0 0,0 0,0 0,0 0,0 0,0 0,0 0,0 0,0 0,0 0,0 0,0 0,0 0,0 0,0 0,0 0,0 z" />
  <path
     inkscape:connector-curvature="0"
     id="path242"
     style="fill:#1f78b4;stroke:#1f78b4;stroke-linecap:butt;stroke-linejoin:round"
     clip-path="url(#p0ec83692aa)"
     d="m 39.986777,77.772549 c 0,0 0,0 0,0 0,0 0,0 0,0 0,0 0,0 0,0 0,0 0,0 0,0 0,0 0,0 0,0 0,0 0,0 0,0 0,0 0,0 0,0 0,0 0,0 0,0 z" />
  <path
     inkscape:connector-curvature="0"
     id="path246"
     style="fill:#1f78b4;stroke:#1f78b4;stroke-linecap:butt;stroke-linejoin:round"
     clip-path="url(#p0ec83692aa)"
     d="m 177.05628,299.46459 c 0,0 0,0 0,0 0,0 0,0 0,0 0,0 0,0 0,0 0,0 0,0 0,0 0,0 0,0 0,0 0,0 0,0 0,0 0,0 0,0 0,0 0,0 0,0 0,0 z" />
  <path
     inkscape:connector-curvature="0"
     id="path248"
     style="fill:#1f78b4;stroke:#1f78b4;stroke-linecap:butt;stroke-linejoin:round"
     clip-path="url(#p0ec83692aa)"
     d="m 265.96075,274.74546 c 0,0 0,0 0,0 0,0 0,0 0,0 0,0 0,0 0,0 0,0 0,0 0,0 0,0 0,0 0,0 0,0 0,0 0,0 0,0 0,0 0,0 0,0 0,0 0,0 z" />
  <path
     inkscape:connector-curvature="0"
     id="path250"
     style="fill:#1f78b4;stroke:#1f78b4;stroke-linecap:butt;stroke-linejoin:round"
     clip-path="url(#p0ec83692aa)"
     d="m 109.26781,60.523355 c 0,0 0,0 0,0 0,0 0,0 0,0 0,0 0,0 0,0 0,0 0,0 0,0 0,0 0,0 0,0 0,0 0,0 0,0 0,0 0,0 0,0 0,0 0,0 0,0 z" />
  <path
     inkscape:connector-curvature="0"
     id="path252"
     style="fill:#1f78b4;stroke:#1f78b4;stroke-linecap:butt;stroke-linejoin:round"
     clip-path="url(#p0ec83692aa)"
     d="m 190.19076,277.64425 c 0,0 0,0 0,0 0,0 0,0 0,0 0,0 0,0 0,0 0,0 0,0 0,0 0,0 0,0 0,0 0,0 0,0 0,0 0,0 0,0 0,0 0,0 0,0 0,0 z" />
  <path
     inkscape:connector-curvature="0"
     id="path254"
     style="fill:#1f78b4;stroke:#1f78b4;stroke-linecap:butt;stroke-linejoin:round"
     clip-path="url(#p0ec83692aa)"
     d="m 268.21407,289.74006 c 0,0 0,0 0,0 0,0 0,0 0,0 0,0 0,0 0,0 0,0 0,0 0,0 0,0 0,0 0,0 0,0 0,0 0,0 0,0 0,0 0,0 0,0 0,0 0,0 z" />
  <path
     inkscape:connector-curvature="0"
     id="path147"
     style="font-variation-settings:normal;opacity:1;vector-effect:none;fill:none;fill-opacity:1;stroke:#ff0000;stroke-width:4;stroke-linecap:round;stroke-linejoin:round;stroke-miterlimit:4;stroke-dasharray:none;stroke-dashoffset:0;stroke-opacity:1;-inkscape-stroke:none;stop-color:#000000;stop-opacity:1"
     clip-path="url(#p0ec83692aa)"
     d="m 214.21794,292.00742 53.1821,-2.20264"
     sodipodi:nodetypes="cc" />
  <path
     inkscape:connector-curvature="0"
     id="path256"
     style="fill:#1f78b4;stroke:#1f78b4;stroke-linecap:butt;stroke-linejoin:round"
     clip-path="url(#p0ec83692aa)"
     d="m 287.86746,199.63404 c 0,0 0,0 0,0 0,0 0,0 0,0 0,0 0,0 0,0 0,0 0,0 0,0 0,0 0,0 0,0 0,0 0,0 0,0 0,0 0,0 0,0 0,0 0,0 0,0 z" />
  <path
     inkscape:connector-curvature="0"
     id="path258"
     style="fill:#1f78b4;stroke:#1f78b4;stroke-linecap:butt;stroke-linejoin:round"
     clip-path="url(#p0ec83692aa)"
     d="m 194.04442,279.81495 c 0,0 0,0 0,0 0,0 0,0 0,0 0,0 0,0 0,0 0,0 0,0 0,0 0,0 0,0 0,0 0,0 0,0 0,0 0,0 0,0 0,0 0,0 0,0 0,0 z" />
  <path
     inkscape:connector-curvature="0"
     id="path260"
     style="fill:#1f78b4;stroke:#1f78b4;stroke-linecap:butt;stroke-linejoin:round"
     clip-path="url(#p0ec83692aa)"
     d="m 250.42842,191.37936 c 0,0 0,0 0,0 0,0 0,0 0,0 0,0 0,0 0,0 0,0 0,0 0,0 0,0 0,0 0,0 0,0 0,0 0,0 0,0 0,0 0,0 0,0 0,0 0,0 z" />
  <path
     inkscape:connector-curvature="0"
     id="path262"
     style="fill:#1f78b4;stroke:#1f78b4;stroke-linecap:butt;stroke-linejoin:round"
     clip-path="url(#p0ec83692aa)"
     d="m 296.81511,254.08159 c 0,0 0,0 0,0 0,0 0,0 0,0 0,0 0,0 0,0 0,0 0,0 0,0 0,0 0,0 0,0 0,0 0,0 0,0 0,0 0,0 0,0 0,0 0,0 0,0 z" />
  <path
     style="fill:none;stroke:#01cc00;stroke-width:3.75000004;stroke-linecap:butt;stroke-linejoin:miter;stroke-opacity:0.75800711;stroke-miterlimit:4;stroke-dasharray:none"
     d="m 68.18389,220.86869 19.131471,-35.71809 156.409829,-23.86086 44.14227,38.3443 97.62675,-74.17198 v 0"
     id="path284"
     inkscape:connector-curvature="0" />
  <path
     inkscape:connector-curvature="0"
     id="path196"
     style="fill:#1f78b4;stroke:#1f78b4;stroke-linecap:butt;stroke-linejoin:round"
     clip-path="url(#p0ec83692aa)"
     d="m 385.49421,130.46205 c 1.32601,0 2.59789,-0.52683 3.53553,-1.46446 0.93763,-0.93764 1.46447,-2.20952 1.46447,-3.53553 0,-1.32602 -0.52684,-2.5979 -1.46447,-3.53554 -0.93764,-0.93763 -2.20952,-1.46446 -3.53553,-1.46446 -1.32602,0 -2.59791,0.52683 -3.53554,1.46446 -0.93763,0.93764 -1.46446,2.20952 -1.46446,3.53554 0,1.32601 0.52683,2.59789 1.46446,3.53553 0.93763,0.93763 2.20952,1.46446 3.53554,1.46446 z" />
  <path
     inkscape:connector-curvature="0"
     id="path244"
     style="fill:#1f78b4;stroke:#1f78b4;stroke-linecap:butt;stroke-linejoin:round"
     clip-path="url(#p0ec83692aa)"
     d="m 68.18389,225.86868 c 1.326016,0 2.5979,-0.52683 3.535534,-1.46446 0.937635,-0.93764 1.464466,-2.20952 1.464466,-3.53554 0,-1.32601 -0.526831,-2.5979 -1.464466,-3.53553 -0.937634,-0.93764 -2.209518,-1.46447 -3.535534,-1.46447 -1.326015,0 -2.597899,0.52683 -3.535533,1.46447 -0.937635,0.93763 -1.464467,2.20952 -1.464467,3.53553 0,1.32602 0.526832,2.5979 1.464467,3.53554 0.937634,0.93763 2.209518,1.46446 3.535533,1.46446 z" />
  <defs
     id="defs270">
    <clipPath
       id="p0ec83692aa">
      <rect
         x="0"
         y="0"
         width="460.8"
         height="345.6"
         id="rect267" />
    </clipPath>
  </defs>
  <path
     style="stroke:#ff6600;stroke-width:2;stroke-linecap:round;stroke-linejoin:round;stroke-opacity:1;stroke-dasharray:none;fill:none"
     d="m 254.10745,283.43707 21.84026,-9.27696 -14.04629,-14.09206 12.48321,-25.21239 43.11705,-13.52002 34.01313,-40.22829 -25.7215,-40.28405 33.25662,-49.98861 37.5626,-18.857098 9.96341,-35.353123"
     id="path1032" />
  <path
     style="fill:none;stroke:#ff6600;stroke-width:2;stroke-linecap:round;stroke-linejoin:round;stroke-opacity:1;font-variation-settings:normal;opacity:1;vector-effect:none;fill-opacity:1;stroke-miterlimit:4;stroke-dasharray:none;stroke-dashoffset:0;-inkscape-stroke:none;stop-color:#000000;stop-opacity:1"
     d="m 258.23897,296.00464 -28.60741,11.65806 0.16446,20.28718"
     id="path1102" />
</svg>
