<?xml version="1.0" encoding="UTF-8" standalone="no"?>
<svg
   width="460.8pt"
   height="345.6pt"
   viewBox="0 0 460.8 345.6"
   version="1.1"
   id="svg3899"
   sodipodi:docname="del3.svg"
   inkscape:version="1.2.2 (b0a8486541, 2022-12-01)"
   xmlns:inkscape="http://www.inkscape.org/namespaces/inkscape"
   xmlns:sodipodi="http://sodipodi.sourceforge.net/DTD/sodipodi-0.dtd"
   xmlns="http://www.w3.org/2000/svg"
   xmlns:svg="http://www.w3.org/2000/svg"
   xmlns:rdf="http://www.w3.org/1999/02/22-rdf-syntax-ns#"
   xmlns:cc="http://creativecommons.org/ns#"
   xmlns:dc="http://purl.org/dc/elements/1.1/">
  <sodipodi:namedview
     id="namedview3901"
     pagecolor="#ffffff"
     bordercolor="#666666"
     borderopacity="1.0"
     inkscape:showpageshadow="2"
     inkscape:pageopacity="0.0"
     inkscape:pagecheckerboard="0"
     inkscape:deskcolor="#d1d1d1"
     inkscape:document-units="pt"
     showgrid="false"
     inkscape:zoom="1.5099676"
     inkscape:cx="192.0571"
     inkscape:cy="161.59287"
     inkscape:window-width="2514"
     inkscape:window-height="1380"
     inkscape:window-x="0"
     inkscape:window-y="0"
     inkscape:window-maximized="1"
     inkscape:current-layer="LineCollection_1" />
  <metadata
     id="metadata3629">
    <rdf:RDF>
      <cc:Work>
        <dc:type
           rdf:resource="http://purl.org/dc/dcmitype/StillImage" />
        <dc:date>2024-06-14T21:11:43.340387</dc:date>
        <dc:format>image/svg+xml</dc:format>
        <dc:creator>
          <cc:Agent>
            <dc:title>Matplotlib v3.8.3, https://matplotlib.org/</dc:title>
          </cc:Agent>
        </dc:creator>
      </cc:Work>
    </rdf:RDF>
  </metadata>
  <defs
     id="defs3633">
    <style
       type="text/css"
       id="style3631">*{stroke-linejoin: round; stroke-linecap: butt}</style>
    <clipPath
       id="p0ec83692aa">
      <rect
         x="0"
         y="0"
         width="460.79999"
         height="345.60001"
         id="rect2126" />
    </clipPath>
    <clipPath
       id="pcd68039229-5">
      <rect
         x="0"
         y="0"
         width="460.79999"
         height="345.60001"
         id="rect3894-3" />
    </clipPath>
    <clipPath
       id="pcd68039229-6">
      <rect
         x="0"
         y="0"
         width="460.79999"
         height="345.60001"
         id="rect3894-2" />
    </clipPath>
    <clipPath
       id="pcd68039229-1">
      <rect
         x="0"
         y="0"
         width="460.79999"
         height="345.60001"
         id="rect3894-27" />
    </clipPath>
    <clipPath
       id="pcd68039229-9">
      <rect
         x="0"
         y="0"
         width="460.79999"
         height="345.60001"
         id="rect3894-36" />
    </clipPath>
    <clipPath
       id="pcd68039229-62">
      <rect
         x="0"
         y="0"
         width="460.79999"
         height="345.60001"
         id="rect3894-6" />
    </clipPath>
    <clipPath
       id="pcd68039229-8">
      <rect
         x="0"
         y="0"
         width="460.79999"
         height="345.60001"
         id="rect3894-7" />
    </clipPath>
    <clipPath
       id="pcd68039229-2">
      <rect
         x="0"
         y="0"
         width="460.79999"
         height="345.60001"
         id="rect3894-0" />
    </clipPath>
    <clipPath
       id="pcd68039229-3">
      <rect
         x="0"
         y="0"
         width="460.79999"
         height="345.60001"
         id="rect3894-75" />
    </clipPath>
    <clipPath
       id="pcd68039229-22">
      <rect
         x="0"
         y="0"
         width="460.79999"
         height="345.60001"
         id="rect3894-8" />
    </clipPath>
    <clipPath
       id="pcd68039229-7">
      <rect
         x="0"
         y="0"
         width="460.79999"
         height="345.60001"
         id="rect3894-361" />
    </clipPath>
  </defs>
  <g
     id="figure_1">
    <g
       id="patch_1">
      <path
         d="M 0 345.6  L 460.8 345.6  L 460.8 0  L 0 0  z "
         style="fill: #ffffff"
         id="path3635" />
    </g>
    <g
       id="axes_1">
      <g
         id="LineCollection_1">
        <path
           d="M 412.551944 58.44214  L 385.494205 125.462055  "
           clip-path="url(#pcd68039229)"
           style="fill: none; stroke: #000000"
           id="path3638" />
        <path
           d="M 412.551944 58.44214  L 420.813223 238.125265  "
           clip-path="url(#pcd68039229)"
           style="fill: none; stroke: #000000"
           id="path3640" />
        <path
           d="M 412.551944 58.44214  L 382.419939 43.930518  "
           clip-path="url(#pcd68039229)"
           style="fill:none;stroke:#ffa500;stroke-width:4;font-variation-settings:normal;opacity:1;vector-effect:none;fill-opacity:1;stroke-linecap:round;stroke-linejoin:round;stroke-miterlimit:4;stroke-dasharray:none;stroke-dashoffset:0;stroke-opacity:1;-inkscape-stroke:none;stop-color:#000000;stop-opacity:1"
           id="path3642" />
        <path
           d="M 385.494205 125.462055  L 420.813223 238.125265  "
           clip-path="url(#pcd68039229)"
           style="fill: none; stroke: #000000"
           id="path3644" />
        <path
           d="M 385.494205 125.462055  L 383.11024 214.419821  "
           clip-path="url(#pcd68039229)"
           style="fill: none; stroke: #000000"
           id="path3646" />
        <path
           d="M 420.813223 238.125265  L 383.11024 214.419821  "
           clip-path="url(#pcd68039229)"
           style="fill: none; stroke: #000000"
           id="path3654" />
        <path
           d="M 420.813223 238.125265  L 381.993737 261.484302  "
           clip-path="url(#pcd68039229)"
           style="fill: none; stroke: #000000"
           id="path3656" />
        <path
           d="M 420.813223 238.125265  L 405.913991 303.458315  "
           clip-path="url(#pcd68039229)"
           style="fill: none; stroke: #000000"
           id="path3658" />
        <path
           d="M 383.11024 214.419821  L 381.993737 261.484302  "
           clip-path="url(#pcd68039229)"
           style="fill: none; stroke: #000000"
           id="path3660" />
        <path
           d="M 383.11024 214.419821  L 296.815114 254.08159  "
           clip-path="url(#pcd68039229)"
           style="fill: none; stroke: #000000"
           id="path3664" />
        <path
           d="M 383.11024 214.419821  L 287.867457 199.634041  "
           clip-path="url(#pcd68039229)"
           style="fill:none;stroke:#ffa500;stroke-width:4;font-variation-settings:normal;opacity:1;vector-effect:none;fill-opacity:1;stroke-linecap:round;stroke-linejoin:round;stroke-miterlimit:4;stroke-dasharray:none;stroke-dashoffset:0;stroke-opacity:1;-inkscape-stroke:none;stop-color:#000000;stop-opacity:1"
           id="path3662" />
        <path
           d="M 123.262 44.47685  L 382.419939 43.930518  "
           clip-path="url(#pcd68039229)"
           style="fill: none; stroke: #000000"
           id="path3666" />
        <path
           d="M 123.262 44.47685  L 71.928587 29.990083  "
           clip-path="url(#pcd68039229)"
           style="fill: none; stroke: #000000"
           id="path3668" />
        <path
           d="M 123.262 44.47685  L 305.906232 101.923386  "
           clip-path="url(#pcd68039229)"
           style="fill: none; stroke: #000000"
           id="path3670" />
        <path
           d="M 123.262 44.47685  L 130.092414 105.935565  "
           clip-path="url(#pcd68039229)"
           style="fill: none; stroke: #000000"
           id="path3672" />
        <path
           d="M 123.262 44.47685  L 109.267807 60.523355  "
           clip-path="url(#pcd68039229)"
           style="fill: none; stroke: #000000"
           id="path3674" />
        <path
           d="M 382.419939 43.930518  L 71.928587 29.990083  "
           clip-path="url(#pcd68039229)"
           style="fill: none; stroke: #000000"
           id="path3676" />
        <path
           d="M 382.419939 43.930518  L 305.906232 101.923386  "
           clip-path="url(#pcd68039229)"
           style="fill: none; stroke: #000000"
           id="path3678" />
        <path
           d="M 385.494205 125.462055  L 382.419939 43.930518  "
           clip-path="url(#pcd68039229)"
           style="fill:none;stroke:#ffa500;stroke-width:4;font-variation-settings:normal;opacity:1;vector-effect:none;fill-opacity:1;stroke-linecap:round;stroke-linejoin:round;stroke-miterlimit:4;stroke-dasharray:none;stroke-dashoffset:0;stroke-opacity:1;-inkscape-stroke:none;stop-color:#000000;stop-opacity:1"
           id="path3648" />
        <path
           d="M 71.928587 29.990083  L 43.048618 69.198159  "
           clip-path="url(#pcd68039229)"
           style="fill: none; stroke: #000000"
           id="path3680" />
        <path
           d="M 71.928587 29.990083  L 67.329553 46.161149  "
           clip-path="url(#pcd68039229)"
           style="fill: none; stroke: #000000"
           id="path3682" />
        <path
           d="M 71.928587 29.990083  L 109.267807 60.523355  "
           clip-path="url(#pcd68039229)"
           style="fill: none; stroke: #000000"
           id="path3684" />
        <path
           d="M 305.906232 101.923386  L 130.092414 105.935565  "
           clip-path="url(#pcd68039229)"
           style="fill: none; stroke: #000000"
           id="path3686" />
        <path
           d="M 305.906232 101.923386  L 243.725191 161.289746  "
           clip-path="url(#pcd68039229)"
           style="fill: none; stroke: #000000"
           id="path3688" />
        <path
           d="M 305.906232 101.923386  L 287.867457 199.634041  "
           clip-path="url(#pcd68039229)"
           style="fill: none; stroke: #000000"
           id="path3690" />
        <path
           d="M 385.494205 125.462055  L 305.906232 101.923386  "
           clip-path="url(#pcd68039229)"
           style="fill:none;stroke:#ffa500;stroke-width:4;font-variation-settings:normal;opacity:1;vector-effect:none;fill-opacity:1;stroke-linecap:round;stroke-linejoin:round;stroke-miterlimit:4;stroke-dasharray:none;stroke-dashoffset:0;stroke-opacity:1;-inkscape-stroke:none;stop-color:#000000;stop-opacity:1"
           id="path3650" />
        <path
           d="M 43.048618 69.198159  L 67.329553 46.161149  "
           clip-path="url(#pcd68039229)"
           style="fill: none; stroke: #000000"
           id="path3692" />
        <path
           d="M 43.048618 69.198159  L 100.738884 94.917847  "
           clip-path="url(#pcd68039229)"
           style="fill: none; stroke: #000000"
           id="path3694" />
        <path
           d="M 43.048618 69.198159  L 39.986777 77.772549  "
           clip-path="url(#pcd68039229)"
           style="fill: none; stroke: #000000"
           id="path3696" />
        <path
           d="M 67.329553 46.161149  L 100.738884 94.917847  "
           clip-path="url(#pcd68039229)"
           style="fill: none; stroke: #000000"
           id="path3698" />
        <path
           d="M 67.329553 46.161149  L 109.267807 60.523355  "
           clip-path="url(#pcd68039229)"
           style="fill: none; stroke: #000000"
           id="path3700" />
        <path
           d="M 130.092414 105.935565  L 87.315362 185.150603  "
           clip-path="url(#pcd68039229)"
           style="fill: none; stroke: #000000"
           id="path3702" />
        <path
           d="M 130.092414 105.935565  L 243.725191 161.289746  "
           clip-path="url(#pcd68039229)"
           style="fill: none; stroke: #000000"
           id="path3704" />
        <path
           d="M 130.092414 105.935565  L 100.738884 94.917847  "
           clip-path="url(#pcd68039229)"
           style="fill: none; stroke: #000000"
           id="path3706" />
        <path
           d="M 130.092414 105.935565  L 109.267807 60.523355  "
           clip-path="url(#pcd68039229)"
           style="fill: none; stroke: #000000"
           id="path3708" />
        <path
           d="M 87.315362 185.150603  L 243.725191 161.289746  "
           clip-path="url(#pcd68039229)"
           style="fill: none; stroke: #000000"
           id="path3710" />
        <path
           d="M 87.315362 185.150603  L 85.480754 242.85609  "
           clip-path="url(#pcd68039229)"
           style="fill: none; stroke: #000000"
           id="path3712" />
        <path
           d="M 87.315362 185.150603  L 113.884772 265.218907  "
           clip-path="url(#pcd68039229)"
           style="fill: none; stroke: #000000"
           id="path3714" />
        <path
           d="M 87.315362 185.150603  L 219.805904 253.012695  "
           clip-path="url(#pcd68039229)"
           style="fill: none; stroke: #000000"
           id="path3716" />
        <path
           d="M 87.315362 185.150603  L 100.738884 94.917847  "
           clip-path="url(#pcd68039229)"
           style="fill: none; stroke: #000000"
           id="path3718" />
        <path
           d="M 87.315362 185.150603  L 39.986777 77.772549  "
           clip-path="url(#pcd68039229)"
           style="fill: none; stroke: #000000"
           id="path3720" />
        <path
           d="M 87.315362 185.150603  L 68.18389 220.868684  "
           clip-path="url(#pcd68039229)"
           style="fill: none; stroke: #000000"
           id="path3722" />
        <path
           d="M 87.315362 185.150603  L 250.428416 191.379357  "
           clip-path="url(#pcd68039229)"
           style="fill: none; stroke: #000000"
           id="path3724" />
        <path
           d="M 243.725191 161.289746  L 287.867457 199.634041  "
           clip-path="url(#pcd68039229)"
           style="fill: none; stroke: #000000"
           id="path3726" />
        <path
           d="M 243.725191 161.289746  L 250.428416 191.379357  "
           clip-path="url(#pcd68039229)"
           style="fill: none; stroke: #000000"
           id="path3728" />
        <path
           d="M 113.884772 265.218907  L 85.480754 242.85609  "
           clip-path="url(#pcd68039229)"
           style="fill: none; stroke: #000000"
           id="path3730" />
        <path
           d="M 113.884772 265.218907  L 49.913052 246.780561  "
           clip-path="url(#pcd68039229)"
           style="fill: none; stroke: #000000"
           id="path3732" />
        <path
           d="M 113.884772 265.218907  L 164.078796 312.342592  "
           clip-path="url(#pcd68039229)"
           style="fill: none; stroke: #000000"
           id="path3734" />
        <path
           d="M 113.884772 265.218907  L 219.805904 253.012695  "
           clip-path="url(#pcd68039229)"
           style="fill: none; stroke: #000000"
           id="path3736" />
        <path
           d="M 113.884772 265.218907  L 177.056276 299.46459  "
           clip-path="url(#pcd68039229)"
           style="fill: none; stroke: #000000"
           id="path3738" />
        <path
           d="M 113.884772 265.218907  L 190.19076 277.644249  "
           clip-path="url(#pcd68039229)"
           style="fill: none; stroke: #000000"
           id="path3740" />
        <path
           d="M 85.480754 242.85609  L 49.913052 246.780561  "
           clip-path="url(#pcd68039229)"
           style="fill: none; stroke: #000000"
           id="path3742" />
        <path
           d="M 85.480754 242.85609  L 68.18389 220.868684  "
           clip-path="url(#pcd68039229)"
           style="fill: none; stroke: #000000"
           id="path3744" />
        <path
           d="M 49.913052 246.780561  L 164.078796 312.342592  "
           clip-path="url(#pcd68039229)"
           style="fill: none; stroke: #000000"
           id="path3746" />
        <path
           d="M 49.913052 246.780561  L 68.18389 220.868684  "
           clip-path="url(#pcd68039229)"
           style="fill: none; stroke: #000000"
           id="path3748" />
        <path
           d="M 49.913052 246.780561  L 39.986777 77.772549  "
           clip-path="url(#pcd68039229)"
           style="fill: none; stroke: #000000"
           id="path3750" />
        <path
           d="M 164.078796 312.342592  L 212.788828 292.095145  "
           clip-path="url(#pcd68039229)"
           style="fill: none; stroke: #000000"
           id="path3754" />
        <path
           d="M 164.078796 312.342592  L 177.056276 299.46459  "
           clip-path="url(#pcd68039229)"
           style="fill: none; stroke: #000000"
           id="path3756" />
        <path
           d="M 318.932561 315.609917  L 381.993737 261.484302  "
           clip-path="url(#pcd68039229)"
           style="fill: none; stroke: #000000"
           id="path3760" />
        <path
           d="M 318.932561 315.609917  L 392.134107 308.849244  "
           clip-path="url(#pcd68039229)"
           style="fill: none; stroke: #000000"
           id="path3762" />
        <path
           d="M 318.932561 315.609917  L 268.21407 289.740061  "
           clip-path="url(#pcd68039229)"
           style="fill: none; stroke: #000000"
           id="path3764" />
        <path
           d="M 318.932561 315.609917  L 296.815114 254.08159  "
           clip-path="url(#pcd68039229)"
           style="fill: none; stroke: #000000"
           id="path3766" />
        <path
           d="M 318.932561 315.609917  L 212.788828 292.095145  "
           clip-path="url(#pcd68039229)"
           style="fill:none;stroke:#ffa500;stroke-width:4;font-variation-settings:normal;opacity:1;vector-effect:none;fill-opacity:1;stroke-linecap:round;stroke-linejoin:round;stroke-miterlimit:4;stroke-dasharray:none;stroke-dashoffset:0;stroke-opacity:1;-inkscape-stroke:none;stop-color:#000000;stop-opacity:1"
           id="path3758" />
        <path
           d="M 164.078796 312.342592  L 318.932561 315.609917  "
           clip-path="url(#pcd68039229)"
           style="fill:none;stroke:#ffa500;stroke-width:4;font-variation-settings:normal;opacity:1;vector-effect:none;fill-opacity:1;stroke-linecap:round;stroke-linejoin:round;stroke-miterlimit:4;stroke-dasharray:none;stroke-dashoffset:0;stroke-opacity:1;-inkscape-stroke:none;stop-color:#000000;stop-opacity:1"
           id="path3752" />
        <path
           d="M 212.788828 292.095145  L 177.056276 299.46459  "
           clip-path="url(#pcd68039229)"
           style="fill: none; stroke: #000000"
           id="path3768" />
        <path
           d="M 212.788828 292.095145  L 265.960754 274.745461  "
           clip-path="url(#pcd68039229)"
           style="fill: none; stroke: #000000"
           id="path3770" />
        <path
           d="M 212.788828 292.095145  L 219.805904 253.012695  "
           clip-path="url(#pcd68039229)"
           style="fill: none; stroke: #000000"
           id="path3772" />
        <path
           d="M 212.788828 292.095145  L 194.044418 279.814946  "
           clip-path="url(#pcd68039229)"
           style="fill: none; stroke: #000000"
           id="path3776" />
        <path
           d="M 219.805904 253.012695  L 265.960754 274.745461  "
           clip-path="url(#pcd68039229)"
           style="fill: none; stroke: #000000"
           id="path3778" />
        <path
           d="M 219.805904 253.012695  L 190.19076 277.644249  "
           clip-path="url(#pcd68039229)"
           style="fill: none; stroke: #000000"
           id="path3780" />
        <path
           d="M 219.805904 253.012695  L 194.044418 279.814946  "
           clip-path="url(#pcd68039229)"
           style="fill: none; stroke: #000000"
           id="path3782" />
        <path
           d="M 219.805904 253.012695  L 287.867457 199.634041  "
           clip-path="url(#pcd68039229)"
           style="fill: none; stroke: #000000"
           id="path3784" />
        <path
           d="M 385.494205 125.462055  L 287.867457 199.634041  "
           clip-path="url(#pcd68039229)"
           style="fill:none;stroke:#ffa500;stroke-width:4;font-variation-settings:normal;opacity:1;vector-effect:none;fill-opacity:1;stroke-linecap:round;stroke-linejoin:round;stroke-miterlimit:4;stroke-dasharray:none;stroke-dashoffset:0;stroke-opacity:1;-inkscape-stroke:none;stop-color:#000000;stop-opacity:1"
           id="path3652" />
        <path
           d="M 219.805904 253.012695  L 250.428416 191.379357  "
           clip-path="url(#pcd68039229)"
           style="fill: none; stroke: #000000"
           id="path3786" />
        <path
           d="m 220.56185,253.21677 76.25326,0.86482"
           clip-path="url(#pcd68039229)"
           style="font-variation-settings:normal;opacity:1;vector-effect:none;fill:none;fill-opacity:1;stroke:#ffa500;stroke-width:4;stroke-linecap:round;stroke-linejoin:round;stroke-miterlimit:4;stroke-dasharray:none;stroke-dashoffset:0;stroke-opacity:1;-inkscape-stroke:none;stop-color:#000000;stop-opacity:1"
           id="path3788"
           sodipodi:nodetypes="cc" />
        <path
           d="M 381.993737 261.484302  L 392.134107 308.849244  "
           clip-path="url(#pcd68039229)"
           style="fill: none; stroke: #000000"
           id="path3790" />
        <path
           d="M 381.993737 261.484302  L 405.913991 303.458315  "
           clip-path="url(#pcd68039229)"
           style="fill: none; stroke: #000000"
           id="path3792" />
        <path
           d="M 381.993737 261.484302  L 296.815114 254.08159  "
           clip-path="url(#pcd68039229)"
           style="fill: none; stroke: #000000"
           id="path3794" />
        <path
           d="M 392.134107 308.849244  L 405.913991 303.458315  "
           clip-path="url(#pcd68039229)"
           style="fill: none; stroke: #000000"
           id="path3796" />
        <path
           d="M 100.738884 94.917847  L 39.986777 77.772549  "
           clip-path="url(#pcd68039229)"
           style="fill: none; stroke: #000000"
           id="path3798" />
        <path
           d="M 100.738884 94.917847  L 109.267807 60.523355  "
           clip-path="url(#pcd68039229)"
           style="fill: none; stroke: #000000"
           id="path3800" />
        <path
           d="M 39.986777 77.772549  L 68.18389 220.868684  "
           clip-path="url(#pcd68039229)"
           style="fill: none; stroke: #000000"
           id="path3802" />
        <path
           d="M 177.056276 299.46459  L 190.19076 277.644249  "
           clip-path="url(#pcd68039229)"
           style="fill: none; stroke: #000000"
           id="path3804" />
        <path
           d="M 177.056276 299.46459  L 194.044418 279.814946  "
           clip-path="url(#pcd68039229)"
           style="fill: none; stroke: #000000"
           id="path3806" />
        <path
           d="M 190.19076 277.644249  L 194.044418 279.814946  "
           clip-path="url(#pcd68039229)"
           style="fill: none; stroke: #000000"
           id="path3812" />
        <path
           d="M 268.21407 289.740061  L 296.815114 254.08159  "
           clip-path="url(#pcd68039229)"
           style="fill: none; stroke: #000000"
           id="path3814" />
        <path
           d="M 265.960754 274.745461  L 268.21407 289.740061  "
           clip-path="url(#pcd68039229)"
           style="fill:none;stroke:#ffa500;stroke-width:4;stroke-linecap:round"
           id="path3808" />
        <path
           d="M 265.960754 274.745461  L 296.815114 254.08159  "
           clip-path="url(#pcd68039229)"
           style="fill:none;stroke:#ffa500;stroke-width:4;font-variation-settings:normal;opacity:1;vector-effect:none;fill-opacity:1;stroke-linecap:round;stroke-linejoin:round;stroke-miterlimit:4;stroke-dasharray:none;stroke-dashoffset:0;stroke-opacity:1;-inkscape-stroke:none;stop-color:#000000;stop-opacity:1"
           id="path3810" />
        <path
           d="m 213.47806,292.09514 54.3613,-2.30895"
           clip-path="url(#pcd68039229)"
           style="font-variation-settings:normal;opacity:1;vector-effect:none;fill:none;fill-opacity:1;stroke:#ff0000;stroke-width:4;stroke-linecap:round;stroke-linejoin:round;stroke-miterlimit:4;stroke-dasharray:none;stroke-dashoffset:0;stroke-opacity:1;-inkscape-stroke:none;stop-color:#000000;stop-opacity:1"
           id="path3774"
           sodipodi:nodetypes="cc" />
        <path
           d="M 287.867457 199.634041  L 250.428416 191.379357  "
           clip-path="url(#pcd68039229)"
           style="fill: none; stroke: #000000"
           id="path3816" />
        <path
           d="M 287.867457 199.634041  L 296.815114 254.08159  "
           clip-path="url(#pcd68039229)"
           style="fill:none;stroke:#ffa500;stroke-width:4;font-variation-settings:normal;opacity:1;vector-effect:none;fill-opacity:1;stroke-linecap:round;stroke-linejoin:round;stroke-miterlimit:4;stroke-dasharray:none;stroke-dashoffset:0;stroke-opacity:1;-inkscape-stroke:none;stop-color:#000000;stop-opacity:1"
           id="path3818" />
      </g>
      <g
         id="PathCollection_1">
        <path
           d="M 412.551944 58.44214  C 412.551944 58.44214 412.551944 58.44214 412.551944 58.44214  C 412.551944 58.44214 412.551944 58.44214 412.551944 58.44214  C 412.551944 58.44214 412.551944 58.44214 412.551944 58.44214  C 412.551944 58.44214 412.551944 58.44214 412.551944 58.44214  C 412.551944 58.44214 412.551944 58.44214 412.551944 58.44214  C 412.551944 58.44214 412.551944 58.44214 412.551944 58.44214  C 412.551944 58.44214 412.551944 58.44214 412.551944 58.44214  C 412.551944 58.44214 412.551944 58.44214 412.551944 58.44214  z "
           clip-path="url(#pcd68039229)"
           style="fill: #1f78b4; stroke: #1f78b4"
           id="path3821" />
        <path
           d="M 385.494205 130.462055  C 386.82022 130.462055 388.092104 129.935223 389.029739 128.997589  C 389.967373 128.059954 390.494205 126.78807 390.494205 125.462055  C 390.494205 124.136039 389.967373 122.864156 389.029739 121.926521  C 388.092104 120.988886 386.82022 120.462055 385.494205 120.462055  C 384.168189 120.462055 382.896305 120.988886 381.958671 121.926521  C 381.021036 122.864156 380.494205 124.136039 380.494205 125.462055  C 380.494205 126.78807 381.021036 128.059954 381.958671 128.997589  C 382.896305 129.935223 384.168189 130.462055 385.494205 130.462055  z "
           clip-path="url(#pcd68039229)"
           style="fill: #1f78b4; stroke: #1f78b4"
           id="path3823" />
        <path
           d="M 420.813223 238.125265  C 420.813223 238.125265 420.813223 238.125265 420.813223 238.125265  C 420.813223 238.125265 420.813223 238.125265 420.813223 238.125265  C 420.813223 238.125265 420.813223 238.125265 420.813223 238.125265  C 420.813223 238.125265 420.813223 238.125265 420.813223 238.125265  C 420.813223 238.125265 420.813223 238.125265 420.813223 238.125265  C 420.813223 238.125265 420.813223 238.125265 420.813223 238.125265  C 420.813223 238.125265 420.813223 238.125265 420.813223 238.125265  C 420.813223 238.125265 420.813223 238.125265 420.813223 238.125265  z "
           clip-path="url(#pcd68039229)"
           style="fill: #1f78b4; stroke: #1f78b4"
           id="path3825" />
        <path
           d="M 383.11024 214.419821  C 383.11024 214.419821 383.11024 214.419821 383.11024 214.419821  C 383.11024 214.419821 383.11024 214.419821 383.11024 214.419821  C 383.11024 214.419821 383.11024 214.419821 383.11024 214.419821  C 383.11024 214.419821 383.11024 214.419821 383.11024 214.419821  C 383.11024 214.419821 383.11024 214.419821 383.11024 214.419821  C 383.11024 214.419821 383.11024 214.419821 383.11024 214.419821  C 383.11024 214.419821 383.11024 214.419821 383.11024 214.419821  C 383.11024 214.419821 383.11024 214.419821 383.11024 214.419821  z "
           clip-path="url(#pcd68039229)"
           style="fill: #1f78b4; stroke: #1f78b4"
           id="path3827" />
        <path
           d="M 123.262 44.47685  C 123.262 44.47685 123.262 44.47685 123.262 44.47685  C 123.262 44.47685 123.262 44.47685 123.262 44.47685  C 123.262 44.47685 123.262 44.47685 123.262 44.47685  C 123.262 44.47685 123.262 44.47685 123.262 44.47685  C 123.262 44.47685 123.262 44.47685 123.262 44.47685  C 123.262 44.47685 123.262 44.47685 123.262 44.47685  C 123.262 44.47685 123.262 44.47685 123.262 44.47685  C 123.262 44.47685 123.262 44.47685 123.262 44.47685  z "
           clip-path="url(#pcd68039229)"
           style="fill: #1f78b4; stroke: #1f78b4"
           id="path3829" />
        <path
           d="M 382.419939 43.930518  C 382.419939 43.930518 382.419939 43.930518 382.419939 43.930518  C 382.419939 43.930518 382.419939 43.930518 382.419939 43.930518  C 382.419939 43.930518 382.419939 43.930518 382.419939 43.930518  C 382.419939 43.930518 382.419939 43.930518 382.419939 43.930518  C 382.419939 43.930518 382.419939 43.930518 382.419939 43.930518  C 382.419939 43.930518 382.419939 43.930518 382.419939 43.930518  C 382.419939 43.930518 382.419939 43.930518 382.419939 43.930518  C 382.419939 43.930518 382.419939 43.930518 382.419939 43.930518  z "
           clip-path="url(#pcd68039229)"
           style="fill: #1f78b4; stroke: #1f78b4"
           id="path3831" />
        <path
           d="M 71.928587 29.990083  C 71.928587 29.990083 71.928587 29.990083 71.928587 29.990083  C 71.928587 29.990083 71.928587 29.990083 71.928587 29.990083  C 71.928587 29.990083 71.928587 29.990083 71.928587 29.990083  C 71.928587 29.990083 71.928587 29.990083 71.928587 29.990083  C 71.928587 29.990083 71.928587 29.990083 71.928587 29.990083  C 71.928587 29.990083 71.928587 29.990083 71.928587 29.990083  C 71.928587 29.990083 71.928587 29.990083 71.928587 29.990083  C 71.928587 29.990083 71.928587 29.990083 71.928587 29.990083  z "
           clip-path="url(#pcd68039229)"
           style="fill: #1f78b4; stroke: #1f78b4"
           id="path3833" />
        <path
           d="M 305.906232 101.923386  C 305.906232 101.923386 305.906232 101.923386 305.906232 101.923386  C 305.906232 101.923386 305.906232 101.923386 305.906232 101.923386  C 305.906232 101.923386 305.906232 101.923386 305.906232 101.923386  C 305.906232 101.923386 305.906232 101.923386 305.906232 101.923386  C 305.906232 101.923386 305.906232 101.923386 305.906232 101.923386  C 305.906232 101.923386 305.906232 101.923386 305.906232 101.923386  C 305.906232 101.923386 305.906232 101.923386 305.906232 101.923386  C 305.906232 101.923386 305.906232 101.923386 305.906232 101.923386  z "
           clip-path="url(#pcd68039229)"
           style="fill: #1f78b4; stroke: #1f78b4"
           id="path3835" />
        <path
           d="M 43.048618 69.198159  C 43.048618 69.198159 43.048618 69.198159 43.048618 69.198159  C 43.048618 69.198159 43.048618 69.198159 43.048618 69.198159  C 43.048618 69.198159 43.048618 69.198159 43.048618 69.198159  C 43.048618 69.198159 43.048618 69.198159 43.048618 69.198159  C 43.048618 69.198159 43.048618 69.198159 43.048618 69.198159  C 43.048618 69.198159 43.048618 69.198159 43.048618 69.198159  C 43.048618 69.198159 43.048618 69.198159 43.048618 69.198159  C 43.048618 69.198159 43.048618 69.198159 43.048618 69.198159  z "
           clip-path="url(#pcd68039229)"
           style="fill: #1f78b4; stroke: #1f78b4"
           id="path3837" />
        <path
           d="M 67.329553 46.161149  C 67.329553 46.161149 67.329553 46.161149 67.329553 46.161149  C 67.329553 46.161149 67.329553 46.161149 67.329553 46.161149  C 67.329553 46.161149 67.329553 46.161149 67.329553 46.161149  C 67.329553 46.161149 67.329553 46.161149 67.329553 46.161149  C 67.329553 46.161149 67.329553 46.161149 67.329553 46.161149  C 67.329553 46.161149 67.329553 46.161149 67.329553 46.161149  C 67.329553 46.161149 67.329553 46.161149 67.329553 46.161149  C 67.329553 46.161149 67.329553 46.161149 67.329553 46.161149  z "
           clip-path="url(#pcd68039229)"
           style="fill: #1f78b4; stroke: #1f78b4"
           id="path3839" />
        <path
           d="M 130.092414 105.935565  C 130.092414 105.935565 130.092414 105.935565 130.092414 105.935565  C 130.092414 105.935565 130.092414 105.935565 130.092414 105.935565  C 130.092414 105.935565 130.092414 105.935565 130.092414 105.935565  C 130.092414 105.935565 130.092414 105.935565 130.092414 105.935565  C 130.092414 105.935565 130.092414 105.935565 130.092414 105.935565  C 130.092414 105.935565 130.092414 105.935565 130.092414 105.935565  C 130.092414 105.935565 130.092414 105.935565 130.092414 105.935565  C 130.092414 105.935565 130.092414 105.935565 130.092414 105.935565  z "
           clip-path="url(#pcd68039229)"
           style="fill: #1f78b4; stroke: #1f78b4"
           id="path3841" />
        <path
           d="M 87.315362 185.150603  C 87.315362 185.150603 87.315362 185.150603 87.315362 185.150603  C 87.315362 185.150603 87.315362 185.150603 87.315362 185.150603  C 87.315362 185.150603 87.315362 185.150603 87.315362 185.150603  C 87.315362 185.150603 87.315362 185.150603 87.315362 185.150603  C 87.315362 185.150603 87.315362 185.150603 87.315362 185.150603  C 87.315362 185.150603 87.315362 185.150603 87.315362 185.150603  C 87.315362 185.150603 87.315362 185.150603 87.315362 185.150603  C 87.315362 185.150603 87.315362 185.150603 87.315362 185.150603  z "
           clip-path="url(#pcd68039229)"
           style="fill: #1f78b4; stroke: #1f78b4"
           id="path3843" />
        <path
           d="M 243.725191 161.289746  C 243.725191 161.289746 243.725191 161.289746 243.725191 161.289746  C 243.725191 161.289746 243.725191 161.289746 243.725191 161.289746  C 243.725191 161.289746 243.725191 161.289746 243.725191 161.289746  C 243.725191 161.289746 243.725191 161.289746 243.725191 161.289746  C 243.725191 161.289746 243.725191 161.289746 243.725191 161.289746  C 243.725191 161.289746 243.725191 161.289746 243.725191 161.289746  C 243.725191 161.289746 243.725191 161.289746 243.725191 161.289746  C 243.725191 161.289746 243.725191 161.289746 243.725191 161.289746  z "
           clip-path="url(#pcd68039229)"
           style="fill: #1f78b4; stroke: #1f78b4"
           id="path3845" />
        <path
           d="M 113.884772 265.218907  C 113.884772 265.218907 113.884772 265.218907 113.884772 265.218907  C 113.884772 265.218907 113.884772 265.218907 113.884772 265.218907  C 113.884772 265.218907 113.884772 265.218907 113.884772 265.218907  C 113.884772 265.218907 113.884772 265.218907 113.884772 265.218907  C 113.884772 265.218907 113.884772 265.218907 113.884772 265.218907  C 113.884772 265.218907 113.884772 265.218907 113.884772 265.218907  C 113.884772 265.218907 113.884772 265.218907 113.884772 265.218907  C 113.884772 265.218907 113.884772 265.218907 113.884772 265.218907  z "
           clip-path="url(#pcd68039229)"
           style="fill: #1f78b4; stroke: #1f78b4"
           id="path3847" />
        <path
           d="M 85.480754 242.85609  C 85.480754 242.85609 85.480754 242.85609 85.480754 242.85609  C 85.480754 242.85609 85.480754 242.85609 85.480754 242.85609  C 85.480754 242.85609 85.480754 242.85609 85.480754 242.85609  C 85.480754 242.85609 85.480754 242.85609 85.480754 242.85609  C 85.480754 242.85609 85.480754 242.85609 85.480754 242.85609  C 85.480754 242.85609 85.480754 242.85609 85.480754 242.85609  C 85.480754 242.85609 85.480754 242.85609 85.480754 242.85609  C 85.480754 242.85609 85.480754 242.85609 85.480754 242.85609  z "
           clip-path="url(#pcd68039229)"
           style="fill: #1f78b4; stroke: #1f78b4"
           id="path3849" />
        <path
           d="M 49.913052 246.780561  C 49.913052 246.780561 49.913052 246.780561 49.913052 246.780561  C 49.913052 246.780561 49.913052 246.780561 49.913052 246.780561  C 49.913052 246.780561 49.913052 246.780561 49.913052 246.780561  C 49.913052 246.780561 49.913052 246.780561 49.913052 246.780561  C 49.913052 246.780561 49.913052 246.780561 49.913052 246.780561  C 49.913052 246.780561 49.913052 246.780561 49.913052 246.780561  C 49.913052 246.780561 49.913052 246.780561 49.913052 246.780561  C 49.913052 246.780561 49.913052 246.780561 49.913052 246.780561  z "
           clip-path="url(#pcd68039229)"
           style="fill: #1f78b4; stroke: #1f78b4"
           id="path3851" />
        <path
           d="M 164.078796 312.342592  C 164.078796 312.342592 164.078796 312.342592 164.078796 312.342592  C 164.078796 312.342592 164.078796 312.342592 164.078796 312.342592  C 164.078796 312.342592 164.078796 312.342592 164.078796 312.342592  C 164.078796 312.342592 164.078796 312.342592 164.078796 312.342592  C 164.078796 312.342592 164.078796 312.342592 164.078796 312.342592  C 164.078796 312.342592 164.078796 312.342592 164.078796 312.342592  C 164.078796 312.342592 164.078796 312.342592 164.078796 312.342592  C 164.078796 312.342592 164.078796 312.342592 164.078796 312.342592  z "
           clip-path="url(#pcd68039229)"
           style="fill: #1f78b4; stroke: #1f78b4"
           id="path3853" />
        <path
           d="M 318.932561 315.609917  C 318.932561 315.609917 318.932561 315.609917 318.932561 315.609917  C 318.932561 315.609917 318.932561 315.609917 318.932561 315.609917  C 318.932561 315.609917 318.932561 315.609917 318.932561 315.609917  C 318.932561 315.609917 318.932561 315.609917 318.932561 315.609917  C 318.932561 315.609917 318.932561 315.609917 318.932561 315.609917  C 318.932561 315.609917 318.932561 315.609917 318.932561 315.609917  C 318.932561 315.609917 318.932561 315.609917 318.932561 315.609917  C 318.932561 315.609917 318.932561 315.609917 318.932561 315.609917  z "
           clip-path="url(#pcd68039229)"
           style="fill: #1f78b4; stroke: #1f78b4"
           id="path3855" />
        <path
           d="M 212.788828 292.095145  C 212.788828 292.095145 212.788828 292.095145 212.788828 292.095145  C 212.788828 292.095145 212.788828 292.095145 212.788828 292.095145  C 212.788828 292.095145 212.788828 292.095145 212.788828 292.095145  C 212.788828 292.095145 212.788828 292.095145 212.788828 292.095145  C 212.788828 292.095145 212.788828 292.095145 212.788828 292.095145  C 212.788828 292.095145 212.788828 292.095145 212.788828 292.095145  C 212.788828 292.095145 212.788828 292.095145 212.788828 292.095145  C 212.788828 292.095145 212.788828 292.095145 212.788828 292.095145  z "
           clip-path="url(#pcd68039229)"
           style="fill: #1f78b4; stroke: #1f78b4"
           id="path3857" />
        <path
           d="M 219.805904 253.012695  C 219.805904 253.012695 219.805904 253.012695 219.805904 253.012695  C 219.805904 253.012695 219.805904 253.012695 219.805904 253.012695  C 219.805904 253.012695 219.805904 253.012695 219.805904 253.012695  C 219.805904 253.012695 219.805904 253.012695 219.805904 253.012695  C 219.805904 253.012695 219.805904 253.012695 219.805904 253.012695  C 219.805904 253.012695 219.805904 253.012695 219.805904 253.012695  C 219.805904 253.012695 219.805904 253.012695 219.805904 253.012695  C 219.805904 253.012695 219.805904 253.012695 219.805904 253.012695  z "
           clip-path="url(#pcd68039229)"
           style="fill: #1f78b4; stroke: #1f78b4"
           id="path3859" />
        <path
           d="M 381.993737 261.484302  C 381.993737 261.484302 381.993737 261.484302 381.993737 261.484302  C 381.993737 261.484302 381.993737 261.484302 381.993737 261.484302  C 381.993737 261.484302 381.993737 261.484302 381.993737 261.484302  C 381.993737 261.484302 381.993737 261.484302 381.993737 261.484302  C 381.993737 261.484302 381.993737 261.484302 381.993737 261.484302  C 381.993737 261.484302 381.993737 261.484302 381.993737 261.484302  C 381.993737 261.484302 381.993737 261.484302 381.993737 261.484302  C 381.993737 261.484302 381.993737 261.484302 381.993737 261.484302  z "
           clip-path="url(#pcd68039229)"
           style="fill: #1f78b4; stroke: #1f78b4"
           id="path3861" />
        <path
           d="M 392.134107 308.849244  C 392.134107 308.849244 392.134107 308.849244 392.134107 308.849244  C 392.134107 308.849244 392.134107 308.849244 392.134107 308.849244  C 392.134107 308.849244 392.134107 308.849244 392.134107 308.849244  C 392.134107 308.849244 392.134107 308.849244 392.134107 308.849244  C 392.134107 308.849244 392.134107 308.849244 392.134107 308.849244  C 392.134107 308.849244 392.134107 308.849244 392.134107 308.849244  C 392.134107 308.849244 392.134107 308.849244 392.134107 308.849244  C 392.134107 308.849244 392.134107 308.849244 392.134107 308.849244  z "
           clip-path="url(#pcd68039229)"
           style="fill: #1f78b4; stroke: #1f78b4"
           id="path3863" />
        <path
           d="M 405.913991 303.458315  C 405.913991 303.458315 405.913991 303.458315 405.913991 303.458315  C 405.913991 303.458315 405.913991 303.458315 405.913991 303.458315  C 405.913991 303.458315 405.913991 303.458315 405.913991 303.458315  C 405.913991 303.458315 405.913991 303.458315 405.913991 303.458315  C 405.913991 303.458315 405.913991 303.458315 405.913991 303.458315  C 405.913991 303.458315 405.913991 303.458315 405.913991 303.458315  C 405.913991 303.458315 405.913991 303.458315 405.913991 303.458315  C 405.913991 303.458315 405.913991 303.458315 405.913991 303.458315  z "
           clip-path="url(#pcd68039229)"
           style="fill: #1f78b4; stroke: #1f78b4"
           id="path3865" />
        <path
           d="M 100.738884 94.917847  C 100.738884 94.917847 100.738884 94.917847 100.738884 94.917847  C 100.738884 94.917847 100.738884 94.917847 100.738884 94.917847  C 100.738884 94.917847 100.738884 94.917847 100.738884 94.917847  C 100.738884 94.917847 100.738884 94.917847 100.738884 94.917847  C 100.738884 94.917847 100.738884 94.917847 100.738884 94.917847  C 100.738884 94.917847 100.738884 94.917847 100.738884 94.917847  C 100.738884 94.917847 100.738884 94.917847 100.738884 94.917847  C 100.738884 94.917847 100.738884 94.917847 100.738884 94.917847  z "
           clip-path="url(#pcd68039229)"
           style="fill: #1f78b4; stroke: #1f78b4"
           id="path3867" />
        <path
           d="M 39.986777 77.772549  C 39.986777 77.772549 39.986777 77.772549 39.986777 77.772549  C 39.986777 77.772549 39.986777 77.772549 39.986777 77.772549  C 39.986777 77.772549 39.986777 77.772549 39.986777 77.772549  C 39.986777 77.772549 39.986777 77.772549 39.986777 77.772549  C 39.986777 77.772549 39.986777 77.772549 39.986777 77.772549  C 39.986777 77.772549 39.986777 77.772549 39.986777 77.772549  C 39.986777 77.772549 39.986777 77.772549 39.986777 77.772549  C 39.986777 77.772549 39.986777 77.772549 39.986777 77.772549  z "
           clip-path="url(#pcd68039229)"
           style="fill: #1f78b4; stroke: #1f78b4"
           id="path3869" />
        <path
           d="M 68.18389 225.868684  C 69.509906 225.868684 70.78179 225.341852 71.719424 224.404218  C 72.657059 223.466583 73.18389 222.194699 73.18389 220.868684  C 73.18389 219.542668 72.657059 218.270785 71.719424 217.33315  C 70.78179 216.395515 69.509906 215.868684 68.18389 215.868684  C 66.857875 215.868684 65.585991 216.395515 64.648357 217.33315  C 63.710722 218.270785 63.18389 219.542668 63.18389 220.868684  C 63.18389 222.194699 63.710722 223.466583 64.648357 224.404218  C 65.585991 225.341852 66.857875 225.868684 68.18389 225.868684  z "
           clip-path="url(#pcd68039229)"
           style="fill: #1f78b4; stroke: #1f78b4"
           id="path3871" />
        <path
           d="M 177.056276 299.46459  C 177.056276 299.46459 177.056276 299.46459 177.056276 299.46459  C 177.056276 299.46459 177.056276 299.46459 177.056276 299.46459  C 177.056276 299.46459 177.056276 299.46459 177.056276 299.46459  C 177.056276 299.46459 177.056276 299.46459 177.056276 299.46459  C 177.056276 299.46459 177.056276 299.46459 177.056276 299.46459  C 177.056276 299.46459 177.056276 299.46459 177.056276 299.46459  C 177.056276 299.46459 177.056276 299.46459 177.056276 299.46459  C 177.056276 299.46459 177.056276 299.46459 177.056276 299.46459  z "
           clip-path="url(#pcd68039229)"
           style="fill: #1f78b4; stroke: #1f78b4"
           id="path3873" />
        <path
           d="M 265.960754 274.745461  C 265.960754 274.745461 265.960754 274.745461 265.960754 274.745461  C 265.960754 274.745461 265.960754 274.745461 265.960754 274.745461  C 265.960754 274.745461 265.960754 274.745461 265.960754 274.745461  C 265.960754 274.745461 265.960754 274.745461 265.960754 274.745461  C 265.960754 274.745461 265.960754 274.745461 265.960754 274.745461  C 265.960754 274.745461 265.960754 274.745461 265.960754 274.745461  C 265.960754 274.745461 265.960754 274.745461 265.960754 274.745461  C 265.960754 274.745461 265.960754 274.745461 265.960754 274.745461  z "
           clip-path="url(#pcd68039229)"
           style="fill: #1f78b4; stroke: #1f78b4"
           id="path3875" />
        <path
           d="M 109.267807 60.523355  C 109.267807 60.523355 109.267807 60.523355 109.267807 60.523355  C 109.267807 60.523355 109.267807 60.523355 109.267807 60.523355  C 109.267807 60.523355 109.267807 60.523355 109.267807 60.523355  C 109.267807 60.523355 109.267807 60.523355 109.267807 60.523355  C 109.267807 60.523355 109.267807 60.523355 109.267807 60.523355  C 109.267807 60.523355 109.267807 60.523355 109.267807 60.523355  C 109.267807 60.523355 109.267807 60.523355 109.267807 60.523355  C 109.267807 60.523355 109.267807 60.523355 109.267807 60.523355  z "
           clip-path="url(#pcd68039229)"
           style="fill: #1f78b4; stroke: #1f78b4"
           id="path3877" />
        <path
           d="M 190.19076 277.644249  C 190.19076 277.644249 190.19076 277.644249 190.19076 277.644249  C 190.19076 277.644249 190.19076 277.644249 190.19076 277.644249  C 190.19076 277.644249 190.19076 277.644249 190.19076 277.644249  C 190.19076 277.644249 190.19076 277.644249 190.19076 277.644249  C 190.19076 277.644249 190.19076 277.644249 190.19076 277.644249  C 190.19076 277.644249 190.19076 277.644249 190.19076 277.644249  C 190.19076 277.644249 190.19076 277.644249 190.19076 277.644249  C 190.19076 277.644249 190.19076 277.644249 190.19076 277.644249  z "
           clip-path="url(#pcd68039229)"
           style="fill: #1f78b4; stroke: #1f78b4"
           id="path3879" />
        <path
           d="M 268.21407 289.740061  C 268.21407 289.740061 268.21407 289.740061 268.21407 289.740061  C 268.21407 289.740061 268.21407 289.740061 268.21407 289.740061  C 268.21407 289.740061 268.21407 289.740061 268.21407 289.740061  C 268.21407 289.740061 268.21407 289.740061 268.21407 289.740061  C 268.21407 289.740061 268.21407 289.740061 268.21407 289.740061  C 268.21407 289.740061 268.21407 289.740061 268.21407 289.740061  C 268.21407 289.740061 268.21407 289.740061 268.21407 289.740061  C 268.21407 289.740061 268.21407 289.740061 268.21407 289.740061  z "
           clip-path="url(#pcd68039229)"
           style="fill: #1f78b4; stroke: #1f78b4"
           id="path3881" />
        <path
           d="M 287.867457 199.634041  C 287.867457 199.634041 287.867457 199.634041 287.867457 199.634041  C 287.867457 199.634041 287.867457 199.634041 287.867457 199.634041  C 287.867457 199.634041 287.867457 199.634041 287.867457 199.634041  C 287.867457 199.634041 287.867457 199.634041 287.867457 199.634041  C 287.867457 199.634041 287.867457 199.634041 287.867457 199.634041  C 287.867457 199.634041 287.867457 199.634041 287.867457 199.634041  C 287.867457 199.634041 287.867457 199.634041 287.867457 199.634041  C 287.867457 199.634041 287.867457 199.634041 287.867457 199.634041  z "
           clip-path="url(#pcd68039229)"
           style="fill: #1f78b4; stroke: #1f78b4"
           id="path3883" />
        <path
           d="M 194.044418 279.814946  C 194.044418 279.814946 194.044418 279.814946 194.044418 279.814946  C 194.044418 279.814946 194.044418 279.814946 194.044418 279.814946  C 194.044418 279.814946 194.044418 279.814946 194.044418 279.814946  C 194.044418 279.814946 194.044418 279.814946 194.044418 279.814946  C 194.044418 279.814946 194.044418 279.814946 194.044418 279.814946  C 194.044418 279.814946 194.044418 279.814946 194.044418 279.814946  C 194.044418 279.814946 194.044418 279.814946 194.044418 279.814946  C 194.044418 279.814946 194.044418 279.814946 194.044418 279.814946  z "
           clip-path="url(#pcd68039229)"
           style="fill: #1f78b4; stroke: #1f78b4"
           id="path3885" />
        <path
           d="M 250.428416 191.379357  C 250.428416 191.379357 250.428416 191.379357 250.428416 191.379357  C 250.428416 191.379357 250.428416 191.379357 250.428416 191.379357  C 250.428416 191.379357 250.428416 191.379357 250.428416 191.379357  C 250.428416 191.379357 250.428416 191.379357 250.428416 191.379357  C 250.428416 191.379357 250.428416 191.379357 250.428416 191.379357  C 250.428416 191.379357 250.428416 191.379357 250.428416 191.379357  C 250.428416 191.379357 250.428416 191.379357 250.428416 191.379357  C 250.428416 191.379357 250.428416 191.379357 250.428416 191.379357  z "
           clip-path="url(#pcd68039229)"
           style="fill: #1f78b4; stroke: #1f78b4"
           id="path3887" />
        <path
           d="M 296.815114 254.08159  C 296.815114 254.08159 296.815114 254.08159 296.815114 254.08159  C 296.815114 254.08159 296.815114 254.08159 296.815114 254.08159  C 296.815114 254.08159 296.815114 254.08159 296.815114 254.08159  C 296.815114 254.08159 296.815114 254.08159 296.815114 254.08159  C 296.815114 254.08159 296.815114 254.08159 296.815114 254.08159  C 296.815114 254.08159 296.815114 254.08159 296.815114 254.08159  C 296.815114 254.08159 296.815114 254.08159 296.815114 254.08159  C 296.815114 254.08159 296.815114 254.08159 296.815114 254.08159  z "
           clip-path="url(#pcd68039229)"
           style="fill: #1f78b4; stroke: #1f78b4"
           id="path3889" />
      </g>
    </g>
  </g>
  <defs
     id="defs3897">
    <clipPath
       id="pcd68039229">
      <rect
         x="0"
         y="0"
         width="460.8"
         height="345.6"
         id="rect3894" />
    </clipPath>
  </defs>
</svg>
